<?xml version="1.0" encoding="utf-8" standalone="no"?>
<!DOCTYPE svg PUBLIC "-//W3C//DTD SVG 1.1//EN"
  "http://www.w3.org/Graphics/SVG/1.1/DTD/svg11.dtd">
<!-- Created with matplotlib (https://matplotlib.org/) -->
<svg height="487.334562pt" version="1.1" viewBox="0 0 711.848 487.334562" width="711.848pt" xmlns="http://www.w3.org/2000/svg" xmlns:xlink="http://www.w3.org/1999/xlink">
 <defs>
  <style type="text/css">
*{stroke-linecap:butt;stroke-linejoin:round;}
  </style>
 </defs>
 <g id="figure_1">
  <g id="patch_1">
   <path d="M 0 487.334562 
L 711.848 487.334562 
L 711.848 0 
L 0 0 
z
" style="fill:#ffffff;"/>
  </g>
  <g id="axes_1">
   <g id="patch_2">
    <path d="M 35.048 221.355477 
L 231.989176 221.355477 
L 231.989176 23.68275 
L 35.048 23.68275 
z
" style="fill:#eaeaf2;"/>
   </g>
   <g id="matplotlib.axis_1">
    <g id="xtick_1">
     <g id="text_1">
      <!-- C -->
      <defs>
       <path d="M 58.796875 25.09375 
L 68.265625 22.703125 
Q 65.28125 11.03125 57.546875 4.90625 
Q 49.8125 -1.21875 38.625 -1.21875 
Q 27.046875 -1.21875 19.796875 3.484375 
Q 12.546875 8.203125 8.765625 17.140625 
Q 4.984375 26.078125 4.984375 36.328125 
Q 4.984375 47.515625 9.25 55.828125 
Q 13.53125 64.15625 21.40625 68.46875 
Q 29.296875 72.796875 38.765625 72.796875 
Q 49.515625 72.796875 56.828125 67.328125 
Q 64.15625 61.859375 67.046875 51.953125 
L 57.71875 49.75 
Q 55.21875 57.5625 50.484375 61.125 
Q 45.75 64.703125 38.578125 64.703125 
Q 30.328125 64.703125 24.78125 60.734375 
Q 19.234375 56.78125 16.984375 50.109375 
Q 14.75 43.453125 14.75 36.375 
Q 14.75 27.25 17.40625 20.4375 
Q 20.0625 13.625 25.671875 10.25 
Q 31.296875 6.890625 37.84375 6.890625 
Q 45.796875 6.890625 51.3125 11.46875 
Q 56.84375 16.0625 58.796875 25.09375 
z
" id="ArialMT-67"/>
      </defs>
      <g style="fill:#262626;" transform="translate(46.693327 240.30379)scale(0.132 -0.132)">
       <use xlink:href="#ArialMT-67"/>
      </g>
     </g>
    </g>
    <g id="xtick_2">
     <g id="text_2">
      <!-- CP -->
      <defs>
       <path d="M 7.71875 0 
L 7.71875 71.578125 
L 34.71875 71.578125 
Q 41.84375 71.578125 45.609375 70.90625 
Q 50.875 70.015625 54.4375 67.546875 
Q 58.015625 65.09375 60.1875 60.640625 
Q 62.359375 56.203125 62.359375 50.875 
Q 62.359375 41.75 56.546875 35.421875 
Q 50.734375 29.109375 35.546875 29.109375 
L 17.1875 29.109375 
L 17.1875 0 
z
M 17.1875 37.546875 
L 35.6875 37.546875 
Q 44.875 37.546875 48.734375 40.96875 
Q 52.59375 44.390625 52.59375 50.59375 
Q 52.59375 55.078125 50.3125 58.265625 
Q 48.046875 61.46875 44.34375 62.5 
Q 41.9375 63.140625 35.5 63.140625 
L 17.1875 63.140625 
z
" id="ArialMT-80"/>
      </defs>
      <g style="fill:#262626;" transform="translate(75.11445 240.30379)scale(0.132 -0.132)">
       <use xlink:href="#ArialMT-67"/>
       <use x="72.216797" xlink:href="#ArialMT-80"/>
      </g>
     </g>
    </g>
    <g id="xtick_3">
     <g id="text_3">
      <!-- CR -->
      <defs>
       <path d="M 7.859375 0 
L 7.859375 71.578125 
L 39.59375 71.578125 
Q 49.171875 71.578125 54.140625 69.640625 
Q 59.125 67.71875 62.109375 62.828125 
Q 65.09375 57.953125 65.09375 52.046875 
Q 65.09375 44.4375 60.15625 39.203125 
Q 55.21875 33.984375 44.921875 32.5625 
Q 48.6875 30.765625 50.640625 29 
Q 54.78125 25.203125 58.5 19.484375 
L 70.953125 0 
L 59.03125 0 
L 49.5625 14.890625 
Q 45.40625 21.34375 42.71875 24.75 
Q 40.046875 28.171875 37.921875 29.53125 
Q 35.796875 30.90625 33.59375 31.453125 
Q 31.984375 31.78125 28.328125 31.78125 
L 17.328125 31.78125 
L 17.328125 0 
z
M 17.328125 39.984375 
L 37.703125 39.984375 
Q 44.1875 39.984375 47.84375 41.328125 
Q 51.515625 42.671875 53.421875 45.625 
Q 55.328125 48.578125 55.328125 52.046875 
Q 55.328125 57.125 51.640625 60.390625 
Q 47.953125 63.671875 39.984375 63.671875 
L 17.328125 63.671875 
z
" id="ArialMT-82"/>
      </defs>
      <g style="fill:#262626;" transform="translate(107.573949 240.30379)scale(0.132 -0.132)">
       <use xlink:href="#ArialMT-67"/>
       <use x="72.216797" xlink:href="#ArialMT-82"/>
      </g>
     </g>
    </g>
    <g id="xtick_4">
     <g id="text_4">
      <!-- X -->
      <defs>
       <path d="M 0.4375 0 
L 28.125 37.3125 
L 3.71875 71.578125 
L 14.984375 71.578125 
L 27.984375 53.21875 
Q 32.03125 47.515625 33.734375 44.4375 
Q 36.140625 48.34375 39.40625 52.59375 
L 53.8125 71.578125 
L 64.109375 71.578125 
L 38.96875 37.84375 
L 66.0625 0 
L 54.34375 0 
L 36.328125 25.53125 
Q 34.8125 27.734375 33.203125 30.328125 
Q 30.8125 26.421875 29.78125 24.953125 
L 11.8125 0 
z
" id="ArialMT-88"/>
      </defs>
      <g style="fill:#262626;" transform="translate(145.527947 240.30379)scale(0.132 -0.132)">
       <use xlink:href="#ArialMT-88"/>
      </g>
     </g>
    </g>
    <g id="xtick_5">
     <g id="text_5">
      <!-- S -->
      <defs>
       <path d="M 4.5 23 
L 13.421875 23.78125 
Q 14.0625 18.40625 16.375 14.96875 
Q 18.703125 11.53125 23.578125 9.40625 
Q 28.46875 7.28125 34.578125 7.28125 
Q 39.984375 7.28125 44.140625 8.890625 
Q 48.296875 10.5 50.3125 13.296875 
Q 52.34375 16.109375 52.34375 19.4375 
Q 52.34375 22.796875 50.390625 25.3125 
Q 48.4375 27.828125 43.953125 29.546875 
Q 41.0625 30.671875 31.203125 33.03125 
Q 21.34375 35.40625 17.390625 37.5 
Q 12.25 40.1875 9.734375 44.15625 
Q 7.234375 48.140625 7.234375 53.078125 
Q 7.234375 58.5 10.296875 63.203125 
Q 13.375 67.921875 19.28125 70.359375 
Q 25.203125 72.796875 32.421875 72.796875 
Q 40.375 72.796875 46.453125 70.234375 
Q 52.546875 67.671875 55.8125 62.6875 
Q 59.078125 57.71875 59.328125 51.421875 
L 50.25 50.734375 
Q 49.515625 57.515625 45.28125 60.984375 
Q 41.0625 64.453125 32.8125 64.453125 
Q 24.21875 64.453125 20.28125 61.296875 
Q 16.359375 58.15625 16.359375 53.71875 
Q 16.359375 49.859375 19.140625 47.359375 
Q 21.875 44.875 33.421875 42.265625 
Q 44.96875 39.65625 49.265625 37.703125 
Q 55.515625 34.8125 58.484375 30.390625 
Q 61.46875 25.984375 61.46875 20.21875 
Q 61.46875 14.5 58.203125 9.4375 
Q 54.9375 4.390625 48.796875 1.578125 
Q 42.671875 -1.21875 35.015625 -1.21875 
Q 25.296875 -1.21875 18.71875 1.609375 
Q 12.15625 4.4375 8.421875 10.125 
Q 4.6875 15.828125 4.5 23 
z
" id="ArialMT-83"/>
      </defs>
      <g style="fill:#262626;" transform="translate(178.351476 240.30379)scale(0.132 -0.132)">
       <use xlink:href="#ArialMT-83"/>
      </g>
     </g>
    </g>
    <g id="xtick_6">
     <g id="text_6">
      <!-- A -->
      <defs>
       <path d="M -0.140625 0 
L 27.34375 71.578125 
L 37.546875 71.578125 
L 66.84375 0 
L 56.0625 0 
L 47.703125 21.6875 
L 17.78125 21.6875 
L 9.90625 0 
z
M 20.515625 29.390625 
L 44.78125 29.390625 
L 37.3125 49.21875 
Q 33.890625 58.25 32.234375 64.0625 
Q 30.859375 57.171875 28.375 50.390625 
z
" id="ArialMT-65"/>
      </defs>
      <g style="fill:#262626;" transform="translate(211.175006 240.30379)scale(0.132 -0.132)">
       <use xlink:href="#ArialMT-65"/>
      </g>
     </g>
    </g>
   </g>
   <g id="matplotlib.axis_2">
    <g id="ytick_1">
     <g id="line2d_1">
      <path clip-path="url(#p6dbde391bb)" d="M 35.048 221.355477 
L 231.989176 221.355477 
" style="fill:none;stroke:#ffffff;stroke-linecap:round;"/>
     </g>
     <g id="text_7">
      <!-- 0.0 -->
      <defs>
       <path d="M 4.15625 35.296875 
Q 4.15625 48 6.765625 55.734375 
Q 9.375 63.484375 14.515625 67.671875 
Q 19.671875 71.875 27.484375 71.875 
Q 33.25 71.875 37.59375 69.546875 
Q 41.9375 67.234375 44.765625 62.859375 
Q 47.609375 58.5 49.21875 52.21875 
Q 50.828125 45.953125 50.828125 35.296875 
Q 50.828125 22.703125 48.234375 14.96875 
Q 45.65625 7.234375 40.5 3 
Q 35.359375 -1.21875 27.484375 -1.21875 
Q 17.140625 -1.21875 11.234375 6.203125 
Q 4.15625 15.140625 4.15625 35.296875 
z
M 13.1875 35.296875 
Q 13.1875 17.671875 17.3125 11.828125 
Q 21.4375 6 27.484375 6 
Q 33.546875 6 37.671875 11.859375 
Q 41.796875 17.71875 41.796875 35.296875 
Q 41.796875 52.984375 37.671875 58.78125 
Q 33.546875 64.59375 27.390625 64.59375 
Q 21.34375 64.59375 17.71875 59.46875 
Q 13.1875 52.9375 13.1875 35.296875 
z
" id="ArialMT-48"/>
       <path d="M 9.078125 0 
L 9.078125 10.015625 
L 19.09375 10.015625 
L 19.09375 0 
z
" id="ArialMT-46"/>
      </defs>
      <g style="fill:#262626;" transform="translate(7.2 226.079634)scale(0.132 -0.132)">
       <use xlink:href="#ArialMT-48"/>
       <use x="55.615234" xlink:href="#ArialMT-46"/>
       <use x="83.398438" xlink:href="#ArialMT-48"/>
      </g>
     </g>
    </g>
    <g id="ytick_2">
     <g id="line2d_2">
      <path clip-path="url(#p6dbde391bb)" d="M 35.048 185.414981 
L 231.989176 185.414981 
" style="fill:none;stroke:#ffffff;stroke-linecap:round;"/>
     </g>
     <g id="text_8">
      <!-- 0.2 -->
      <defs>
       <path d="M 50.34375 8.453125 
L 50.34375 0 
L 3.03125 0 
Q 2.9375 3.171875 4.046875 6.109375 
Q 5.859375 10.9375 9.828125 15.625 
Q 13.8125 20.3125 21.34375 26.46875 
Q 33.015625 36.03125 37.109375 41.625 
Q 41.21875 47.21875 41.21875 52.203125 
Q 41.21875 57.421875 37.46875 61 
Q 33.734375 64.59375 27.734375 64.59375 
Q 21.390625 64.59375 17.578125 60.78125 
Q 13.765625 56.984375 13.71875 50.25 
L 4.6875 51.171875 
Q 5.609375 61.28125 11.65625 66.578125 
Q 17.71875 71.875 27.9375 71.875 
Q 38.234375 71.875 44.234375 66.15625 
Q 50.25 60.453125 50.25 52 
Q 50.25 47.703125 48.484375 43.546875 
Q 46.734375 39.40625 42.65625 34.8125 
Q 38.578125 30.21875 29.109375 22.21875 
Q 21.1875 15.578125 18.9375 13.203125 
Q 16.703125 10.84375 15.234375 8.453125 
z
" id="ArialMT-50"/>
      </defs>
      <g style="fill:#262626;" transform="translate(7.2 190.139138)scale(0.132 -0.132)">
       <use xlink:href="#ArialMT-48"/>
       <use x="55.615234" xlink:href="#ArialMT-46"/>
       <use x="83.398438" xlink:href="#ArialMT-50"/>
      </g>
     </g>
    </g>
    <g id="ytick_3">
     <g id="line2d_3">
      <path clip-path="url(#p6dbde391bb)" d="M 35.048 149.474486 
L 231.989176 149.474486 
" style="fill:none;stroke:#ffffff;stroke-linecap:round;"/>
     </g>
     <g id="text_9">
      <!-- 0.4 -->
      <defs>
       <path d="M 32.328125 0 
L 32.328125 17.140625 
L 1.265625 17.140625 
L 1.265625 25.203125 
L 33.9375 71.578125 
L 41.109375 71.578125 
L 41.109375 25.203125 
L 50.78125 25.203125 
L 50.78125 17.140625 
L 41.109375 17.140625 
L 41.109375 0 
z
M 32.328125 25.203125 
L 32.328125 57.46875 
L 9.90625 25.203125 
z
" id="ArialMT-52"/>
      </defs>
      <g style="fill:#262626;" transform="translate(7.2 154.198642)scale(0.132 -0.132)">
       <use xlink:href="#ArialMT-48"/>
       <use x="55.615234" xlink:href="#ArialMT-46"/>
       <use x="83.398438" xlink:href="#ArialMT-52"/>
      </g>
     </g>
    </g>
    <g id="ytick_4">
     <g id="line2d_4">
      <path clip-path="url(#p6dbde391bb)" d="M 35.048 113.53399 
L 231.989176 113.53399 
" style="fill:none;stroke:#ffffff;stroke-linecap:round;"/>
     </g>
     <g id="text_10">
      <!-- 0.6 -->
      <defs>
       <path d="M 49.75 54.046875 
L 41.015625 53.375 
Q 39.84375 58.546875 37.703125 60.890625 
Q 34.125 64.65625 28.90625 64.65625 
Q 24.703125 64.65625 21.53125 62.3125 
Q 17.390625 59.28125 14.984375 53.46875 
Q 12.59375 47.65625 12.5 36.921875 
Q 15.671875 41.75 20.265625 44.09375 
Q 24.859375 46.4375 29.890625 46.4375 
Q 38.671875 46.4375 44.84375 39.96875 
Q 51.03125 33.5 51.03125 23.25 
Q 51.03125 16.5 48.125 10.71875 
Q 45.21875 4.9375 40.140625 1.859375 
Q 35.0625 -1.21875 28.609375 -1.21875 
Q 17.625 -1.21875 10.6875 6.859375 
Q 3.765625 14.9375 3.765625 33.5 
Q 3.765625 54.25 11.421875 63.671875 
Q 18.109375 71.875 29.4375 71.875 
Q 37.890625 71.875 43.28125 67.140625 
Q 48.6875 62.40625 49.75 54.046875 
z
M 13.875 23.1875 
Q 13.875 18.65625 15.796875 14.5 
Q 17.71875 10.359375 21.1875 8.171875 
Q 24.65625 6 28.46875 6 
Q 34.03125 6 38.03125 10.484375 
Q 42.046875 14.984375 42.046875 22.703125 
Q 42.046875 30.125 38.078125 34.390625 
Q 34.125 38.671875 28.125 38.671875 
Q 22.171875 38.671875 18.015625 34.390625 
Q 13.875 30.125 13.875 23.1875 
z
" id="ArialMT-54"/>
      </defs>
      <g style="fill:#262626;" transform="translate(7.2 118.258146)scale(0.132 -0.132)">
       <use xlink:href="#ArialMT-48"/>
       <use x="55.615234" xlink:href="#ArialMT-46"/>
       <use x="83.398438" xlink:href="#ArialMT-54"/>
      </g>
     </g>
    </g>
    <g id="ytick_5">
     <g id="line2d_5">
      <path clip-path="url(#p6dbde391bb)" d="M 35.048 77.593494 
L 231.989176 77.593494 
" style="fill:none;stroke:#ffffff;stroke-linecap:round;"/>
     </g>
     <g id="text_11">
      <!-- 0.8 -->
      <defs>
       <path d="M 17.671875 38.8125 
Q 12.203125 40.828125 9.5625 44.53125 
Q 6.9375 48.25 6.9375 53.421875 
Q 6.9375 61.234375 12.546875 66.546875 
Q 18.171875 71.875 27.484375 71.875 
Q 36.859375 71.875 42.578125 66.421875 
Q 48.296875 60.984375 48.296875 53.171875 
Q 48.296875 48.1875 45.671875 44.5 
Q 43.0625 40.828125 37.75 38.8125 
Q 44.34375 36.671875 47.78125 31.875 
Q 51.21875 27.09375 51.21875 20.453125 
Q 51.21875 11.28125 44.71875 5.03125 
Q 38.234375 -1.21875 27.640625 -1.21875 
Q 17.046875 -1.21875 10.546875 5.046875 
Q 4.046875 11.328125 4.046875 20.703125 
Q 4.046875 27.6875 7.59375 32.390625 
Q 11.140625 37.109375 17.671875 38.8125 
z
M 15.921875 53.71875 
Q 15.921875 48.640625 19.1875 45.40625 
Q 22.46875 42.1875 27.6875 42.1875 
Q 32.765625 42.1875 36.015625 45.375 
Q 39.265625 48.578125 39.265625 53.21875 
Q 39.265625 58.0625 35.90625 61.359375 
Q 32.5625 64.65625 27.59375 64.65625 
Q 22.5625 64.65625 19.234375 61.421875 
Q 15.921875 58.203125 15.921875 53.71875 
z
M 13.09375 20.65625 
Q 13.09375 16.890625 14.875 13.375 
Q 16.65625 9.859375 20.171875 7.921875 
Q 23.6875 6 27.734375 6 
Q 34.03125 6 38.125 10.046875 
Q 42.234375 14.109375 42.234375 20.359375 
Q 42.234375 26.703125 38.015625 30.859375 
Q 33.796875 35.015625 27.4375 35.015625 
Q 21.234375 35.015625 17.15625 30.90625 
Q 13.09375 26.8125 13.09375 20.65625 
z
" id="ArialMT-56"/>
      </defs>
      <g style="fill:#262626;" transform="translate(7.2 82.31765)scale(0.132 -0.132)">
       <use xlink:href="#ArialMT-48"/>
       <use x="55.615234" xlink:href="#ArialMT-46"/>
       <use x="83.398438" xlink:href="#ArialMT-56"/>
      </g>
     </g>
    </g>
    <g id="ytick_6">
     <g id="line2d_6">
      <path clip-path="url(#p6dbde391bb)" d="M 35.048 41.652998 
L 231.989176 41.652998 
" style="fill:none;stroke:#ffffff;stroke-linecap:round;"/>
     </g>
     <g id="text_12">
      <!-- 1.0 -->
      <defs>
       <path d="M 37.25 0 
L 28.46875 0 
L 28.46875 56 
Q 25.296875 52.984375 20.140625 49.953125 
Q 14.984375 46.921875 10.890625 45.40625 
L 10.890625 53.90625 
Q 18.265625 57.375 23.78125 62.296875 
Q 29.296875 67.234375 31.59375 71.875 
L 37.25 71.875 
z
" id="ArialMT-49"/>
      </defs>
      <g style="fill:#262626;" transform="translate(7.2 46.377154)scale(0.132 -0.132)">
       <use xlink:href="#ArialMT-49"/>
       <use x="55.615234" xlink:href="#ArialMT-46"/>
       <use x="83.398438" xlink:href="#ArialMT-48"/>
      </g>
     </g>
    </g>
   </g>
   <g id="patch_3">
    <path clip-path="url(#p6dbde391bb)" d="M 38.330353 221.355477 
L 64.589176 221.355477 
L 64.589176 41.652998 
L 38.330353 41.652998 
z
" style="fill:#5875a4;stroke:#ffffff;stroke-linejoin:miter;"/>
   </g>
   <g id="patch_4">
    <path clip-path="url(#p6dbde391bb)" d="M 71.153882 221.355477 
L 97.412706 221.355477 
L 97.412706 61.060866 
L 71.153882 61.060866 
z
" style="fill:#cc8963;stroke:#ffffff;stroke-linejoin:miter;"/>
   </g>
   <g id="patch_5">
    <path clip-path="url(#p6dbde391bb)" d="M 103.977412 221.355477 
L 130.236235 221.355477 
L 130.236235 59.263841 
L 103.977412 59.263841 
z
" style="fill:#5f9e6e;stroke:#ffffff;stroke-linejoin:miter;"/>
   </g>
   <g id="patch_6">
    <path clip-path="url(#p6dbde391bb)" d="M 136.800941 221.355477 
L 163.059765 221.355477 
L 163.059765 55.669791 
L 136.800941 55.669791 
z
" style="fill:#b55d60;stroke:#ffffff;stroke-linejoin:miter;"/>
   </g>
   <g id="patch_7">
    <path clip-path="url(#p6dbde391bb)" d="M 169.624471 221.355477 
L 195.883294 221.355477 
L 195.883294 59.263841 
L 169.624471 59.263841 
z
" style="fill:#857aab;stroke:#ffffff;stroke-linejoin:miter;"/>
   </g>
   <g id="patch_8">
    <path clip-path="url(#p6dbde391bb)" d="M 202.448 221.355477 
L 228.706824 221.355477 
L 228.706824 54.411874 
L 202.448 54.411874 
z
" style="fill:#8d7866;stroke:#ffffff;stroke-linejoin:miter;"/>
   </g>
   <g id="line2d_7">
    <path clip-path="url(#p6dbde391bb)" d="M 0 0 
" style="fill:none;stroke:#424242;stroke-linecap:round;stroke-width:2.7;"/>
   </g>
   <g id="line2d_8">
    <path clip-path="url(#p6dbde391bb)" d="M 0 0 
" style="fill:none;stroke:#424242;stroke-linecap:round;stroke-width:2.7;"/>
   </g>
   <g id="line2d_9">
    <path clip-path="url(#p6dbde391bb)" d="M 0 0 
" style="fill:none;stroke:#424242;stroke-linecap:round;stroke-width:2.7;"/>
   </g>
   <g id="line2d_10">
    <path clip-path="url(#p6dbde391bb)" d="M 0 0 
" style="fill:none;stroke:#424242;stroke-linecap:round;stroke-width:2.7;"/>
   </g>
   <g id="line2d_11">
    <path clip-path="url(#p6dbde391bb)" d="M 0 0 
" style="fill:none;stroke:#424242;stroke-linecap:round;stroke-width:2.7;"/>
   </g>
   <g id="line2d_12">
    <path clip-path="url(#p6dbde391bb)" d="M 0 0 
" style="fill:none;stroke:#424242;stroke-linecap:round;stroke-width:2.7;"/>
   </g>
   <g id="patch_9">
    <path d="M 35.048 221.355477 
L 35.048 23.68275 
" style="fill:none;stroke:#ffffff;stroke-linecap:square;stroke-linejoin:miter;stroke-width:1.25;"/>
   </g>
   <g id="patch_10">
    <path d="M 231.989176 221.355477 
L 231.989176 23.68275 
" style="fill:none;stroke:#ffffff;stroke-linecap:square;stroke-linejoin:miter;stroke-width:1.25;"/>
   </g>
   <g id="patch_11">
    <path d="M 35.048 221.355477 
L 231.989176 221.355477 
" style="fill:none;stroke:#ffffff;stroke-linecap:square;stroke-linejoin:miter;stroke-width:1.25;"/>
   </g>
   <g id="patch_12">
    <path d="M 35.048 23.68275 
L 231.989176 23.68275 
" style="fill:none;stroke:#ffffff;stroke-linecap:square;stroke-linejoin:miter;stroke-width:1.25;"/>
   </g>
   <g id="text_13">
    <!-- 1.00 -->
    <g style="fill:#262626;" transform="translate(37.44789 38.790998)scale(0.144 -0.144)">
     <use xlink:href="#ArialMT-49"/>
     <use x="55.615234" xlink:href="#ArialMT-46"/>
     <use x="83.398438" xlink:href="#ArialMT-48"/>
     <use x="139.013672" xlink:href="#ArialMT-48"/>
    </g>
   </g>
   <g id="text_14">
    <!-- 0.89 -->
    <defs>
     <path d="M 5.46875 16.546875 
L 13.921875 17.328125 
Q 14.984375 11.375 18.015625 8.6875 
Q 21.046875 6 25.78125 6 
Q 29.828125 6 32.875 7.859375 
Q 35.9375 9.71875 37.890625 12.8125 
Q 39.84375 15.921875 41.15625 21.1875 
Q 42.484375 26.46875 42.484375 31.9375 
Q 42.484375 32.515625 42.4375 33.6875 
Q 39.796875 29.5 35.234375 26.875 
Q 30.671875 24.265625 25.34375 24.265625 
Q 16.453125 24.265625 10.296875 30.703125 
Q 4.15625 37.15625 4.15625 47.703125 
Q 4.15625 58.59375 10.578125 65.234375 
Q 17 71.875 26.65625 71.875 
Q 33.640625 71.875 39.421875 68.109375 
Q 45.21875 64.359375 48.21875 57.390625 
Q 51.21875 50.4375 51.21875 37.25 
Q 51.21875 23.53125 48.234375 15.40625 
Q 45.265625 7.28125 39.375 3.03125 
Q 33.5 -1.21875 25.59375 -1.21875 
Q 17.1875 -1.21875 11.859375 3.4375 
Q 6.546875 8.109375 5.46875 16.546875 
z
M 41.453125 48.140625 
Q 41.453125 55.71875 37.421875 60.15625 
Q 33.40625 64.59375 27.734375 64.59375 
Q 21.875 64.59375 17.53125 59.8125 
Q 13.1875 55.03125 13.1875 47.40625 
Q 13.1875 40.578125 17.3125 36.296875 
Q 21.4375 32.03125 27.484375 32.03125 
Q 33.59375 32.03125 37.515625 36.296875 
Q 41.453125 40.578125 41.453125 48.140625 
z
" id="ArialMT-57"/>
    </defs>
    <g style="fill:#262626;" transform="translate(70.271419 58.198866)scale(0.144 -0.144)">
     <use xlink:href="#ArialMT-48"/>
     <use x="55.615234" xlink:href="#ArialMT-46"/>
     <use x="83.398438" xlink:href="#ArialMT-56"/>
     <use x="139.013672" xlink:href="#ArialMT-57"/>
    </g>
   </g>
   <g id="text_15">
    <!-- 0.90 -->
    <g style="fill:#262626;" transform="translate(103.094949 56.401841)scale(0.144 -0.144)">
     <use xlink:href="#ArialMT-48"/>
     <use x="55.615234" xlink:href="#ArialMT-46"/>
     <use x="83.398438" xlink:href="#ArialMT-57"/>
     <use x="139.013672" xlink:href="#ArialMT-48"/>
    </g>
   </g>
   <g id="text_16">
    <!-- 0.92 -->
    <g style="fill:#262626;" transform="translate(135.918478 52.807791)scale(0.144 -0.144)">
     <use xlink:href="#ArialMT-48"/>
     <use x="55.615234" xlink:href="#ArialMT-46"/>
     <use x="83.398438" xlink:href="#ArialMT-57"/>
     <use x="139.013672" xlink:href="#ArialMT-50"/>
    </g>
   </g>
   <g id="text_17">
    <!-- 0.90 -->
    <g style="fill:#262626;" transform="translate(168.742007 56.401841)scale(0.144 -0.144)">
     <use xlink:href="#ArialMT-48"/>
     <use x="55.615234" xlink:href="#ArialMT-46"/>
     <use x="83.398438" xlink:href="#ArialMT-57"/>
     <use x="139.013672" xlink:href="#ArialMT-48"/>
    </g>
   </g>
   <g id="text_18">
    <!-- 0.93 -->
    <defs>
     <path d="M 4.203125 18.890625 
L 12.984375 20.0625 
Q 14.5 12.59375 18.140625 9.296875 
Q 21.78125 6 27 6 
Q 33.203125 6 37.46875 10.296875 
Q 41.75 14.59375 41.75 20.953125 
Q 41.75 27 37.796875 30.921875 
Q 33.84375 34.859375 27.734375 34.859375 
Q 25.25 34.859375 21.53125 33.890625 
L 22.515625 41.609375 
Q 23.390625 41.5 23.921875 41.5 
Q 29.546875 41.5 34.03125 44.421875 
Q 38.53125 47.359375 38.53125 53.46875 
Q 38.53125 58.296875 35.25 61.46875 
Q 31.984375 64.65625 26.8125 64.65625 
Q 21.6875 64.65625 18.265625 61.421875 
Q 14.84375 58.203125 13.875 51.765625 
L 5.078125 53.328125 
Q 6.6875 62.15625 12.390625 67.015625 
Q 18.109375 71.875 26.609375 71.875 
Q 32.46875 71.875 37.390625 69.359375 
Q 42.328125 66.84375 44.9375 62.5 
Q 47.5625 58.15625 47.5625 53.265625 
Q 47.5625 48.640625 45.0625 44.828125 
Q 42.578125 41.015625 37.703125 38.765625 
Q 44.046875 37.3125 47.5625 32.6875 
Q 51.078125 28.078125 51.078125 21.140625 
Q 51.078125 11.765625 44.234375 5.25 
Q 37.40625 -1.265625 26.953125 -1.265625 
Q 17.53125 -1.265625 11.296875 4.34375 
Q 5.078125 9.96875 4.203125 18.890625 
z
" id="ArialMT-51"/>
    </defs>
    <g style="fill:#262626;" transform="translate(201.565537 51.549874)scale(0.144 -0.144)">
     <use xlink:href="#ArialMT-48"/>
     <use x="55.615234" xlink:href="#ArialMT-46"/>
     <use x="83.398438" xlink:href="#ArialMT-57"/>
     <use x="139.013672" xlink:href="#ArialMT-51"/>
    </g>
   </g>
   <g id="text_19">
    <!-- shuffle_train -->
    <defs>
     <path d="M 3.078125 15.484375 
L 11.765625 16.84375 
Q 12.5 11.625 15.84375 8.84375 
Q 19.1875 6.0625 25.203125 6.0625 
Q 31.25 6.0625 34.171875 8.515625 
Q 37.109375 10.984375 37.109375 14.3125 
Q 37.109375 17.28125 34.515625 19 
Q 32.71875 20.171875 25.53125 21.96875 
Q 15.875 24.421875 12.140625 26.203125 
Q 8.40625 27.984375 6.46875 31.125 
Q 4.546875 34.28125 4.546875 38.09375 
Q 4.546875 41.546875 6.125 44.5 
Q 7.71875 47.46875 10.453125 49.421875 
Q 12.5 50.921875 16.03125 51.96875 
Q 19.578125 53.03125 23.640625 53.03125 
Q 29.734375 53.03125 34.34375 51.265625 
Q 38.96875 49.515625 41.15625 46.5 
Q 43.359375 43.5 44.1875 38.484375 
L 35.59375 37.3125 
Q 35.015625 41.3125 32.203125 43.546875 
Q 29.390625 45.796875 24.265625 45.796875 
Q 18.21875 45.796875 15.625 43.796875 
Q 13.03125 41.796875 13.03125 39.109375 
Q 13.03125 37.40625 14.109375 36.03125 
Q 15.1875 34.625 17.484375 33.6875 
Q 18.796875 33.203125 25.25 31.453125 
Q 34.578125 28.953125 38.25 27.359375 
Q 41.9375 25.78125 44.03125 22.75 
Q 46.140625 19.734375 46.140625 15.234375 
Q 46.140625 10.84375 43.578125 6.953125 
Q 41.015625 3.078125 36.171875 0.953125 
Q 31.34375 -1.171875 25.25 -1.171875 
Q 15.140625 -1.171875 9.84375 3.03125 
Q 4.546875 7.234375 3.078125 15.484375 
z
" id="ArialMT-115"/>
     <path d="M 6.59375 0 
L 6.59375 71.578125 
L 15.375 71.578125 
L 15.375 45.90625 
Q 21.53125 53.03125 30.90625 53.03125 
Q 36.671875 53.03125 40.921875 50.75 
Q 45.171875 48.484375 47 44.484375 
Q 48.828125 40.484375 48.828125 32.859375 
L 48.828125 0 
L 40.046875 0 
L 40.046875 32.859375 
Q 40.046875 39.453125 37.1875 42.453125 
Q 34.328125 45.453125 29.109375 45.453125 
Q 25.203125 45.453125 21.75 43.421875 
Q 18.3125 41.40625 16.84375 37.9375 
Q 15.375 34.46875 15.375 28.375 
L 15.375 0 
z
" id="ArialMT-104"/>
     <path d="M 40.578125 0 
L 40.578125 7.625 
Q 34.515625 -1.171875 24.125 -1.171875 
Q 19.53125 -1.171875 15.546875 0.578125 
Q 11.578125 2.34375 9.640625 5 
Q 7.71875 7.671875 6.9375 11.53125 
Q 6.390625 14.109375 6.390625 19.734375 
L 6.390625 51.859375 
L 15.1875 51.859375 
L 15.1875 23.09375 
Q 15.1875 16.21875 15.71875 13.8125 
Q 16.546875 10.359375 19.234375 8.375 
Q 21.921875 6.390625 25.875 6.390625 
Q 29.828125 6.390625 33.296875 8.421875 
Q 36.765625 10.453125 38.203125 13.9375 
Q 39.65625 17.4375 39.65625 24.078125 
L 39.65625 51.859375 
L 48.4375 51.859375 
L 48.4375 0 
z
" id="ArialMT-117"/>
     <path d="M 8.6875 0 
L 8.6875 45.015625 
L 0.921875 45.015625 
L 0.921875 51.859375 
L 8.6875 51.859375 
L 8.6875 57.375 
Q 8.6875 62.59375 9.625 65.140625 
Q 10.890625 68.5625 14.078125 70.671875 
Q 17.28125 72.796875 23.046875 72.796875 
Q 26.765625 72.796875 31.25 71.921875 
L 29.9375 64.265625 
Q 27.203125 64.75 24.75 64.75 
Q 20.75 64.75 19.09375 63.03125 
Q 17.4375 61.328125 17.4375 56.640625 
L 17.4375 51.859375 
L 27.546875 51.859375 
L 27.546875 45.015625 
L 17.4375 45.015625 
L 17.4375 0 
z
" id="ArialMT-102"/>
     <path d="M 6.390625 0 
L 6.390625 71.578125 
L 15.1875 71.578125 
L 15.1875 0 
z
" id="ArialMT-108"/>
     <path d="M 42.09375 16.703125 
L 51.171875 15.578125 
Q 49.03125 7.625 43.21875 3.21875 
Q 37.40625 -1.171875 28.375 -1.171875 
Q 17 -1.171875 10.328125 5.828125 
Q 3.65625 12.84375 3.65625 25.484375 
Q 3.65625 38.578125 10.390625 45.796875 
Q 17.140625 53.03125 27.875 53.03125 
Q 38.28125 53.03125 44.875 45.953125 
Q 51.46875 38.875 51.46875 26.03125 
Q 51.46875 25.25 51.421875 23.6875 
L 12.75 23.6875 
Q 13.234375 15.140625 17.578125 10.59375 
Q 21.921875 6.0625 28.421875 6.0625 
Q 33.25 6.0625 36.671875 8.59375 
Q 40.09375 11.140625 42.09375 16.703125 
z
M 13.234375 30.90625 
L 42.1875 30.90625 
Q 41.609375 37.453125 38.875 40.71875 
Q 34.671875 45.796875 27.984375 45.796875 
Q 21.921875 45.796875 17.796875 41.75 
Q 13.671875 37.703125 13.234375 30.90625 
z
" id="ArialMT-101"/>
     <path d="M -1.515625 -19.875 
L -1.515625 -13.53125 
L 56.734375 -13.53125 
L 56.734375 -19.875 
z
" id="ArialMT-95"/>
     <path d="M 25.78125 7.859375 
L 27.046875 0.09375 
Q 23.34375 -0.6875 20.40625 -0.6875 
Q 15.625 -0.6875 12.984375 0.828125 
Q 10.359375 2.34375 9.28125 4.8125 
Q 8.203125 7.28125 8.203125 15.1875 
L 8.203125 45.015625 
L 1.765625 45.015625 
L 1.765625 51.859375 
L 8.203125 51.859375 
L 8.203125 64.703125 
L 16.9375 69.96875 
L 16.9375 51.859375 
L 25.78125 51.859375 
L 25.78125 45.015625 
L 16.9375 45.015625 
L 16.9375 14.703125 
Q 16.9375 10.9375 17.40625 9.859375 
Q 17.875 8.796875 18.921875 8.15625 
Q 19.96875 7.515625 21.921875 7.515625 
Q 23.390625 7.515625 25.78125 7.859375 
z
" id="ArialMT-116"/>
     <path d="M 6.5 0 
L 6.5 51.859375 
L 14.40625 51.859375 
L 14.40625 44 
Q 17.4375 49.515625 20 51.265625 
Q 22.5625 53.03125 25.640625 53.03125 
Q 30.078125 53.03125 34.671875 50.203125 
L 31.640625 42.046875 
Q 28.421875 43.953125 25.203125 43.953125 
Q 22.3125 43.953125 20.015625 42.21875 
Q 17.71875 40.484375 16.75 37.40625 
Q 15.28125 32.71875 15.28125 27.15625 
L 15.28125 0 
z
" id="ArialMT-114"/>
     <path d="M 40.4375 6.390625 
Q 35.546875 2.25 31.03125 0.53125 
Q 26.515625 -1.171875 21.34375 -1.171875 
Q 12.796875 -1.171875 8.203125 3 
Q 3.609375 7.171875 3.609375 13.671875 
Q 3.609375 17.484375 5.34375 20.625 
Q 7.078125 23.78125 9.890625 25.6875 
Q 12.703125 27.59375 16.21875 28.5625 
Q 18.796875 29.25 24.03125 29.890625 
Q 34.671875 31.15625 39.703125 32.90625 
Q 39.75 34.71875 39.75 35.203125 
Q 39.75 40.578125 37.25 42.78125 
Q 33.890625 45.75 27.25 45.75 
Q 21.046875 45.75 18.09375 43.578125 
Q 15.140625 41.40625 13.71875 35.890625 
L 5.125 37.0625 
Q 6.296875 42.578125 8.984375 45.96875 
Q 11.671875 49.359375 16.75 51.1875 
Q 21.828125 53.03125 28.515625 53.03125 
Q 35.15625 53.03125 39.296875 51.46875 
Q 43.453125 49.90625 45.40625 47.53125 
Q 47.359375 45.171875 48.140625 41.546875 
Q 48.578125 39.3125 48.578125 33.453125 
L 48.578125 21.734375 
Q 48.578125 9.46875 49.140625 6.21875 
Q 49.703125 2.984375 51.375 0 
L 42.1875 0 
Q 40.828125 2.734375 40.4375 6.390625 
z
M 39.703125 26.03125 
Q 34.90625 24.078125 25.34375 22.703125 
Q 19.921875 21.921875 17.671875 20.9375 
Q 15.4375 19.96875 14.203125 18.09375 
Q 12.984375 16.21875 12.984375 13.921875 
Q 12.984375 10.40625 15.640625 8.0625 
Q 18.3125 5.71875 23.4375 5.71875 
Q 28.515625 5.71875 32.46875 7.9375 
Q 36.421875 10.15625 38.28125 14.015625 
Q 39.703125 17 39.703125 22.796875 
z
" id="ArialMT-97"/>
     <path d="M 6.640625 61.46875 
L 6.640625 71.578125 
L 15.4375 71.578125 
L 15.4375 61.46875 
z
M 6.640625 0 
L 6.640625 51.859375 
L 15.4375 51.859375 
L 15.4375 0 
z
" id="ArialMT-105"/>
     <path d="M 6.59375 0 
L 6.59375 51.859375 
L 14.5 51.859375 
L 14.5 44.484375 
Q 20.21875 53.03125 31 53.03125 
Q 35.6875 53.03125 39.625 51.34375 
Q 43.5625 49.65625 45.515625 46.921875 
Q 47.46875 44.1875 48.25 40.4375 
Q 48.734375 37.984375 48.734375 31.890625 
L 48.734375 0 
L 39.9375 0 
L 39.9375 31.546875 
Q 39.9375 36.921875 38.90625 39.578125 
Q 37.890625 42.234375 35.28125 43.8125 
Q 32.671875 45.40625 29.15625 45.40625 
Q 23.53125 45.40625 19.453125 41.84375 
Q 15.375 38.28125 15.375 28.328125 
L 15.375 0 
z
" id="ArialMT-110"/>
    </defs>
    <g style="fill:#262626;" transform="translate(94.298838 17.68275)scale(0.144 -0.144)">
     <use xlink:href="#ArialMT-115"/>
     <use x="50" xlink:href="#ArialMT-104"/>
     <use x="105.615234" xlink:href="#ArialMT-117"/>
     <use x="161.230469" xlink:href="#ArialMT-102"/>
     <use x="188.998047" xlink:href="#ArialMT-102"/>
     <use x="216.78125" xlink:href="#ArialMT-108"/>
     <use x="238.998047" xlink:href="#ArialMT-101"/>
     <use x="294.613281" xlink:href="#ArialMT-95"/>
     <use x="350.228516" xlink:href="#ArialMT-116"/>
     <use x="378.011719" xlink:href="#ArialMT-114"/>
     <use x="411.3125" xlink:href="#ArialMT-97"/>
     <use x="466.927734" xlink:href="#ArialMT-105"/>
     <use x="489.144531" xlink:href="#ArialMT-110"/>
    </g>
   </g>
  </g>
  <g id="axes_2">
   <g id="patch_13">
    <path d="M 271.377412 221.355477 
L 468.318588 221.355477 
L 468.318588 23.68275 
L 271.377412 23.68275 
z
" style="fill:#eaeaf2;"/>
   </g>
   <g id="matplotlib.axis_3">
    <g id="xtick_7">
     <g id="text_20">
      <!-- C -->
      <g style="fill:#262626;" transform="translate(283.022739 240.30379)scale(0.132 -0.132)">
       <use xlink:href="#ArialMT-67"/>
      </g>
     </g>
    </g>
    <g id="xtick_8">
     <g id="text_21">
      <!-- CP -->
      <g style="fill:#262626;" transform="translate(311.443862 240.30379)scale(0.132 -0.132)">
       <use xlink:href="#ArialMT-67"/>
       <use x="72.216797" xlink:href="#ArialMT-80"/>
      </g>
     </g>
    </g>
    <g id="xtick_9">
     <g id="text_22">
      <!-- CR -->
      <g style="fill:#262626;" transform="translate(343.90336 240.30379)scale(0.132 -0.132)">
       <use xlink:href="#ArialMT-67"/>
       <use x="72.216797" xlink:href="#ArialMT-82"/>
      </g>
     </g>
    </g>
    <g id="xtick_10">
     <g id="text_23">
      <!-- X -->
      <g style="fill:#262626;" transform="translate(381.857358 240.30379)scale(0.132 -0.132)">
       <use xlink:href="#ArialMT-88"/>
      </g>
     </g>
    </g>
    <g id="xtick_11">
     <g id="text_24">
      <!-- S -->
      <g style="fill:#262626;" transform="translate(414.680888 240.30379)scale(0.132 -0.132)">
       <use xlink:href="#ArialMT-83"/>
      </g>
     </g>
    </g>
    <g id="xtick_12">
     <g id="text_25">
      <!-- A -->
      <g style="fill:#262626;" transform="translate(447.504417 240.30379)scale(0.132 -0.132)">
       <use xlink:href="#ArialMT-65"/>
      </g>
     </g>
    </g>
   </g>
   <g id="matplotlib.axis_4">
    <g id="ytick_7">
     <g id="line2d_13">
      <path clip-path="url(#pda8958b6c1)" d="M 271.377412 221.355477 
L 468.318588 221.355477 
" style="fill:none;stroke:#ffffff;stroke-linecap:round;"/>
     </g>
     <g id="text_26">
      <!-- 0.0 -->
      <g style="fill:#262626;" transform="translate(243.529412 226.079634)scale(0.132 -0.132)">
       <use xlink:href="#ArialMT-48"/>
       <use x="55.615234" xlink:href="#ArialMT-46"/>
       <use x="83.398438" xlink:href="#ArialMT-48"/>
      </g>
     </g>
    </g>
    <g id="ytick_8">
     <g id="line2d_14">
      <path clip-path="url(#pda8958b6c1)" d="M 271.377412 185.414981 
L 468.318588 185.414981 
" style="fill:none;stroke:#ffffff;stroke-linecap:round;"/>
     </g>
     <g id="text_27">
      <!-- 0.2 -->
      <g style="fill:#262626;" transform="translate(243.529412 190.139138)scale(0.132 -0.132)">
       <use xlink:href="#ArialMT-48"/>
       <use x="55.615234" xlink:href="#ArialMT-46"/>
       <use x="83.398438" xlink:href="#ArialMT-50"/>
      </g>
     </g>
    </g>
    <g id="ytick_9">
     <g id="line2d_15">
      <path clip-path="url(#pda8958b6c1)" d="M 271.377412 149.474486 
L 468.318588 149.474486 
" style="fill:none;stroke:#ffffff;stroke-linecap:round;"/>
     </g>
     <g id="text_28">
      <!-- 0.4 -->
      <g style="fill:#262626;" transform="translate(243.529412 154.198642)scale(0.132 -0.132)">
       <use xlink:href="#ArialMT-48"/>
       <use x="55.615234" xlink:href="#ArialMT-46"/>
       <use x="83.398438" xlink:href="#ArialMT-52"/>
      </g>
     </g>
    </g>
    <g id="ytick_10">
     <g id="line2d_16">
      <path clip-path="url(#pda8958b6c1)" d="M 271.377412 113.53399 
L 468.318588 113.53399 
" style="fill:none;stroke:#ffffff;stroke-linecap:round;"/>
     </g>
     <g id="text_29">
      <!-- 0.6 -->
      <g style="fill:#262626;" transform="translate(243.529412 118.258146)scale(0.132 -0.132)">
       <use xlink:href="#ArialMT-48"/>
       <use x="55.615234" xlink:href="#ArialMT-46"/>
       <use x="83.398438" xlink:href="#ArialMT-54"/>
      </g>
     </g>
    </g>
    <g id="ytick_11">
     <g id="line2d_17">
      <path clip-path="url(#pda8958b6c1)" d="M 271.377412 77.593494 
L 468.318588 77.593494 
" style="fill:none;stroke:#ffffff;stroke-linecap:round;"/>
     </g>
     <g id="text_30">
      <!-- 0.8 -->
      <g style="fill:#262626;" transform="translate(243.529412 82.31765)scale(0.132 -0.132)">
       <use xlink:href="#ArialMT-48"/>
       <use x="55.615234" xlink:href="#ArialMT-46"/>
       <use x="83.398438" xlink:href="#ArialMT-56"/>
      </g>
     </g>
    </g>
    <g id="ytick_12">
     <g id="line2d_18">
      <path clip-path="url(#pda8958b6c1)" d="M 271.377412 41.652998 
L 468.318588 41.652998 
" style="fill:none;stroke:#ffffff;stroke-linecap:round;"/>
     </g>
     <g id="text_31">
      <!-- 1.0 -->
      <g style="fill:#262626;" transform="translate(243.529412 46.377154)scale(0.132 -0.132)">
       <use xlink:href="#ArialMT-49"/>
       <use x="55.615234" xlink:href="#ArialMT-46"/>
       <use x="83.398438" xlink:href="#ArialMT-48"/>
      </g>
     </g>
    </g>
   </g>
   <g id="patch_14">
    <path clip-path="url(#pda8958b6c1)" d="M 274.659765 221.355477 
L 300.918588 221.355477 
L 300.918588 58.005924 
L 274.659765 58.005924 
z
" style="fill:#5875a4;stroke:#ffffff;stroke-linejoin:miter;"/>
   </g>
   <g id="patch_15">
    <path clip-path="url(#pda8958b6c1)" d="M 307.483294 221.355477 
L 333.742118 221.355477 
L 333.742118 68.967775 
L 307.483294 68.967775 
z
" style="fill:#cc8963;stroke:#ffffff;stroke-linejoin:miter;"/>
   </g>
   <g id="patch_16">
    <path clip-path="url(#pda8958b6c1)" d="M 340.306824 221.355477 
L 366.565647 221.355477 
L 366.565647 67.17075 
L 340.306824 67.17075 
z
" style="fill:#5f9e6e;stroke:#ffffff;stroke-linejoin:miter;"/>
   </g>
   <g id="patch_17">
    <path clip-path="url(#pda8958b6c1)" d="M 373.130353 221.355477 
L 399.389176 221.355477 
L 399.389176 70.7648 
L 373.130353 70.7648 
z
" style="fill:#b55d60;stroke:#ffffff;stroke-linejoin:miter;"/>
   </g>
   <g id="patch_18">
    <path clip-path="url(#pda8958b6c1)" d="M 405.953882 221.355477 
L 432.212706 221.355477 
L 432.212706 59.982651 
L 405.953882 59.982651 
z
" style="fill:#857aab;stroke:#ffffff;stroke-linejoin:miter;"/>
   </g>
   <g id="patch_19">
    <path clip-path="url(#pda8958b6c1)" d="M 438.777412 221.355477 
L 465.036235 221.355477 
L 465.036235 65.373725 
L 438.777412 65.373725 
z
" style="fill:#8d7866;stroke:#ffffff;stroke-linejoin:miter;"/>
   </g>
   <g id="line2d_19">
    <path clip-path="url(#pda8958b6c1)" d="M 0 0 
" style="fill:none;stroke:#424242;stroke-linecap:round;stroke-width:2.7;"/>
   </g>
   <g id="line2d_20">
    <path clip-path="url(#pda8958b6c1)" d="M 0 0 
" style="fill:none;stroke:#424242;stroke-linecap:round;stroke-width:2.7;"/>
   </g>
   <g id="line2d_21">
    <path clip-path="url(#pda8958b6c1)" d="M 0 0 
" style="fill:none;stroke:#424242;stroke-linecap:round;stroke-width:2.7;"/>
   </g>
   <g id="line2d_22">
    <path clip-path="url(#pda8958b6c1)" d="M 0 0 
" style="fill:none;stroke:#424242;stroke-linecap:round;stroke-width:2.7;"/>
   </g>
   <g id="line2d_23">
    <path clip-path="url(#pda8958b6c1)" d="M 0 0 
" style="fill:none;stroke:#424242;stroke-linecap:round;stroke-width:2.7;"/>
   </g>
   <g id="line2d_24">
    <path clip-path="url(#pda8958b6c1)" d="M 0 0 
" style="fill:none;stroke:#424242;stroke-linecap:round;stroke-width:2.7;"/>
   </g>
   <g id="patch_20">
    <path d="M 271.377412 221.355477 
L 271.377412 23.68275 
" style="fill:none;stroke:#ffffff;stroke-linecap:square;stroke-linejoin:miter;stroke-width:1.25;"/>
   </g>
   <g id="patch_21">
    <path d="M 468.318588 221.355477 
L 468.318588 23.68275 
" style="fill:none;stroke:#ffffff;stroke-linecap:square;stroke-linejoin:miter;stroke-width:1.25;"/>
   </g>
   <g id="patch_22">
    <path d="M 271.377412 221.355477 
L 468.318588 221.355477 
" style="fill:none;stroke:#ffffff;stroke-linecap:square;stroke-linejoin:miter;stroke-width:1.25;"/>
   </g>
   <g id="patch_23">
    <path d="M 271.377412 23.68275 
L 468.318588 23.68275 
" style="fill:none;stroke:#ffffff;stroke-linecap:square;stroke-linejoin:miter;stroke-width:1.25;"/>
   </g>
   <g id="text_32">
    <!-- 0.91 -->
    <g style="fill:#262626;" transform="translate(273.777301 55.143924)scale(0.144 -0.144)">
     <use xlink:href="#ArialMT-48"/>
     <use x="55.615234" xlink:href="#ArialMT-46"/>
     <use x="83.398438" xlink:href="#ArialMT-57"/>
     <use x="139.013672" xlink:href="#ArialMT-49"/>
    </g>
   </g>
   <g id="text_33">
    <!-- 0.85 -->
    <defs>
     <path d="M 4.15625 18.75 
L 13.375 19.53125 
Q 14.40625 12.796875 18.140625 9.390625 
Q 21.875 6 27.15625 6 
Q 33.5 6 37.890625 10.78125 
Q 42.28125 15.578125 42.28125 23.484375 
Q 42.28125 31 38.0625 35.34375 
Q 33.84375 39.703125 27 39.703125 
Q 22.75 39.703125 19.328125 37.765625 
Q 15.921875 35.84375 13.96875 32.765625 
L 5.71875 33.84375 
L 12.640625 70.609375 
L 48.25 70.609375 
L 48.25 62.203125 
L 19.671875 62.203125 
L 15.828125 42.96875 
Q 22.265625 47.46875 29.34375 47.46875 
Q 38.71875 47.46875 45.15625 40.96875 
Q 51.609375 34.46875 51.609375 24.265625 
Q 51.609375 14.546875 45.953125 7.46875 
Q 39.0625 -1.21875 27.15625 -1.21875 
Q 17.390625 -1.21875 11.203125 4.25 
Q 5.03125 9.71875 4.15625 18.75 
z
" id="ArialMT-53"/>
    </defs>
    <g style="fill:#262626;" transform="translate(306.600831 66.105775)scale(0.144 -0.144)">
     <use xlink:href="#ArialMT-48"/>
     <use x="55.615234" xlink:href="#ArialMT-46"/>
     <use x="83.398438" xlink:href="#ArialMT-56"/>
     <use x="139.013672" xlink:href="#ArialMT-53"/>
    </g>
   </g>
   <g id="text_34">
    <!-- 0.86 -->
    <g style="fill:#262626;" transform="translate(339.42436 64.30875)scale(0.144 -0.144)">
     <use xlink:href="#ArialMT-48"/>
     <use x="55.615234" xlink:href="#ArialMT-46"/>
     <use x="83.398438" xlink:href="#ArialMT-56"/>
     <use x="139.013672" xlink:href="#ArialMT-54"/>
    </g>
   </g>
   <g id="text_35">
    <!-- 0.84 -->
    <g style="fill:#262626;" transform="translate(372.24789 67.9028)scale(0.144 -0.144)">
     <use xlink:href="#ArialMT-48"/>
     <use x="55.615234" xlink:href="#ArialMT-46"/>
     <use x="83.398438" xlink:href="#ArialMT-56"/>
     <use x="139.013672" xlink:href="#ArialMT-52"/>
    </g>
   </g>
   <g id="text_36">
    <!-- 0.90 -->
    <g style="fill:#262626;" transform="translate(405.071419 57.120651)scale(0.144 -0.144)">
     <use xlink:href="#ArialMT-48"/>
     <use x="55.615234" xlink:href="#ArialMT-46"/>
     <use x="83.398438" xlink:href="#ArialMT-57"/>
     <use x="139.013672" xlink:href="#ArialMT-48"/>
    </g>
   </g>
   <g id="text_37">
    <!-- 0.87 -->
    <defs>
     <path d="M 4.734375 62.203125 
L 4.734375 70.65625 
L 51.078125 70.65625 
L 51.078125 63.8125 
Q 44.234375 56.546875 37.515625 44.484375 
Q 30.8125 32.421875 27.15625 19.671875 
Q 24.515625 10.6875 23.78125 0 
L 14.75 0 
Q 14.890625 8.453125 18.0625 20.40625 
Q 21.234375 32.375 27.171875 43.484375 
Q 33.109375 54.59375 39.796875 62.203125 
z
" id="ArialMT-55"/>
    </defs>
    <g style="fill:#262626;" transform="translate(437.894949 62.511725)scale(0.144 -0.144)">
     <use xlink:href="#ArialMT-48"/>
     <use x="55.615234" xlink:href="#ArialMT-46"/>
     <use x="83.398438" xlink:href="#ArialMT-56"/>
     <use x="139.013672" xlink:href="#ArialMT-55"/>
    </g>
   </g>
   <g id="text_38">
    <!-- shuffle_valid -->
    <defs>
     <path d="M 21 0 
L 1.265625 51.859375 
L 10.546875 51.859375 
L 21.6875 20.796875 
Q 23.484375 15.765625 25 10.359375 
Q 26.171875 14.453125 28.265625 20.21875 
L 39.796875 51.859375 
L 48.828125 51.859375 
L 29.203125 0 
z
" id="ArialMT-118"/>
     <path d="M 40.234375 0 
L 40.234375 6.546875 
Q 35.296875 -1.171875 25.734375 -1.171875 
Q 19.53125 -1.171875 14.328125 2.25 
Q 9.125 5.671875 6.265625 11.796875 
Q 3.421875 17.921875 3.421875 25.875 
Q 3.421875 33.640625 6 39.96875 
Q 8.59375 46.296875 13.765625 49.65625 
Q 18.953125 53.03125 25.34375 53.03125 
Q 30.03125 53.03125 33.6875 51.046875 
Q 37.359375 49.078125 39.65625 45.90625 
L 39.65625 71.578125 
L 48.390625 71.578125 
L 48.390625 0 
z
M 12.453125 25.875 
Q 12.453125 15.921875 16.640625 10.984375 
Q 20.84375 6.0625 26.5625 6.0625 
Q 32.328125 6.0625 36.34375 10.765625 
Q 40.375 15.484375 40.375 25.140625 
Q 40.375 35.796875 36.265625 40.765625 
Q 32.171875 45.75 26.171875 45.75 
Q 20.3125 45.75 16.375 40.96875 
Q 12.453125 36.1875 12.453125 25.875 
z
" id="ArialMT-100"/>
    </defs>
    <g style="fill:#262626;" transform="translate(329.826125 17.68275)scale(0.144 -0.144)">
     <use xlink:href="#ArialMT-115"/>
     <use x="50" xlink:href="#ArialMT-104"/>
     <use x="105.615234" xlink:href="#ArialMT-117"/>
     <use x="161.230469" xlink:href="#ArialMT-102"/>
     <use x="188.998047" xlink:href="#ArialMT-102"/>
     <use x="216.78125" xlink:href="#ArialMT-108"/>
     <use x="238.998047" xlink:href="#ArialMT-101"/>
     <use x="294.613281" xlink:href="#ArialMT-95"/>
     <use x="350.228516" xlink:href="#ArialMT-118"/>
     <use x="400.228516" xlink:href="#ArialMT-97"/>
     <use x="455.84375" xlink:href="#ArialMT-108"/>
     <use x="478.060547" xlink:href="#ArialMT-105"/>
     <use x="500.277344" xlink:href="#ArialMT-100"/>
    </g>
   </g>
  </g>
  <g id="axes_3">
   <g id="patch_24">
    <path d="M 507.706824 221.355477 
L 704.648 221.355477 
L 704.648 23.68275 
L 507.706824 23.68275 
z
" style="fill:#eaeaf2;"/>
   </g>
   <g id="matplotlib.axis_5">
    <g id="xtick_13">
     <g id="text_39">
      <!-- C -->
      <g style="fill:#262626;" transform="translate(519.352151 240.30379)scale(0.132 -0.132)">
       <use xlink:href="#ArialMT-67"/>
      </g>
     </g>
    </g>
    <g id="xtick_14">
     <g id="text_40">
      <!-- CP -->
      <g style="fill:#262626;" transform="translate(547.773274 240.30379)scale(0.132 -0.132)">
       <use xlink:href="#ArialMT-67"/>
       <use x="72.216797" xlink:href="#ArialMT-80"/>
      </g>
     </g>
    </g>
    <g id="xtick_15">
     <g id="text_41">
      <!-- CR -->
      <g style="fill:#262626;" transform="translate(580.232772 240.30379)scale(0.132 -0.132)">
       <use xlink:href="#ArialMT-67"/>
       <use x="72.216797" xlink:href="#ArialMT-82"/>
      </g>
     </g>
    </g>
    <g id="xtick_16">
     <g id="text_42">
      <!-- X -->
      <g style="fill:#262626;" transform="translate(618.18677 240.30379)scale(0.132 -0.132)">
       <use xlink:href="#ArialMT-88"/>
      </g>
     </g>
    </g>
    <g id="xtick_17">
     <g id="text_43">
      <!-- S -->
      <g style="fill:#262626;" transform="translate(651.0103 240.30379)scale(0.132 -0.132)">
       <use xlink:href="#ArialMT-83"/>
      </g>
     </g>
    </g>
    <g id="xtick_18">
     <g id="text_44">
      <!-- A -->
      <g style="fill:#262626;" transform="translate(683.833829 240.30379)scale(0.132 -0.132)">
       <use xlink:href="#ArialMT-65"/>
      </g>
     </g>
    </g>
   </g>
   <g id="matplotlib.axis_6">
    <g id="ytick_13">
     <g id="line2d_25">
      <path clip-path="url(#peeedc3472e)" d="M 507.706824 221.355477 
L 704.648 221.355477 
" style="fill:none;stroke:#ffffff;stroke-linecap:round;"/>
     </g>
     <g id="text_45">
      <!-- 0.0 -->
      <g style="fill:#262626;" transform="translate(479.858824 226.079634)scale(0.132 -0.132)">
       <use xlink:href="#ArialMT-48"/>
       <use x="55.615234" xlink:href="#ArialMT-46"/>
       <use x="83.398438" xlink:href="#ArialMT-48"/>
      </g>
     </g>
    </g>
    <g id="ytick_14">
     <g id="line2d_26">
      <path clip-path="url(#peeedc3472e)" d="M 507.706824 185.414981 
L 704.648 185.414981 
" style="fill:none;stroke:#ffffff;stroke-linecap:round;"/>
     </g>
     <g id="text_46">
      <!-- 0.2 -->
      <g style="fill:#262626;" transform="translate(479.858824 190.139138)scale(0.132 -0.132)">
       <use xlink:href="#ArialMT-48"/>
       <use x="55.615234" xlink:href="#ArialMT-46"/>
       <use x="83.398438" xlink:href="#ArialMT-50"/>
      </g>
     </g>
    </g>
    <g id="ytick_15">
     <g id="line2d_27">
      <path clip-path="url(#peeedc3472e)" d="M 507.706824 149.474486 
L 704.648 149.474486 
" style="fill:none;stroke:#ffffff;stroke-linecap:round;"/>
     </g>
     <g id="text_47">
      <!-- 0.4 -->
      <g style="fill:#262626;" transform="translate(479.858824 154.198642)scale(0.132 -0.132)">
       <use xlink:href="#ArialMT-48"/>
       <use x="55.615234" xlink:href="#ArialMT-46"/>
       <use x="83.398438" xlink:href="#ArialMT-52"/>
      </g>
     </g>
    </g>
    <g id="ytick_16">
     <g id="line2d_28">
      <path clip-path="url(#peeedc3472e)" d="M 507.706824 113.53399 
L 704.648 113.53399 
" style="fill:none;stroke:#ffffff;stroke-linecap:round;"/>
     </g>
     <g id="text_48">
      <!-- 0.6 -->
      <g style="fill:#262626;" transform="translate(479.858824 118.258146)scale(0.132 -0.132)">
       <use xlink:href="#ArialMT-48"/>
       <use x="55.615234" xlink:href="#ArialMT-46"/>
       <use x="83.398438" xlink:href="#ArialMT-54"/>
      </g>
     </g>
    </g>
    <g id="ytick_17">
     <g id="line2d_29">
      <path clip-path="url(#peeedc3472e)" d="M 507.706824 77.593494 
L 704.648 77.593494 
" style="fill:none;stroke:#ffffff;stroke-linecap:round;"/>
     </g>
     <g id="text_49">
      <!-- 0.8 -->
      <g style="fill:#262626;" transform="translate(479.858824 82.31765)scale(0.132 -0.132)">
       <use xlink:href="#ArialMT-48"/>
       <use x="55.615234" xlink:href="#ArialMT-46"/>
       <use x="83.398438" xlink:href="#ArialMT-56"/>
      </g>
     </g>
    </g>
    <g id="ytick_18">
     <g id="line2d_30">
      <path clip-path="url(#peeedc3472e)" d="M 507.706824 41.652998 
L 704.648 41.652998 
" style="fill:none;stroke:#ffffff;stroke-linecap:round;"/>
     </g>
     <g id="text_50">
      <!-- 1.0 -->
      <g style="fill:#262626;" transform="translate(479.858824 46.377154)scale(0.132 -0.132)">
       <use xlink:href="#ArialMT-49"/>
       <use x="55.615234" xlink:href="#ArialMT-46"/>
       <use x="83.398438" xlink:href="#ArialMT-48"/>
      </g>
     </g>
    </g>
   </g>
   <g id="patch_25">
    <path clip-path="url(#peeedc3472e)" d="M 510.989176 221.355477 
L 537.248 221.355477 
L 537.248 142.466089 
L 510.989176 142.466089 
z
" style="fill:#5875a4;stroke:#ffffff;stroke-linejoin:miter;"/>
   </g>
   <g id="patch_26">
    <path clip-path="url(#peeedc3472e)" d="M 543.812706 221.355477 
L 570.071529 221.355477 
L 570.071529 140.848767 
L 543.812706 140.848767 
z
" style="fill:#cc8963;stroke:#ffffff;stroke-linejoin:miter;"/>
   </g>
   <g id="patch_27">
    <path clip-path="url(#peeedc3472e)" d="M 576.636235 221.355477 
L 602.895059 221.355477 
L 602.895059 128.988403 
L 576.636235 128.988403 
z
" style="fill:#5f9e6e;stroke:#ffffff;stroke-linejoin:miter;"/>
   </g>
   <g id="patch_28">
    <path clip-path="url(#peeedc3472e)" d="M 609.459765 221.355477 
L 635.718588 221.355477 
L 635.718588 145.880436 
L 609.459765 145.880436 
z
" style="fill:#b55d60;stroke:#ffffff;stroke-linejoin:miter;"/>
   </g>
   <g id="patch_29">
    <path clip-path="url(#peeedc3472e)" d="M 642.283294 221.355477 
L 668.542118 221.355477 
L 668.542118 75.257362 
L 642.283294 75.257362 
z
" style="fill:#857aab;stroke:#ffffff;stroke-linejoin:miter;"/>
   </g>
   <g id="patch_30">
    <path clip-path="url(#peeedc3472e)" d="M 675.106824 221.355477 
L 701.365647 221.355477 
L 701.365647 197.994155 
L 675.106824 197.994155 
z
" style="fill:#8d7866;stroke:#ffffff;stroke-linejoin:miter;"/>
   </g>
   <g id="line2d_31">
    <path clip-path="url(#peeedc3472e)" d="M 0 0 
" style="fill:none;stroke:#424242;stroke-linecap:round;stroke-width:2.7;"/>
   </g>
   <g id="line2d_32">
    <path clip-path="url(#peeedc3472e)" d="M 0 0 
" style="fill:none;stroke:#424242;stroke-linecap:round;stroke-width:2.7;"/>
   </g>
   <g id="line2d_33">
    <path clip-path="url(#peeedc3472e)" d="M 0 0 
" style="fill:none;stroke:#424242;stroke-linecap:round;stroke-width:2.7;"/>
   </g>
   <g id="line2d_34">
    <path clip-path="url(#peeedc3472e)" d="M 0 0 
" style="fill:none;stroke:#424242;stroke-linecap:round;stroke-width:2.7;"/>
   </g>
   <g id="line2d_35">
    <path clip-path="url(#peeedc3472e)" d="M 0 0 
" style="fill:none;stroke:#424242;stroke-linecap:round;stroke-width:2.7;"/>
   </g>
   <g id="line2d_36">
    <path clip-path="url(#peeedc3472e)" d="M 0 0 
" style="fill:none;stroke:#424242;stroke-linecap:round;stroke-width:2.7;"/>
   </g>
   <g id="patch_31">
    <path d="M 507.706824 221.355477 
L 507.706824 23.68275 
" style="fill:none;stroke:#ffffff;stroke-linecap:square;stroke-linejoin:miter;stroke-width:1.25;"/>
   </g>
   <g id="patch_32">
    <path d="M 704.648 221.355477 
L 704.648 23.68275 
" style="fill:none;stroke:#ffffff;stroke-linecap:square;stroke-linejoin:miter;stroke-width:1.25;"/>
   </g>
   <g id="patch_33">
    <path d="M 507.706824 221.355477 
L 704.648 221.355477 
" style="fill:none;stroke:#ffffff;stroke-linecap:square;stroke-linejoin:miter;stroke-width:1.25;"/>
   </g>
   <g id="patch_34">
    <path d="M 507.706824 23.68275 
L 704.648 23.68275 
" style="fill:none;stroke:#ffffff;stroke-linecap:square;stroke-linejoin:miter;stroke-width:1.25;"/>
   </g>
   <g id="text_51">
    <!-- 0.44 -->
    <g style="fill:#262626;" transform="translate(510.106713 139.604089)scale(0.144 -0.144)">
     <use xlink:href="#ArialMT-48"/>
     <use x="55.615234" xlink:href="#ArialMT-46"/>
     <use x="83.398438" xlink:href="#ArialMT-52"/>
     <use x="139.013672" xlink:href="#ArialMT-52"/>
    </g>
   </g>
   <g id="text_52">
    <!-- 0.45 -->
    <g style="fill:#262626;" transform="translate(542.930243 137.986767)scale(0.144 -0.144)">
     <use xlink:href="#ArialMT-48"/>
     <use x="55.615234" xlink:href="#ArialMT-46"/>
     <use x="83.398438" xlink:href="#ArialMT-52"/>
     <use x="139.013672" xlink:href="#ArialMT-53"/>
    </g>
   </g>
   <g id="text_53">
    <!-- 0.51 -->
    <g style="fill:#262626;" transform="translate(575.753772 126.126403)scale(0.144 -0.144)">
     <use xlink:href="#ArialMT-48"/>
     <use x="55.615234" xlink:href="#ArialMT-46"/>
     <use x="83.398438" xlink:href="#ArialMT-53"/>
     <use x="139.013672" xlink:href="#ArialMT-49"/>
    </g>
   </g>
   <g id="text_54">
    <!-- 0.42 -->
    <g style="fill:#262626;" transform="translate(608.577301 143.018436)scale(0.144 -0.144)">
     <use xlink:href="#ArialMT-48"/>
     <use x="55.615234" xlink:href="#ArialMT-46"/>
     <use x="83.398438" xlink:href="#ArialMT-52"/>
     <use x="139.013672" xlink:href="#ArialMT-50"/>
    </g>
   </g>
   <g id="text_55">
    <!-- 0.81 -->
    <g style="fill:#262626;" transform="translate(641.400831 72.395362)scale(0.144 -0.144)">
     <use xlink:href="#ArialMT-48"/>
     <use x="55.615234" xlink:href="#ArialMT-46"/>
     <use x="83.398438" xlink:href="#ArialMT-56"/>
     <use x="139.013672" xlink:href="#ArialMT-49"/>
    </g>
   </g>
   <g id="text_56">
    <!-- 0.13 -->
    <g style="fill:#262626;" transform="translate(674.22436 195.132155)scale(0.144 -0.144)">
     <use xlink:href="#ArialMT-48"/>
     <use x="55.615234" xlink:href="#ArialMT-46"/>
     <use x="83.398438" xlink:href="#ArialMT-49"/>
     <use x="139.013672" xlink:href="#ArialMT-51"/>
    </g>
   </g>
   <g id="text_57">
    <!-- shuffle_test -->
    <g style="fill:#262626;" transform="translate(569.358412 17.68275)scale(0.144 -0.144)">
     <use xlink:href="#ArialMT-115"/>
     <use x="50" xlink:href="#ArialMT-104"/>
     <use x="105.615234" xlink:href="#ArialMT-117"/>
     <use x="161.230469" xlink:href="#ArialMT-102"/>
     <use x="188.998047" xlink:href="#ArialMT-102"/>
     <use x="216.78125" xlink:href="#ArialMT-108"/>
     <use x="238.998047" xlink:href="#ArialMT-101"/>
     <use x="294.613281" xlink:href="#ArialMT-95"/>
     <use x="350.228516" xlink:href="#ArialMT-116"/>
     <use x="378.011719" xlink:href="#ArialMT-101"/>
     <use x="433.626953" xlink:href="#ArialMT-115"/>
     <use x="483.626953" xlink:href="#ArialMT-116"/>
    </g>
   </g>
  </g>
  <g id="axes_4">
   <g id="patch_35">
    <path d="M 35.048 458.56275 
L 231.989176 458.56275 
L 231.989176 260.890023 
L 35.048 260.890023 
z
" style="fill:#eaeaf2;"/>
   </g>
   <g id="matplotlib.axis_7">
    <g id="xtick_19">
     <g id="text_58">
      <!-- C -->
      <g style="fill:#262626;" transform="translate(46.693327 477.511062)scale(0.132 -0.132)">
       <use xlink:href="#ArialMT-67"/>
      </g>
     </g>
    </g>
    <g id="xtick_20">
     <g id="text_59">
      <!-- CP -->
      <g style="fill:#262626;" transform="translate(75.11445 477.511062)scale(0.132 -0.132)">
       <use xlink:href="#ArialMT-67"/>
       <use x="72.216797" xlink:href="#ArialMT-80"/>
      </g>
     </g>
    </g>
    <g id="xtick_21">
     <g id="text_60">
      <!-- CR -->
      <g style="fill:#262626;" transform="translate(107.573949 477.511062)scale(0.132 -0.132)">
       <use xlink:href="#ArialMT-67"/>
       <use x="72.216797" xlink:href="#ArialMT-82"/>
      </g>
     </g>
    </g>
    <g id="xtick_22">
     <g id="text_61">
      <!-- X -->
      <g style="fill:#262626;" transform="translate(145.527947 477.511062)scale(0.132 -0.132)">
       <use xlink:href="#ArialMT-88"/>
      </g>
     </g>
    </g>
    <g id="xtick_23">
     <g id="text_62">
      <!-- S -->
      <g style="fill:#262626;" transform="translate(178.351476 477.511062)scale(0.132 -0.132)">
       <use xlink:href="#ArialMT-83"/>
      </g>
     </g>
    </g>
    <g id="xtick_24">
     <g id="text_63">
      <!-- A -->
      <g style="fill:#262626;" transform="translate(211.175006 477.511062)scale(0.132 -0.132)">
       <use xlink:href="#ArialMT-65"/>
      </g>
     </g>
    </g>
   </g>
   <g id="matplotlib.axis_8">
    <g id="ytick_19">
     <g id="line2d_37">
      <path clip-path="url(#p7a7ba92198)" d="M 35.048 458.56275 
L 231.989176 458.56275 
" style="fill:none;stroke:#ffffff;stroke-linecap:round;"/>
     </g>
     <g id="text_64">
      <!-- 0.0 -->
      <g style="fill:#262626;" transform="translate(7.2 463.286906)scale(0.132 -0.132)">
       <use xlink:href="#ArialMT-48"/>
       <use x="55.615234" xlink:href="#ArialMT-46"/>
       <use x="83.398438" xlink:href="#ArialMT-48"/>
      </g>
     </g>
    </g>
    <g id="ytick_20">
     <g id="line2d_38">
      <path clip-path="url(#p7a7ba92198)" d="M 35.048 422.622254 
L 231.989176 422.622254 
" style="fill:none;stroke:#ffffff;stroke-linecap:round;"/>
     </g>
     <g id="text_65">
      <!-- 0.2 -->
      <g style="fill:#262626;" transform="translate(7.2 427.34641)scale(0.132 -0.132)">
       <use xlink:href="#ArialMT-48"/>
       <use x="55.615234" xlink:href="#ArialMT-46"/>
       <use x="83.398438" xlink:href="#ArialMT-50"/>
      </g>
     </g>
    </g>
    <g id="ytick_21">
     <g id="line2d_39">
      <path clip-path="url(#p7a7ba92198)" d="M 35.048 386.681758 
L 231.989176 386.681758 
" style="fill:none;stroke:#ffffff;stroke-linecap:round;"/>
     </g>
     <g id="text_66">
      <!-- 0.4 -->
      <g style="fill:#262626;" transform="translate(7.2 391.405915)scale(0.132 -0.132)">
       <use xlink:href="#ArialMT-48"/>
       <use x="55.615234" xlink:href="#ArialMT-46"/>
       <use x="83.398438" xlink:href="#ArialMT-52"/>
      </g>
     </g>
    </g>
    <g id="ytick_22">
     <g id="line2d_40">
      <path clip-path="url(#p7a7ba92198)" d="M 35.048 350.741262 
L 231.989176 350.741262 
" style="fill:none;stroke:#ffffff;stroke-linecap:round;"/>
     </g>
     <g id="text_67">
      <!-- 0.6 -->
      <g style="fill:#262626;" transform="translate(7.2 355.465419)scale(0.132 -0.132)">
       <use xlink:href="#ArialMT-48"/>
       <use x="55.615234" xlink:href="#ArialMT-46"/>
       <use x="83.398438" xlink:href="#ArialMT-54"/>
      </g>
     </g>
    </g>
    <g id="ytick_23">
     <g id="line2d_41">
      <path clip-path="url(#p7a7ba92198)" d="M 35.048 314.800767 
L 231.989176 314.800767 
" style="fill:none;stroke:#ffffff;stroke-linecap:round;"/>
     </g>
     <g id="text_68">
      <!-- 0.8 -->
      <g style="fill:#262626;" transform="translate(7.2 319.524923)scale(0.132 -0.132)">
       <use xlink:href="#ArialMT-48"/>
       <use x="55.615234" xlink:href="#ArialMT-46"/>
       <use x="83.398438" xlink:href="#ArialMT-56"/>
      </g>
     </g>
    </g>
    <g id="ytick_24">
     <g id="line2d_42">
      <path clip-path="url(#p7a7ba92198)" d="M 35.048 278.860271 
L 231.989176 278.860271 
" style="fill:none;stroke:#ffffff;stroke-linecap:round;"/>
     </g>
     <g id="text_69">
      <!-- 1.0 -->
      <g style="fill:#262626;" transform="translate(7.2 283.584427)scale(0.132 -0.132)">
       <use xlink:href="#ArialMT-49"/>
       <use x="55.615234" xlink:href="#ArialMT-46"/>
       <use x="83.398438" xlink:href="#ArialMT-48"/>
      </g>
     </g>
    </g>
   </g>
   <g id="patch_36">
    <path clip-path="url(#p7a7ba92198)" d="M 38.330353 458.56275 
L 64.589176 458.56275 
L 64.589176 293.236469 
L 38.330353 293.236469 
z
" style="fill:#5875a4;stroke:#ffffff;stroke-linejoin:miter;"/>
   </g>
   <g id="patch_37">
    <path clip-path="url(#p7a7ba92198)" d="M 71.153882 458.56275 
L 97.412706 458.56275 
L 97.412706 318.574519 
L 71.153882 318.574519 
z
" style="fill:#cc8963;stroke:#ffffff;stroke-linejoin:miter;"/>
   </g>
   <g id="patch_38">
    <path clip-path="url(#p7a7ba92198)" d="M 103.977412 458.56275 
L 130.236235 458.56275 
L 130.236235 308.870585 
L 103.977412 308.870585 
z
" style="fill:#5f9e6e;stroke:#ffffff;stroke-linejoin:miter;"/>
   </g>
   <g id="patch_39">
    <path clip-path="url(#p7a7ba92198)" d="M 136.800941 458.56275 
L 163.059765 458.56275 
L 163.059765 290.361229 
L 136.800941 290.361229 
z
" style="fill:#b55d60;stroke:#ffffff;stroke-linejoin:miter;"/>
   </g>
   <g id="patch_40">
    <path clip-path="url(#p7a7ba92198)" d="M 169.624471 458.56275 
L 195.883294 458.56275 
L 195.883294 293.955279 
L 169.624471 293.955279 
z
" style="fill:#857aab;stroke:#ffffff;stroke-linejoin:miter;"/>
   </g>
   <g id="patch_41">
    <path clip-path="url(#p7a7ba92198)" d="M 202.448 458.56275 
L 228.706824 458.56275 
L 228.706824 300.783973 
L 202.448 300.783973 
z
" style="fill:#8d7866;stroke:#ffffff;stroke-linejoin:miter;"/>
   </g>
   <g id="line2d_43">
    <path clip-path="url(#p7a7ba92198)" d="M 0 0 
" style="fill:none;stroke:#424242;stroke-linecap:round;stroke-width:2.7;"/>
   </g>
   <g id="line2d_44">
    <path clip-path="url(#p7a7ba92198)" d="M 0 0 
" style="fill:none;stroke:#424242;stroke-linecap:round;stroke-width:2.7;"/>
   </g>
   <g id="line2d_45">
    <path clip-path="url(#p7a7ba92198)" d="M 0 0 
" style="fill:none;stroke:#424242;stroke-linecap:round;stroke-width:2.7;"/>
   </g>
   <g id="line2d_46">
    <path clip-path="url(#p7a7ba92198)" d="M 0 0 
" style="fill:none;stroke:#424242;stroke-linecap:round;stroke-width:2.7;"/>
   </g>
   <g id="line2d_47">
    <path clip-path="url(#p7a7ba92198)" d="M 0 0 
" style="fill:none;stroke:#424242;stroke-linecap:round;stroke-width:2.7;"/>
   </g>
   <g id="line2d_48">
    <path clip-path="url(#p7a7ba92198)" d="M 0 0 
" style="fill:none;stroke:#424242;stroke-linecap:round;stroke-width:2.7;"/>
   </g>
   <g id="patch_42">
    <path d="M 35.048 458.56275 
L 35.048 260.890023 
" style="fill:none;stroke:#ffffff;stroke-linecap:square;stroke-linejoin:miter;stroke-width:1.25;"/>
   </g>
   <g id="patch_43">
    <path d="M 231.989176 458.56275 
L 231.989176 260.890023 
" style="fill:none;stroke:#ffffff;stroke-linecap:square;stroke-linejoin:miter;stroke-width:1.25;"/>
   </g>
   <g id="patch_44">
    <path d="M 35.048 458.56275 
L 231.989176 458.56275 
" style="fill:none;stroke:#ffffff;stroke-linecap:square;stroke-linejoin:miter;stroke-width:1.25;"/>
   </g>
   <g id="patch_45">
    <path d="M 35.048 260.890023 
L 231.989176 260.890023 
" style="fill:none;stroke:#ffffff;stroke-linecap:square;stroke-linejoin:miter;stroke-width:1.25;"/>
   </g>
   <g id="text_70">
    <!-- 0.92 -->
    <g style="fill:#262626;" transform="translate(37.44789 290.374469)scale(0.144 -0.144)">
     <use xlink:href="#ArialMT-48"/>
     <use x="55.615234" xlink:href="#ArialMT-46"/>
     <use x="83.398438" xlink:href="#ArialMT-57"/>
     <use x="139.013672" xlink:href="#ArialMT-50"/>
    </g>
   </g>
   <g id="text_71">
    <!-- 0.78 -->
    <g style="fill:#262626;" transform="translate(70.271419 315.712519)scale(0.144 -0.144)">
     <use xlink:href="#ArialMT-48"/>
     <use x="55.615234" xlink:href="#ArialMT-46"/>
     <use x="83.398438" xlink:href="#ArialMT-55"/>
     <use x="139.013672" xlink:href="#ArialMT-56"/>
    </g>
   </g>
   <g id="text_72">
    <!-- 0.83 -->
    <g style="fill:#262626;" transform="translate(103.094949 306.008585)scale(0.144 -0.144)">
     <use xlink:href="#ArialMT-48"/>
     <use x="55.615234" xlink:href="#ArialMT-46"/>
     <use x="83.398438" xlink:href="#ArialMT-56"/>
     <use x="139.013672" xlink:href="#ArialMT-51"/>
    </g>
   </g>
   <g id="text_73">
    <!-- 0.94 -->
    <g style="fill:#262626;" transform="translate(135.918478 287.499229)scale(0.144 -0.144)">
     <use xlink:href="#ArialMT-48"/>
     <use x="55.615234" xlink:href="#ArialMT-46"/>
     <use x="83.398438" xlink:href="#ArialMT-57"/>
     <use x="139.013672" xlink:href="#ArialMT-52"/>
    </g>
   </g>
   <g id="text_74">
    <!-- 0.92 -->
    <g style="fill:#262626;" transform="translate(168.742007 291.093279)scale(0.144 -0.144)">
     <use xlink:href="#ArialMT-48"/>
     <use x="55.615234" xlink:href="#ArialMT-46"/>
     <use x="83.398438" xlink:href="#ArialMT-57"/>
     <use x="139.013672" xlink:href="#ArialMT-50"/>
    </g>
   </g>
   <g id="text_75">
    <!-- 0.88 -->
    <g style="fill:#262626;" transform="translate(201.565537 297.921973)scale(0.144 -0.144)">
     <use xlink:href="#ArialMT-48"/>
     <use x="55.615234" xlink:href="#ArialMT-46"/>
     <use x="83.398438" xlink:href="#ArialMT-56"/>
     <use x="139.013672" xlink:href="#ArialMT-56"/>
    </g>
   </g>
   <g id="text_76">
    <!-- noshuffle_train -->
    <defs>
     <path d="M 3.328125 25.921875 
Q 3.328125 40.328125 11.328125 47.265625 
Q 18.015625 53.03125 27.640625 53.03125 
Q 38.328125 53.03125 45.109375 46.015625 
Q 51.90625 39.015625 51.90625 26.65625 
Q 51.90625 16.65625 48.90625 10.90625 
Q 45.90625 5.171875 40.15625 2 
Q 34.421875 -1.171875 27.640625 -1.171875 
Q 16.75 -1.171875 10.03125 5.8125 
Q 3.328125 12.796875 3.328125 25.921875 
z
M 12.359375 25.921875 
Q 12.359375 15.96875 16.703125 11.015625 
Q 21.046875 6.0625 27.640625 6.0625 
Q 34.1875 6.0625 38.53125 11.03125 
Q 42.875 16.015625 42.875 26.21875 
Q 42.875 35.84375 38.5 40.796875 
Q 34.125 45.75 27.640625 45.75 
Q 21.046875 45.75 16.703125 40.8125 
Q 12.359375 35.890625 12.359375 25.921875 
z
" id="ArialMT-111"/>
    </defs>
    <g style="fill:#262626;" transform="translate(86.291088 254.890023)scale(0.144 -0.144)">
     <use xlink:href="#ArialMT-110"/>
     <use x="55.615234" xlink:href="#ArialMT-111"/>
     <use x="111.230469" xlink:href="#ArialMT-115"/>
     <use x="161.230469" xlink:href="#ArialMT-104"/>
     <use x="216.845703" xlink:href="#ArialMT-117"/>
     <use x="272.460938" xlink:href="#ArialMT-102"/>
     <use x="300.228516" xlink:href="#ArialMT-102"/>
     <use x="328.011719" xlink:href="#ArialMT-108"/>
     <use x="350.228516" xlink:href="#ArialMT-101"/>
     <use x="405.84375" xlink:href="#ArialMT-95"/>
     <use x="461.458984" xlink:href="#ArialMT-116"/>
     <use x="489.242188" xlink:href="#ArialMT-114"/>
     <use x="522.542969" xlink:href="#ArialMT-97"/>
     <use x="578.158203" xlink:href="#ArialMT-105"/>
     <use x="600.375" xlink:href="#ArialMT-110"/>
    </g>
   </g>
  </g>
  <g id="axes_5">
   <g id="patch_46">
    <path d="M 271.377412 458.56275 
L 468.318588 458.56275 
L 468.318588 260.890023 
L 271.377412 260.890023 
z
" style="fill:#eaeaf2;"/>
   </g>
   <g id="matplotlib.axis_9">
    <g id="xtick_25">
     <g id="text_77">
      <!-- C -->
      <g style="fill:#262626;" transform="translate(283.022739 477.511062)scale(0.132 -0.132)">
       <use xlink:href="#ArialMT-67"/>
      </g>
     </g>
    </g>
    <g id="xtick_26">
     <g id="text_78">
      <!-- CP -->
      <g style="fill:#262626;" transform="translate(311.443862 477.511062)scale(0.132 -0.132)">
       <use xlink:href="#ArialMT-67"/>
       <use x="72.216797" xlink:href="#ArialMT-80"/>
      </g>
     </g>
    </g>
    <g id="xtick_27">
     <g id="text_79">
      <!-- CR -->
      <g style="fill:#262626;" transform="translate(343.90336 477.511062)scale(0.132 -0.132)">
       <use xlink:href="#ArialMT-67"/>
       <use x="72.216797" xlink:href="#ArialMT-82"/>
      </g>
     </g>
    </g>
    <g id="xtick_28">
     <g id="text_80">
      <!-- X -->
      <g style="fill:#262626;" transform="translate(381.857358 477.511062)scale(0.132 -0.132)">
       <use xlink:href="#ArialMT-88"/>
      </g>
     </g>
    </g>
    <g id="xtick_29">
     <g id="text_81">
      <!-- S -->
      <g style="fill:#262626;" transform="translate(414.680888 477.511062)scale(0.132 -0.132)">
       <use xlink:href="#ArialMT-83"/>
      </g>
     </g>
    </g>
    <g id="xtick_30">
     <g id="text_82">
      <!-- A -->
      <g style="fill:#262626;" transform="translate(447.504417 477.511062)scale(0.132 -0.132)">
       <use xlink:href="#ArialMT-65"/>
      </g>
     </g>
    </g>
   </g>
   <g id="matplotlib.axis_10">
    <g id="ytick_25">
     <g id="line2d_49">
      <path clip-path="url(#p880a2bbe64)" d="M 271.377412 458.56275 
L 468.318588 458.56275 
" style="fill:none;stroke:#ffffff;stroke-linecap:round;"/>
     </g>
     <g id="text_83">
      <!-- 0.0 -->
      <g style="fill:#262626;" transform="translate(243.529412 463.286906)scale(0.132 -0.132)">
       <use xlink:href="#ArialMT-48"/>
       <use x="55.615234" xlink:href="#ArialMT-46"/>
       <use x="83.398438" xlink:href="#ArialMT-48"/>
      </g>
     </g>
    </g>
    <g id="ytick_26">
     <g id="line2d_50">
      <path clip-path="url(#p880a2bbe64)" d="M 271.377412 422.622254 
L 468.318588 422.622254 
" style="fill:none;stroke:#ffffff;stroke-linecap:round;"/>
     </g>
     <g id="text_84">
      <!-- 0.2 -->
      <g style="fill:#262626;" transform="translate(243.529412 427.34641)scale(0.132 -0.132)">
       <use xlink:href="#ArialMT-48"/>
       <use x="55.615234" xlink:href="#ArialMT-46"/>
       <use x="83.398438" xlink:href="#ArialMT-50"/>
      </g>
     </g>
    </g>
    <g id="ytick_27">
     <g id="line2d_51">
      <path clip-path="url(#p880a2bbe64)" d="M 271.377412 386.681758 
L 468.318588 386.681758 
" style="fill:none;stroke:#ffffff;stroke-linecap:round;"/>
     </g>
     <g id="text_85">
      <!-- 0.4 -->
      <g style="fill:#262626;" transform="translate(243.529412 391.405915)scale(0.132 -0.132)">
       <use xlink:href="#ArialMT-48"/>
       <use x="55.615234" xlink:href="#ArialMT-46"/>
       <use x="83.398438" xlink:href="#ArialMT-52"/>
      </g>
     </g>
    </g>
    <g id="ytick_28">
     <g id="line2d_52">
      <path clip-path="url(#p880a2bbe64)" d="M 271.377412 350.741262 
L 468.318588 350.741262 
" style="fill:none;stroke:#ffffff;stroke-linecap:round;"/>
     </g>
     <g id="text_86">
      <!-- 0.6 -->
      <g style="fill:#262626;" transform="translate(243.529412 355.465419)scale(0.132 -0.132)">
       <use xlink:href="#ArialMT-48"/>
       <use x="55.615234" xlink:href="#ArialMT-46"/>
       <use x="83.398438" xlink:href="#ArialMT-54"/>
      </g>
     </g>
    </g>
    <g id="ytick_29">
     <g id="line2d_53">
      <path clip-path="url(#p880a2bbe64)" d="M 271.377412 314.800767 
L 468.318588 314.800767 
" style="fill:none;stroke:#ffffff;stroke-linecap:round;"/>
     </g>
     <g id="text_87">
      <!-- 0.8 -->
      <g style="fill:#262626;" transform="translate(243.529412 319.524923)scale(0.132 -0.132)">
       <use xlink:href="#ArialMT-48"/>
       <use x="55.615234" xlink:href="#ArialMT-46"/>
       <use x="83.398438" xlink:href="#ArialMT-56"/>
      </g>
     </g>
    </g>
    <g id="ytick_30">
     <g id="line2d_54">
      <path clip-path="url(#p880a2bbe64)" d="M 271.377412 278.860271 
L 468.318588 278.860271 
" style="fill:none;stroke:#ffffff;stroke-linecap:round;"/>
     </g>
     <g id="text_88">
      <!-- 1.0 -->
      <g style="fill:#262626;" transform="translate(243.529412 283.584427)scale(0.132 -0.132)">
       <use xlink:href="#ArialMT-49"/>
       <use x="55.615234" xlink:href="#ArialMT-46"/>
       <use x="83.398438" xlink:href="#ArialMT-48"/>
      </g>
     </g>
    </g>
   </g>
   <g id="patch_47">
    <path clip-path="url(#p880a2bbe64)" d="M 274.659765 458.56275 
L 300.918588 458.56275 
L 300.918588 307.07356 
L 274.659765 307.07356 
z
" style="fill:#5875a4;stroke:#ffffff;stroke-linejoin:miter;"/>
   </g>
   <g id="patch_48">
    <path clip-path="url(#p880a2bbe64)" d="M 307.483294 458.56275 
L 333.742118 458.56275 
L 333.742118 346.068998 
L 307.483294 346.068998 
z
" style="fill:#cc8963;stroke:#ffffff;stroke-linejoin:miter;"/>
   </g>
   <g id="patch_49">
    <path clip-path="url(#p880a2bbe64)" d="M 340.306824 458.56275 
L 366.565647 458.56275 
L 366.565647 298.447841 
L 340.306824 298.447841 
z
" style="fill:#5f9e6e;stroke:#ffffff;stroke-linejoin:miter;"/>
   </g>
   <g id="patch_50">
    <path clip-path="url(#p880a2bbe64)" d="M 373.130353 458.56275 
L 399.389176 458.56275 
L 399.389176 307.07356 
L 373.130353 307.07356 
z
" style="fill:#b55d60;stroke:#ffffff;stroke-linejoin:miter;"/>
   </g>
   <g id="patch_51">
    <path clip-path="url(#p880a2bbe64)" d="M 405.953882 458.56275 
L 432.212706 458.56275 
L 432.212706 324.5047 
L 405.953882 324.5047 
z
" style="fill:#857aab;stroke:#ffffff;stroke-linejoin:miter;"/>
   </g>
   <g id="patch_52">
    <path clip-path="url(#p880a2bbe64)" d="M 438.777412 458.56275 
L 465.036235 458.56275 
L 465.036235 300.604271 
L 438.777412 300.604271 
z
" style="fill:#8d7866;stroke:#ffffff;stroke-linejoin:miter;"/>
   </g>
   <g id="line2d_55">
    <path clip-path="url(#p880a2bbe64)" d="M 0 0 
" style="fill:none;stroke:#424242;stroke-linecap:round;stroke-width:2.7;"/>
   </g>
   <g id="line2d_56">
    <path clip-path="url(#p880a2bbe64)" d="M 0 0 
" style="fill:none;stroke:#424242;stroke-linecap:round;stroke-width:2.7;"/>
   </g>
   <g id="line2d_57">
    <path clip-path="url(#p880a2bbe64)" d="M 0 0 
" style="fill:none;stroke:#424242;stroke-linecap:round;stroke-width:2.7;"/>
   </g>
   <g id="line2d_58">
    <path clip-path="url(#p880a2bbe64)" d="M 0 0 
" style="fill:none;stroke:#424242;stroke-linecap:round;stroke-width:2.7;"/>
   </g>
   <g id="line2d_59">
    <path clip-path="url(#p880a2bbe64)" d="M 0 0 
" style="fill:none;stroke:#424242;stroke-linecap:round;stroke-width:2.7;"/>
   </g>
   <g id="line2d_60">
    <path clip-path="url(#p880a2bbe64)" d="M 0 0 
" style="fill:none;stroke:#424242;stroke-linecap:round;stroke-width:2.7;"/>
   </g>
   <g id="patch_53">
    <path d="M 271.377412 458.56275 
L 271.377412 260.890023 
" style="fill:none;stroke:#ffffff;stroke-linecap:square;stroke-linejoin:miter;stroke-width:1.25;"/>
   </g>
   <g id="patch_54">
    <path d="M 468.318588 458.56275 
L 468.318588 260.890023 
" style="fill:none;stroke:#ffffff;stroke-linecap:square;stroke-linejoin:miter;stroke-width:1.25;"/>
   </g>
   <g id="patch_55">
    <path d="M 271.377412 458.56275 
L 468.318588 458.56275 
" style="fill:none;stroke:#ffffff;stroke-linecap:square;stroke-linejoin:miter;stroke-width:1.25;"/>
   </g>
   <g id="patch_56">
    <path d="M 271.377412 260.890023 
L 468.318588 260.890023 
" style="fill:none;stroke:#ffffff;stroke-linecap:square;stroke-linejoin:miter;stroke-width:1.25;"/>
   </g>
   <g id="text_89">
    <!-- 0.84 -->
    <g style="fill:#262626;" transform="translate(273.777301 304.21156)scale(0.144 -0.144)">
     <use xlink:href="#ArialMT-48"/>
     <use x="55.615234" xlink:href="#ArialMT-46"/>
     <use x="83.398438" xlink:href="#ArialMT-56"/>
     <use x="139.013672" xlink:href="#ArialMT-52"/>
    </g>
   </g>
   <g id="text_90">
    <!-- 0.63 -->
    <g style="fill:#262626;" transform="translate(306.600831 343.206998)scale(0.144 -0.144)">
     <use xlink:href="#ArialMT-48"/>
     <use x="55.615234" xlink:href="#ArialMT-46"/>
     <use x="83.398438" xlink:href="#ArialMT-54"/>
     <use x="139.013672" xlink:href="#ArialMT-51"/>
    </g>
   </g>
   <g id="text_91">
    <!-- 0.89 -->
    <g style="fill:#262626;" transform="translate(339.42436 295.585841)scale(0.144 -0.144)">
     <use xlink:href="#ArialMT-48"/>
     <use x="55.615234" xlink:href="#ArialMT-46"/>
     <use x="83.398438" xlink:href="#ArialMT-56"/>
     <use x="139.013672" xlink:href="#ArialMT-57"/>
    </g>
   </g>
   <g id="text_92">
    <!-- 0.84 -->
    <g style="fill:#262626;" transform="translate(372.24789 304.21156)scale(0.144 -0.144)">
     <use xlink:href="#ArialMT-48"/>
     <use x="55.615234" xlink:href="#ArialMT-46"/>
     <use x="83.398438" xlink:href="#ArialMT-56"/>
     <use x="139.013672" xlink:href="#ArialMT-52"/>
    </g>
   </g>
   <g id="text_93">
    <!-- 0.75 -->
    <g style="fill:#262626;" transform="translate(405.071419 321.6427)scale(0.144 -0.144)">
     <use xlink:href="#ArialMT-48"/>
     <use x="55.615234" xlink:href="#ArialMT-46"/>
     <use x="83.398438" xlink:href="#ArialMT-55"/>
     <use x="139.013672" xlink:href="#ArialMT-53"/>
    </g>
   </g>
   <g id="text_94">
    <!-- 0.88 -->
    <g style="fill:#262626;" transform="translate(437.894949 297.742271)scale(0.144 -0.144)">
     <use xlink:href="#ArialMT-48"/>
     <use x="55.615234" xlink:href="#ArialMT-46"/>
     <use x="83.398438" xlink:href="#ArialMT-56"/>
     <use x="139.013672" xlink:href="#ArialMT-56"/>
    </g>
   </g>
   <g id="text_95">
    <!-- noshuffle_valid -->
    <g style="fill:#262626;" transform="translate(321.818375 254.890023)scale(0.144 -0.144)">
     <use xlink:href="#ArialMT-110"/>
     <use x="55.615234" xlink:href="#ArialMT-111"/>
     <use x="111.230469" xlink:href="#ArialMT-115"/>
     <use x="161.230469" xlink:href="#ArialMT-104"/>
     <use x="216.845703" xlink:href="#ArialMT-117"/>
     <use x="272.460938" xlink:href="#ArialMT-102"/>
     <use x="300.228516" xlink:href="#ArialMT-102"/>
     <use x="328.011719" xlink:href="#ArialMT-108"/>
     <use x="350.228516" xlink:href="#ArialMT-101"/>
     <use x="405.84375" xlink:href="#ArialMT-95"/>
     <use x="461.458984" xlink:href="#ArialMT-118"/>
     <use x="511.458984" xlink:href="#ArialMT-97"/>
     <use x="567.074219" xlink:href="#ArialMT-108"/>
     <use x="589.291016" xlink:href="#ArialMT-105"/>
     <use x="611.507812" xlink:href="#ArialMT-100"/>
    </g>
   </g>
  </g>
  <g id="axes_6">
   <g id="patch_57">
    <path d="M 507.706824 458.56275 
L 704.648 458.56275 
L 704.648 260.890023 
L 507.706824 260.890023 
z
" style="fill:#eaeaf2;"/>
   </g>
   <g id="matplotlib.axis_11">
    <g id="xtick_31">
     <g id="text_96">
      <!-- C -->
      <g style="fill:#262626;" transform="translate(519.352151 477.511062)scale(0.132 -0.132)">
       <use xlink:href="#ArialMT-67"/>
      </g>
     </g>
    </g>
    <g id="xtick_32">
     <g id="text_97">
      <!-- CP -->
      <g style="fill:#262626;" transform="translate(547.773274 477.511062)scale(0.132 -0.132)">
       <use xlink:href="#ArialMT-67"/>
       <use x="72.216797" xlink:href="#ArialMT-80"/>
      </g>
     </g>
    </g>
    <g id="xtick_33">
     <g id="text_98">
      <!-- CR -->
      <g style="fill:#262626;" transform="translate(580.232772 477.511062)scale(0.132 -0.132)">
       <use xlink:href="#ArialMT-67"/>
       <use x="72.216797" xlink:href="#ArialMT-82"/>
      </g>
     </g>
    </g>
    <g id="xtick_34">
     <g id="text_99">
      <!-- X -->
      <g style="fill:#262626;" transform="translate(618.18677 477.511062)scale(0.132 -0.132)">
       <use xlink:href="#ArialMT-88"/>
      </g>
     </g>
    </g>
    <g id="xtick_35">
     <g id="text_100">
      <!-- S -->
      <g style="fill:#262626;" transform="translate(651.0103 477.511062)scale(0.132 -0.132)">
       <use xlink:href="#ArialMT-83"/>
      </g>
     </g>
    </g>
    <g id="xtick_36">
     <g id="text_101">
      <!-- A -->
      <g style="fill:#262626;" transform="translate(683.833829 477.511062)scale(0.132 -0.132)">
       <use xlink:href="#ArialMT-65"/>
      </g>
     </g>
    </g>
   </g>
   <g id="matplotlib.axis_12">
    <g id="ytick_31">
     <g id="line2d_61">
      <path clip-path="url(#pc1e8c5d652)" d="M 507.706824 458.56275 
L 704.648 458.56275 
" style="fill:none;stroke:#ffffff;stroke-linecap:round;"/>
     </g>
     <g id="text_102">
      <!-- 0.0 -->
      <g style="fill:#262626;" transform="translate(479.858824 463.286906)scale(0.132 -0.132)">
       <use xlink:href="#ArialMT-48"/>
       <use x="55.615234" xlink:href="#ArialMT-46"/>
       <use x="83.398438" xlink:href="#ArialMT-48"/>
      </g>
     </g>
    </g>
    <g id="ytick_32">
     <g id="line2d_62">
      <path clip-path="url(#pc1e8c5d652)" d="M 507.706824 422.622254 
L 704.648 422.622254 
" style="fill:none;stroke:#ffffff;stroke-linecap:round;"/>
     </g>
     <g id="text_103">
      <!-- 0.2 -->
      <g style="fill:#262626;" transform="translate(479.858824 427.34641)scale(0.132 -0.132)">
       <use xlink:href="#ArialMT-48"/>
       <use x="55.615234" xlink:href="#ArialMT-46"/>
       <use x="83.398438" xlink:href="#ArialMT-50"/>
      </g>
     </g>
    </g>
    <g id="ytick_33">
     <g id="line2d_63">
      <path clip-path="url(#pc1e8c5d652)" d="M 507.706824 386.681758 
L 704.648 386.681758 
" style="fill:none;stroke:#ffffff;stroke-linecap:round;"/>
     </g>
     <g id="text_104">
      <!-- 0.4 -->
      <g style="fill:#262626;" transform="translate(479.858824 391.405915)scale(0.132 -0.132)">
       <use xlink:href="#ArialMT-48"/>
       <use x="55.615234" xlink:href="#ArialMT-46"/>
       <use x="83.398438" xlink:href="#ArialMT-52"/>
      </g>
     </g>
    </g>
    <g id="ytick_34">
     <g id="line2d_64">
      <path clip-path="url(#pc1e8c5d652)" d="M 507.706824 350.741262 
L 704.648 350.741262 
" style="fill:none;stroke:#ffffff;stroke-linecap:round;"/>
     </g>
     <g id="text_105">
      <!-- 0.6 -->
      <g style="fill:#262626;" transform="translate(479.858824 355.465419)scale(0.132 -0.132)">
       <use xlink:href="#ArialMT-48"/>
       <use x="55.615234" xlink:href="#ArialMT-46"/>
       <use x="83.398438" xlink:href="#ArialMT-54"/>
      </g>
     </g>
    </g>
    <g id="ytick_35">
     <g id="line2d_65">
      <path clip-path="url(#pc1e8c5d652)" d="M 507.706824 314.800767 
L 704.648 314.800767 
" style="fill:none;stroke:#ffffff;stroke-linecap:round;"/>
     </g>
     <g id="text_106">
      <!-- 0.8 -->
      <g style="fill:#262626;" transform="translate(479.858824 319.524923)scale(0.132 -0.132)">
       <use xlink:href="#ArialMT-48"/>
       <use x="55.615234" xlink:href="#ArialMT-46"/>
       <use x="83.398438" xlink:href="#ArialMT-56"/>
      </g>
     </g>
    </g>
    <g id="ytick_36">
     <g id="line2d_66">
      <path clip-path="url(#pc1e8c5d652)" d="M 507.706824 278.860271 
L 704.648 278.860271 
" style="fill:none;stroke:#ffffff;stroke-linecap:round;"/>
     </g>
     <g id="text_107">
      <!-- 1.0 -->
      <g style="fill:#262626;" transform="translate(479.858824 283.584427)scale(0.132 -0.132)">
       <use xlink:href="#ArialMT-49"/>
       <use x="55.615234" xlink:href="#ArialMT-46"/>
       <use x="83.398438" xlink:href="#ArialMT-48"/>
      </g>
     </g>
    </g>
   </g>
   <g id="patch_58">
    <path clip-path="url(#pc1e8c5d652)" d="M 510.989176 458.56275 
L 537.248 458.56275 
L 537.248 399.800039 
L 510.989176 399.800039 
z
" style="fill:#5875a4;stroke:#ffffff;stroke-linejoin:miter;"/>
   </g>
   <g id="patch_59">
    <path clip-path="url(#pc1e8c5d652)" d="M 543.812706 458.56275 
L 570.071529 458.56275 
L 570.071529 423.341064 
L 543.812706 423.341064 
z
" style="fill:#cc8963;stroke:#ffffff;stroke-linejoin:miter;"/>
   </g>
   <g id="patch_60">
    <path clip-path="url(#pc1e8c5d652)" d="M 576.636235 458.56275 
L 602.895059 458.56275 
L 602.895059 381.470386 
L 576.636235 381.470386 
z
" style="fill:#5f9e6e;stroke:#ffffff;stroke-linejoin:miter;"/>
   </g>
   <g id="patch_61">
    <path clip-path="url(#pc1e8c5d652)" d="M 609.459765 458.56275 
L 635.718588 458.56275 
L 635.718588 320.910651 
L 609.459765 320.910651 
z
" style="fill:#b55d60;stroke:#ffffff;stroke-linejoin:miter;"/>
   </g>
   <g id="patch_62">
    <path clip-path="url(#pc1e8c5d652)" d="M 642.283294 458.56275 
L 668.542118 458.56275 
L 668.542118 307.432965 
L 642.283294 307.432965 
z
" style="fill:#857aab;stroke:#ffffff;stroke-linejoin:miter;"/>
   </g>
   <g id="patch_63">
    <path clip-path="url(#pc1e8c5d652)" d="M 675.106824 458.56275 
L 701.365647 458.56275 
L 701.365647 319.293329 
L 675.106824 319.293329 
z
" style="fill:#8d7866;stroke:#ffffff;stroke-linejoin:miter;"/>
   </g>
   <g id="line2d_67">
    <path clip-path="url(#pc1e8c5d652)" d="M 0 0 
" style="fill:none;stroke:#424242;stroke-linecap:round;stroke-width:2.7;"/>
   </g>
   <g id="line2d_68">
    <path clip-path="url(#pc1e8c5d652)" d="M 0 0 
" style="fill:none;stroke:#424242;stroke-linecap:round;stroke-width:2.7;"/>
   </g>
   <g id="line2d_69">
    <path clip-path="url(#pc1e8c5d652)" d="M 0 0 
" style="fill:none;stroke:#424242;stroke-linecap:round;stroke-width:2.7;"/>
   </g>
   <g id="line2d_70">
    <path clip-path="url(#pc1e8c5d652)" d="M 0 0 
" style="fill:none;stroke:#424242;stroke-linecap:round;stroke-width:2.7;"/>
   </g>
   <g id="line2d_71">
    <path clip-path="url(#pc1e8c5d652)" d="M 0 0 
" style="fill:none;stroke:#424242;stroke-linecap:round;stroke-width:2.7;"/>
   </g>
   <g id="line2d_72">
    <path clip-path="url(#pc1e8c5d652)" d="M 0 0 
" style="fill:none;stroke:#424242;stroke-linecap:round;stroke-width:2.7;"/>
   </g>
   <g id="patch_64">
    <path d="M 507.706824 458.56275 
L 507.706824 260.890023 
" style="fill:none;stroke:#ffffff;stroke-linecap:square;stroke-linejoin:miter;stroke-width:1.25;"/>
   </g>
   <g id="patch_65">
    <path d="M 704.648 458.56275 
L 704.648 260.890023 
" style="fill:none;stroke:#ffffff;stroke-linecap:square;stroke-linejoin:miter;stroke-width:1.25;"/>
   </g>
   <g id="patch_66">
    <path d="M 507.706824 458.56275 
L 704.648 458.56275 
" style="fill:none;stroke:#ffffff;stroke-linecap:square;stroke-linejoin:miter;stroke-width:1.25;"/>
   </g>
   <g id="patch_67">
    <path d="M 507.706824 260.890023 
L 704.648 260.890023 
" style="fill:none;stroke:#ffffff;stroke-linecap:square;stroke-linejoin:miter;stroke-width:1.25;"/>
   </g>
   <g id="text_108">
    <!-- 0.33 -->
    <g style="fill:#262626;" transform="translate(510.106713 396.938039)scale(0.144 -0.144)">
     <use xlink:href="#ArialMT-48"/>
     <use x="55.615234" xlink:href="#ArialMT-46"/>
     <use x="83.398438" xlink:href="#ArialMT-51"/>
     <use x="139.013672" xlink:href="#ArialMT-51"/>
    </g>
   </g>
   <g id="text_109">
    <!-- 0.20 -->
    <g style="fill:#262626;" transform="translate(542.930243 420.479064)scale(0.144 -0.144)">
     <use xlink:href="#ArialMT-48"/>
     <use x="55.615234" xlink:href="#ArialMT-46"/>
     <use x="83.398438" xlink:href="#ArialMT-50"/>
     <use x="139.013672" xlink:href="#ArialMT-48"/>
    </g>
   </g>
   <g id="text_110">
    <!-- 0.43 -->
    <g style="fill:#262626;" transform="translate(575.753772 378.608386)scale(0.144 -0.144)">
     <use xlink:href="#ArialMT-48"/>
     <use x="55.615234" xlink:href="#ArialMT-46"/>
     <use x="83.398438" xlink:href="#ArialMT-52"/>
     <use x="139.013672" xlink:href="#ArialMT-51"/>
    </g>
   </g>
   <g id="text_111">
    <!-- 0.77 -->
    <g style="fill:#262626;" transform="translate(608.577301 318.048651)scale(0.144 -0.144)">
     <use xlink:href="#ArialMT-48"/>
     <use x="55.615234" xlink:href="#ArialMT-46"/>
     <use x="83.398438" xlink:href="#ArialMT-55"/>
     <use x="139.013672" xlink:href="#ArialMT-55"/>
    </g>
   </g>
   <g id="text_112">
    <!-- 0.84 -->
    <g style="fill:#262626;" transform="translate(641.400831 304.570965)scale(0.144 -0.144)">
     <use xlink:href="#ArialMT-48"/>
     <use x="55.615234" xlink:href="#ArialMT-46"/>
     <use x="83.398438" xlink:href="#ArialMT-56"/>
     <use x="139.013672" xlink:href="#ArialMT-52"/>
    </g>
   </g>
   <g id="text_113">
    <!-- 0.78 -->
    <g style="fill:#262626;" transform="translate(674.22436 316.431329)scale(0.144 -0.144)">
     <use xlink:href="#ArialMT-48"/>
     <use x="55.615234" xlink:href="#ArialMT-46"/>
     <use x="83.398438" xlink:href="#ArialMT-55"/>
     <use x="139.013672" xlink:href="#ArialMT-56"/>
    </g>
   </g>
   <g id="text_114">
    <!-- noshuffle_test -->
    <g style="fill:#262626;" transform="translate(561.350662 254.890023)scale(0.144 -0.144)">
     <use xlink:href="#ArialMT-110"/>
     <use x="55.615234" xlink:href="#ArialMT-111"/>
     <use x="111.230469" xlink:href="#ArialMT-115"/>
     <use x="161.230469" xlink:href="#ArialMT-104"/>
     <use x="216.845703" xlink:href="#ArialMT-117"/>
     <use x="272.460938" xlink:href="#ArialMT-102"/>
     <use x="300.228516" xlink:href="#ArialMT-102"/>
     <use x="328.011719" xlink:href="#ArialMT-108"/>
     <use x="350.228516" xlink:href="#ArialMT-101"/>
     <use x="405.84375" xlink:href="#ArialMT-95"/>
     <use x="461.458984" xlink:href="#ArialMT-116"/>
     <use x="489.242188" xlink:href="#ArialMT-101"/>
     <use x="544.857422" xlink:href="#ArialMT-115"/>
     <use x="594.857422" xlink:href="#ArialMT-116"/>
    </g>
   </g>
  </g>
 </g>
 <defs>
  <clipPath id="p6dbde391bb">
   <rect height="197.672727" width="196.941176" x="35.048" y="23.68275"/>
  </clipPath>
  <clipPath id="pda8958b6c1">
   <rect height="197.672727" width="196.941176" x="271.377412" y="23.68275"/>
  </clipPath>
  <clipPath id="peeedc3472e">
   <rect height="197.672727" width="196.941176" x="507.706824" y="23.68275"/>
  </clipPath>
  <clipPath id="p7a7ba92198">
   <rect height="197.672727" width="196.941176" x="35.048" y="260.890023"/>
  </clipPath>
  <clipPath id="p880a2bbe64">
   <rect height="197.672727" width="196.941176" x="271.377412" y="260.890023"/>
  </clipPath>
  <clipPath id="pc1e8c5d652">
   <rect height="197.672727" width="196.941176" x="507.706824" y="260.890023"/>
  </clipPath>
 </defs>
</svg>
