<?xml version="1.0" encoding="utf-8" standalone="no"?>
<!DOCTYPE svg PUBLIC "-//W3C//DTD SVG 1.1//EN"
  "http://www.w3.org/Graphics/SVG/1.1/DTD/svg11.dtd">
<!-- Created with matplotlib (https://matplotlib.org/) -->
<svg height="277.314375pt" version="1.1" viewBox="0 0 395.328125 277.314375" width="395.328125pt" xmlns="http://www.w3.org/2000/svg" xmlns:xlink="http://www.w3.org/1999/xlink">
 <defs>
  <style type="text/css">
*{stroke-linecap:butt;stroke-linejoin:round;}
  </style>
 </defs>
 <g id="figure_1">
  <g id="patch_1">
   <path d="M 0 277.314375 
L 395.328125 277.314375 
L 395.328125 0 
L 0 0 
z
" style="fill:#ffffff;"/>
  </g>
  <g id="axes_1">
   <g id="patch_2">
    <path d="M 53.328125 239.758125 
L 388.128125 239.758125 
L 388.128125 22.318125 
L 53.328125 22.318125 
z
" style="fill:#ffffff;"/>
   </g>
   <g id="matplotlib.axis_1">
    <g id="xtick_1">
     <g id="line2d_1">
      <defs>
       <path d="M 0 0 
L 0 3.5 
" id="m972f5550ac" style="stroke:#000000;stroke-width:0.8;"/>
      </defs>
      <g>
       <use style="stroke:#000000;stroke-width:0.8;" x="68.546307" xlink:href="#m972f5550ac" y="239.758125"/>
      </g>
     </g>
     <g id="text_1">
      <!-- 0 -->
      <defs>
       <path d="M 31.78125 66.40625 
Q 24.171875 66.40625 20.328125 58.90625 
Q 16.5 51.421875 16.5 36.375 
Q 16.5 21.390625 20.328125 13.890625 
Q 24.171875 6.390625 31.78125 6.390625 
Q 39.453125 6.390625 43.28125 13.890625 
Q 47.125 21.390625 47.125 36.375 
Q 47.125 51.421875 43.28125 58.90625 
Q 39.453125 66.40625 31.78125 66.40625 
z
M 31.78125 74.21875 
Q 44.046875 74.21875 50.515625 64.515625 
Q 56.984375 54.828125 56.984375 36.375 
Q 56.984375 17.96875 50.515625 8.265625 
Q 44.046875 -1.421875 31.78125 -1.421875 
Q 19.53125 -1.421875 13.0625 8.265625 
Q 6.59375 17.96875 6.59375 36.375 
Q 6.59375 54.828125 13.0625 64.515625 
Q 19.53125 74.21875 31.78125 74.21875 
z
" id="DejaVuSans-48"/>
      </defs>
      <g transform="translate(65.365057 254.356562)scale(0.1 -0.1)">
       <use xlink:href="#DejaVuSans-48"/>
      </g>
     </g>
    </g>
    <g id="xtick_2">
     <g id="line2d_2">
      <g>
       <use style="stroke:#000000;stroke-width:0.8;" x="129.419034" xlink:href="#m972f5550ac" y="239.758125"/>
      </g>
     </g>
     <g id="text_2">
      <!-- 100 -->
      <defs>
       <path d="M 12.40625 8.296875 
L 28.515625 8.296875 
L 28.515625 63.921875 
L 10.984375 60.40625 
L 10.984375 69.390625 
L 28.421875 72.90625 
L 38.28125 72.90625 
L 38.28125 8.296875 
L 54.390625 8.296875 
L 54.390625 0 
L 12.40625 0 
z
" id="DejaVuSans-49"/>
      </defs>
      <g transform="translate(119.875284 254.356562)scale(0.1 -0.1)">
       <use xlink:href="#DejaVuSans-49"/>
       <use x="63.623047" xlink:href="#DejaVuSans-48"/>
       <use x="127.246094" xlink:href="#DejaVuSans-48"/>
      </g>
     </g>
    </g>
    <g id="xtick_3">
     <g id="line2d_3">
      <g>
       <use style="stroke:#000000;stroke-width:0.8;" x="190.291761" xlink:href="#m972f5550ac" y="239.758125"/>
      </g>
     </g>
     <g id="text_3">
      <!-- 200 -->
      <defs>
       <path d="M 19.1875 8.296875 
L 53.609375 8.296875 
L 53.609375 0 
L 7.328125 0 
L 7.328125 8.296875 
Q 12.9375 14.109375 22.625 23.890625 
Q 32.328125 33.6875 34.8125 36.53125 
Q 39.546875 41.84375 41.421875 45.53125 
Q 43.3125 49.21875 43.3125 52.78125 
Q 43.3125 58.59375 39.234375 62.25 
Q 35.15625 65.921875 28.609375 65.921875 
Q 23.96875 65.921875 18.8125 64.3125 
Q 13.671875 62.703125 7.8125 59.421875 
L 7.8125 69.390625 
Q 13.765625 71.78125 18.9375 73 
Q 24.125 74.21875 28.421875 74.21875 
Q 39.75 74.21875 46.484375 68.546875 
Q 53.21875 62.890625 53.21875 53.421875 
Q 53.21875 48.921875 51.53125 44.890625 
Q 49.859375 40.875 45.40625 35.40625 
Q 44.1875 33.984375 37.640625 27.21875 
Q 31.109375 20.453125 19.1875 8.296875 
z
" id="DejaVuSans-50"/>
      </defs>
      <g transform="translate(180.748011 254.356562)scale(0.1 -0.1)">
       <use xlink:href="#DejaVuSans-50"/>
       <use x="63.623047" xlink:href="#DejaVuSans-48"/>
       <use x="127.246094" xlink:href="#DejaVuSans-48"/>
      </g>
     </g>
    </g>
    <g id="xtick_4">
     <g id="line2d_4">
      <g>
       <use style="stroke:#000000;stroke-width:0.8;" x="251.164489" xlink:href="#m972f5550ac" y="239.758125"/>
      </g>
     </g>
     <g id="text_4">
      <!-- 300 -->
      <defs>
       <path d="M 40.578125 39.3125 
Q 47.65625 37.796875 51.625 33 
Q 55.609375 28.21875 55.609375 21.1875 
Q 55.609375 10.40625 48.1875 4.484375 
Q 40.765625 -1.421875 27.09375 -1.421875 
Q 22.515625 -1.421875 17.65625 -0.515625 
Q 12.796875 0.390625 7.625 2.203125 
L 7.625 11.71875 
Q 11.71875 9.328125 16.59375 8.109375 
Q 21.484375 6.890625 26.8125 6.890625 
Q 36.078125 6.890625 40.9375 10.546875 
Q 45.796875 14.203125 45.796875 21.1875 
Q 45.796875 27.640625 41.28125 31.265625 
Q 36.765625 34.90625 28.71875 34.90625 
L 20.21875 34.90625 
L 20.21875 43.015625 
L 29.109375 43.015625 
Q 36.375 43.015625 40.234375 45.921875 
Q 44.09375 48.828125 44.09375 54.296875 
Q 44.09375 59.90625 40.109375 62.90625 
Q 36.140625 65.921875 28.71875 65.921875 
Q 24.65625 65.921875 20.015625 65.03125 
Q 15.375 64.15625 9.8125 62.3125 
L 9.8125 71.09375 
Q 15.4375 72.65625 20.34375 73.4375 
Q 25.25 74.21875 29.59375 74.21875 
Q 40.828125 74.21875 47.359375 69.109375 
Q 53.90625 64.015625 53.90625 55.328125 
Q 53.90625 49.265625 50.4375 45.09375 
Q 46.96875 40.921875 40.578125 39.3125 
z
" id="DejaVuSans-51"/>
      </defs>
      <g transform="translate(241.620739 254.356562)scale(0.1 -0.1)">
       <use xlink:href="#DejaVuSans-51"/>
       <use x="63.623047" xlink:href="#DejaVuSans-48"/>
       <use x="127.246094" xlink:href="#DejaVuSans-48"/>
      </g>
     </g>
    </g>
    <g id="xtick_5">
     <g id="line2d_5">
      <g>
       <use style="stroke:#000000;stroke-width:0.8;" x="312.037216" xlink:href="#m972f5550ac" y="239.758125"/>
      </g>
     </g>
     <g id="text_5">
      <!-- 400 -->
      <defs>
       <path d="M 37.796875 64.3125 
L 12.890625 25.390625 
L 37.796875 25.390625 
z
M 35.203125 72.90625 
L 47.609375 72.90625 
L 47.609375 25.390625 
L 58.015625 25.390625 
L 58.015625 17.1875 
L 47.609375 17.1875 
L 47.609375 0 
L 37.796875 0 
L 37.796875 17.1875 
L 4.890625 17.1875 
L 4.890625 26.703125 
z
" id="DejaVuSans-52"/>
      </defs>
      <g transform="translate(302.493466 254.356562)scale(0.1 -0.1)">
       <use xlink:href="#DejaVuSans-52"/>
       <use x="63.623047" xlink:href="#DejaVuSans-48"/>
       <use x="127.246094" xlink:href="#DejaVuSans-48"/>
      </g>
     </g>
    </g>
    <g id="xtick_6">
     <g id="line2d_6">
      <g>
       <use style="stroke:#000000;stroke-width:0.8;" x="372.909943" xlink:href="#m972f5550ac" y="239.758125"/>
      </g>
     </g>
     <g id="text_6">
      <!-- 500 -->
      <defs>
       <path d="M 10.796875 72.90625 
L 49.515625 72.90625 
L 49.515625 64.59375 
L 19.828125 64.59375 
L 19.828125 46.734375 
Q 21.96875 47.46875 24.109375 47.828125 
Q 26.265625 48.1875 28.421875 48.1875 
Q 40.625 48.1875 47.75 41.5 
Q 54.890625 34.8125 54.890625 23.390625 
Q 54.890625 11.625 47.5625 5.09375 
Q 40.234375 -1.421875 26.90625 -1.421875 
Q 22.3125 -1.421875 17.546875 -0.640625 
Q 12.796875 0.140625 7.71875 1.703125 
L 7.71875 11.625 
Q 12.109375 9.234375 16.796875 8.0625 
Q 21.484375 6.890625 26.703125 6.890625 
Q 35.15625 6.890625 40.078125 11.328125 
Q 45.015625 15.765625 45.015625 23.390625 
Q 45.015625 31 40.078125 35.4375 
Q 35.15625 39.890625 26.703125 39.890625 
Q 22.75 39.890625 18.8125 39.015625 
Q 14.890625 38.140625 10.796875 36.28125 
z
" id="DejaVuSans-53"/>
      </defs>
      <g transform="translate(363.366193 254.356562)scale(0.1 -0.1)">
       <use xlink:href="#DejaVuSans-53"/>
       <use x="63.623047" xlink:href="#DejaVuSans-48"/>
       <use x="127.246094" xlink:href="#DejaVuSans-48"/>
      </g>
     </g>
    </g>
    <g id="text_7">
     <!-- frequency / Hz -->
     <defs>
      <path d="M 37.109375 75.984375 
L 37.109375 68.5 
L 28.515625 68.5 
Q 23.6875 68.5 21.796875 66.546875 
Q 19.921875 64.59375 19.921875 59.515625 
L 19.921875 54.6875 
L 34.71875 54.6875 
L 34.71875 47.703125 
L 19.921875 47.703125 
L 19.921875 0 
L 10.890625 0 
L 10.890625 47.703125 
L 2.296875 47.703125 
L 2.296875 54.6875 
L 10.890625 54.6875 
L 10.890625 58.5 
Q 10.890625 67.625 15.140625 71.796875 
Q 19.390625 75.984375 28.609375 75.984375 
z
" id="DejaVuSans-102"/>
      <path d="M 41.109375 46.296875 
Q 39.59375 47.171875 37.8125 47.578125 
Q 36.03125 48 33.890625 48 
Q 26.265625 48 22.1875 43.046875 
Q 18.109375 38.09375 18.109375 28.8125 
L 18.109375 0 
L 9.078125 0 
L 9.078125 54.6875 
L 18.109375 54.6875 
L 18.109375 46.1875 
Q 20.953125 51.171875 25.484375 53.578125 
Q 30.03125 56 36.53125 56 
Q 37.453125 56 38.578125 55.875 
Q 39.703125 55.765625 41.0625 55.515625 
z
" id="DejaVuSans-114"/>
      <path d="M 56.203125 29.59375 
L 56.203125 25.203125 
L 14.890625 25.203125 
Q 15.484375 15.921875 20.484375 11.0625 
Q 25.484375 6.203125 34.421875 6.203125 
Q 39.59375 6.203125 44.453125 7.46875 
Q 49.3125 8.734375 54.109375 11.28125 
L 54.109375 2.78125 
Q 49.265625 0.734375 44.1875 -0.34375 
Q 39.109375 -1.421875 33.890625 -1.421875 
Q 20.796875 -1.421875 13.15625 6.1875 
Q 5.515625 13.8125 5.515625 26.8125 
Q 5.515625 40.234375 12.765625 48.109375 
Q 20.015625 56 32.328125 56 
Q 43.359375 56 49.78125 48.890625 
Q 56.203125 41.796875 56.203125 29.59375 
z
M 47.21875 32.234375 
Q 47.125 39.59375 43.09375 43.984375 
Q 39.0625 48.390625 32.421875 48.390625 
Q 24.90625 48.390625 20.390625 44.140625 
Q 15.875 39.890625 15.1875 32.171875 
z
" id="DejaVuSans-101"/>
      <path d="M 14.796875 27.296875 
Q 14.796875 17.390625 18.875 11.75 
Q 22.953125 6.109375 30.078125 6.109375 
Q 37.203125 6.109375 41.296875 11.75 
Q 45.40625 17.390625 45.40625 27.296875 
Q 45.40625 37.203125 41.296875 42.84375 
Q 37.203125 48.484375 30.078125 48.484375 
Q 22.953125 48.484375 18.875 42.84375 
Q 14.796875 37.203125 14.796875 27.296875 
z
M 45.40625 8.203125 
Q 42.578125 3.328125 38.25 0.953125 
Q 33.9375 -1.421875 27.875 -1.421875 
Q 17.96875 -1.421875 11.734375 6.484375 
Q 5.515625 14.40625 5.515625 27.296875 
Q 5.515625 40.1875 11.734375 48.09375 
Q 17.96875 56 27.875 56 
Q 33.9375 56 38.25 53.625 
Q 42.578125 51.265625 45.40625 46.390625 
L 45.40625 54.6875 
L 54.390625 54.6875 
L 54.390625 -20.796875 
L 45.40625 -20.796875 
z
" id="DejaVuSans-113"/>
      <path d="M 8.5 21.578125 
L 8.5 54.6875 
L 17.484375 54.6875 
L 17.484375 21.921875 
Q 17.484375 14.15625 20.5 10.265625 
Q 23.53125 6.390625 29.59375 6.390625 
Q 36.859375 6.390625 41.078125 11.03125 
Q 45.3125 15.671875 45.3125 23.6875 
L 45.3125 54.6875 
L 54.296875 54.6875 
L 54.296875 0 
L 45.3125 0 
L 45.3125 8.40625 
Q 42.046875 3.421875 37.71875 1 
Q 33.40625 -1.421875 27.6875 -1.421875 
Q 18.265625 -1.421875 13.375 4.4375 
Q 8.5 10.296875 8.5 21.578125 
z
M 31.109375 56 
z
" id="DejaVuSans-117"/>
      <path d="M 54.890625 33.015625 
L 54.890625 0 
L 45.90625 0 
L 45.90625 32.71875 
Q 45.90625 40.484375 42.875 44.328125 
Q 39.84375 48.1875 33.796875 48.1875 
Q 26.515625 48.1875 22.3125 43.546875 
Q 18.109375 38.921875 18.109375 30.90625 
L 18.109375 0 
L 9.078125 0 
L 9.078125 54.6875 
L 18.109375 54.6875 
L 18.109375 46.1875 
Q 21.34375 51.125 25.703125 53.5625 
Q 30.078125 56 35.796875 56 
Q 45.21875 56 50.046875 50.171875 
Q 54.890625 44.34375 54.890625 33.015625 
z
" id="DejaVuSans-110"/>
      <path d="M 48.78125 52.59375 
L 48.78125 44.1875 
Q 44.96875 46.296875 41.140625 47.34375 
Q 37.3125 48.390625 33.40625 48.390625 
Q 24.65625 48.390625 19.8125 42.84375 
Q 14.984375 37.3125 14.984375 27.296875 
Q 14.984375 17.28125 19.8125 11.734375 
Q 24.65625 6.203125 33.40625 6.203125 
Q 37.3125 6.203125 41.140625 7.25 
Q 44.96875 8.296875 48.78125 10.40625 
L 48.78125 2.09375 
Q 45.015625 0.34375 40.984375 -0.53125 
Q 36.96875 -1.421875 32.421875 -1.421875 
Q 20.0625 -1.421875 12.78125 6.34375 
Q 5.515625 14.109375 5.515625 27.296875 
Q 5.515625 40.671875 12.859375 48.328125 
Q 20.21875 56 33.015625 56 
Q 37.15625 56 41.109375 55.140625 
Q 45.0625 54.296875 48.78125 52.59375 
z
" id="DejaVuSans-99"/>
      <path d="M 32.171875 -5.078125 
Q 28.375 -14.84375 24.75 -17.8125 
Q 21.140625 -20.796875 15.09375 -20.796875 
L 7.90625 -20.796875 
L 7.90625 -13.28125 
L 13.1875 -13.28125 
Q 16.890625 -13.28125 18.9375 -11.515625 
Q 21 -9.765625 23.484375 -3.21875 
L 25.09375 0.875 
L 2.984375 54.6875 
L 12.5 54.6875 
L 29.59375 11.921875 
L 46.6875 54.6875 
L 56.203125 54.6875 
z
" id="DejaVuSans-121"/>
      <path id="DejaVuSans-32"/>
      <path d="M 25.390625 72.90625 
L 33.6875 72.90625 
L 8.296875 -9.28125 
L 0 -9.28125 
z
" id="DejaVuSans-47"/>
      <path d="M 9.8125 72.90625 
L 19.671875 72.90625 
L 19.671875 43.015625 
L 55.515625 43.015625 
L 55.515625 72.90625 
L 65.375 72.90625 
L 65.375 0 
L 55.515625 0 
L 55.515625 34.71875 
L 19.671875 34.71875 
L 19.671875 0 
L 9.8125 0 
z
" id="DejaVuSans-72"/>
      <path d="M 5.515625 54.6875 
L 48.1875 54.6875 
L 48.1875 46.484375 
L 14.40625 7.171875 
L 48.1875 7.171875 
L 48.1875 0 
L 4.296875 0 
L 4.296875 8.203125 
L 38.09375 47.515625 
L 5.515625 47.515625 
z
" id="DejaVuSans-122"/>
     </defs>
     <g transform="translate(184.29375 268.034687)scale(0.1 -0.1)">
      <use xlink:href="#DejaVuSans-102"/>
      <use x="35.205078" xlink:href="#DejaVuSans-114"/>
      <use x="76.287109" xlink:href="#DejaVuSans-101"/>
      <use x="137.810547" xlink:href="#DejaVuSans-113"/>
      <use x="201.287109" xlink:href="#DejaVuSans-117"/>
      <use x="264.666016" xlink:href="#DejaVuSans-101"/>
      <use x="326.189453" xlink:href="#DejaVuSans-110"/>
      <use x="389.568359" xlink:href="#DejaVuSans-99"/>
      <use x="444.548828" xlink:href="#DejaVuSans-121"/>
      <use x="503.728516" xlink:href="#DejaVuSans-32"/>
      <use x="535.515625" xlink:href="#DejaVuSans-47"/>
      <use x="569.207031" xlink:href="#DejaVuSans-32"/>
      <use x="600.994141" xlink:href="#DejaVuSans-72"/>
      <use x="676.189453" xlink:href="#DejaVuSans-122"/>
     </g>
    </g>
   </g>
   <g id="matplotlib.axis_2">
    <g id="ytick_1">
     <g id="line2d_7">
      <defs>
       <path d="M 0 0 
L -3.5 0 
" id="m4e53f90e75" style="stroke:#000000;stroke-width:0.8;"/>
      </defs>
      <g>
       <use style="stroke:#000000;stroke-width:0.8;" x="53.328125" xlink:href="#m4e53f90e75" y="229.874489"/>
      </g>
     </g>
     <g id="text_8">
      <!-- 0 -->
      <g transform="translate(39.965625 233.673707)scale(0.1 -0.1)">
       <use xlink:href="#DejaVuSans-48"/>
      </g>
     </g>
    </g>
    <g id="ytick_2">
     <g id="line2d_8">
      <g>
       <use style="stroke:#000000;stroke-width:0.8;" x="53.328125" xlink:href="#m4e53f90e75" y="204.800776"/>
      </g>
     </g>
     <g id="text_9">
      <!-- 1000 -->
      <g transform="translate(20.878125 208.599995)scale(0.1 -0.1)">
       <use xlink:href="#DejaVuSans-49"/>
       <use x="63.623047" xlink:href="#DejaVuSans-48"/>
       <use x="127.246094" xlink:href="#DejaVuSans-48"/>
       <use x="190.869141" xlink:href="#DejaVuSans-48"/>
      </g>
     </g>
    </g>
    <g id="ytick_3">
     <g id="line2d_9">
      <g>
       <use style="stroke:#000000;stroke-width:0.8;" x="53.328125" xlink:href="#m4e53f90e75" y="179.727063"/>
      </g>
     </g>
     <g id="text_10">
      <!-- 2000 -->
      <g transform="translate(20.878125 183.526282)scale(0.1 -0.1)">
       <use xlink:href="#DejaVuSans-50"/>
       <use x="63.623047" xlink:href="#DejaVuSans-48"/>
       <use x="127.246094" xlink:href="#DejaVuSans-48"/>
       <use x="190.869141" xlink:href="#DejaVuSans-48"/>
      </g>
     </g>
    </g>
    <g id="ytick_4">
     <g id="line2d_10">
      <g>
       <use style="stroke:#000000;stroke-width:0.8;" x="53.328125" xlink:href="#m4e53f90e75" y="154.653351"/>
      </g>
     </g>
     <g id="text_11">
      <!-- 3000 -->
      <g transform="translate(20.878125 158.45257)scale(0.1 -0.1)">
       <use xlink:href="#DejaVuSans-51"/>
       <use x="63.623047" xlink:href="#DejaVuSans-48"/>
       <use x="127.246094" xlink:href="#DejaVuSans-48"/>
       <use x="190.869141" xlink:href="#DejaVuSans-48"/>
      </g>
     </g>
    </g>
    <g id="ytick_5">
     <g id="line2d_11">
      <g>
       <use style="stroke:#000000;stroke-width:0.8;" x="53.328125" xlink:href="#m4e53f90e75" y="129.579638"/>
      </g>
     </g>
     <g id="text_12">
      <!-- 4000 -->
      <g transform="translate(20.878125 133.378857)scale(0.1 -0.1)">
       <use xlink:href="#DejaVuSans-52"/>
       <use x="63.623047" xlink:href="#DejaVuSans-48"/>
       <use x="127.246094" xlink:href="#DejaVuSans-48"/>
       <use x="190.869141" xlink:href="#DejaVuSans-48"/>
      </g>
     </g>
    </g>
    <g id="ytick_6">
     <g id="line2d_12">
      <g>
       <use style="stroke:#000000;stroke-width:0.8;" x="53.328125" xlink:href="#m4e53f90e75" y="104.505926"/>
      </g>
     </g>
     <g id="text_13">
      <!-- 5000 -->
      <g transform="translate(20.878125 108.305144)scale(0.1 -0.1)">
       <use xlink:href="#DejaVuSans-53"/>
       <use x="63.623047" xlink:href="#DejaVuSans-48"/>
       <use x="127.246094" xlink:href="#DejaVuSans-48"/>
       <use x="190.869141" xlink:href="#DejaVuSans-48"/>
      </g>
     </g>
    </g>
    <g id="ytick_7">
     <g id="line2d_13">
      <g>
       <use style="stroke:#000000;stroke-width:0.8;" x="53.328125" xlink:href="#m4e53f90e75" y="79.432213"/>
      </g>
     </g>
     <g id="text_14">
      <!-- 6000 -->
      <defs>
       <path d="M 33.015625 40.375 
Q 26.375 40.375 22.484375 35.828125 
Q 18.609375 31.296875 18.609375 23.390625 
Q 18.609375 15.53125 22.484375 10.953125 
Q 26.375 6.390625 33.015625 6.390625 
Q 39.65625 6.390625 43.53125 10.953125 
Q 47.40625 15.53125 47.40625 23.390625 
Q 47.40625 31.296875 43.53125 35.828125 
Q 39.65625 40.375 33.015625 40.375 
z
M 52.59375 71.296875 
L 52.59375 62.3125 
Q 48.875 64.0625 45.09375 64.984375 
Q 41.3125 65.921875 37.59375 65.921875 
Q 27.828125 65.921875 22.671875 59.328125 
Q 17.53125 52.734375 16.796875 39.40625 
Q 19.671875 43.65625 24.015625 45.921875 
Q 28.375 48.1875 33.59375 48.1875 
Q 44.578125 48.1875 50.953125 41.515625 
Q 57.328125 34.859375 57.328125 23.390625 
Q 57.328125 12.15625 50.6875 5.359375 
Q 44.046875 -1.421875 33.015625 -1.421875 
Q 20.359375 -1.421875 13.671875 8.265625 
Q 6.984375 17.96875 6.984375 36.375 
Q 6.984375 53.65625 15.1875 63.9375 
Q 23.390625 74.21875 37.203125 74.21875 
Q 40.921875 74.21875 44.703125 73.484375 
Q 48.484375 72.75 52.59375 71.296875 
z
" id="DejaVuSans-54"/>
      </defs>
      <g transform="translate(20.878125 83.231432)scale(0.1 -0.1)">
       <use xlink:href="#DejaVuSans-54"/>
       <use x="63.623047" xlink:href="#DejaVuSans-48"/>
       <use x="127.246094" xlink:href="#DejaVuSans-48"/>
       <use x="190.869141" xlink:href="#DejaVuSans-48"/>
      </g>
     </g>
    </g>
    <g id="ytick_8">
     <g id="line2d_14">
      <g>
       <use style="stroke:#000000;stroke-width:0.8;" x="53.328125" xlink:href="#m4e53f90e75" y="54.3585"/>
      </g>
     </g>
     <g id="text_15">
      <!-- 7000 -->
      <defs>
       <path d="M 8.203125 72.90625 
L 55.078125 72.90625 
L 55.078125 68.703125 
L 28.609375 0 
L 18.3125 0 
L 43.21875 64.59375 
L 8.203125 64.59375 
z
" id="DejaVuSans-55"/>
      </defs>
      <g transform="translate(20.878125 58.157719)scale(0.1 -0.1)">
       <use xlink:href="#DejaVuSans-55"/>
       <use x="63.623047" xlink:href="#DejaVuSans-48"/>
       <use x="127.246094" xlink:href="#DejaVuSans-48"/>
       <use x="190.869141" xlink:href="#DejaVuSans-48"/>
      </g>
     </g>
    </g>
    <g id="ytick_9">
     <g id="line2d_15">
      <g>
       <use style="stroke:#000000;stroke-width:0.8;" x="53.328125" xlink:href="#m4e53f90e75" y="29.284788"/>
      </g>
     </g>
     <g id="text_16">
      <!-- 8000 -->
      <defs>
       <path d="M 31.78125 34.625 
Q 24.75 34.625 20.71875 30.859375 
Q 16.703125 27.09375 16.703125 20.515625 
Q 16.703125 13.921875 20.71875 10.15625 
Q 24.75 6.390625 31.78125 6.390625 
Q 38.8125 6.390625 42.859375 10.171875 
Q 46.921875 13.96875 46.921875 20.515625 
Q 46.921875 27.09375 42.890625 30.859375 
Q 38.875 34.625 31.78125 34.625 
z
M 21.921875 38.8125 
Q 15.578125 40.375 12.03125 44.71875 
Q 8.5 49.078125 8.5 55.328125 
Q 8.5 64.0625 14.71875 69.140625 
Q 20.953125 74.21875 31.78125 74.21875 
Q 42.671875 74.21875 48.875 69.140625 
Q 55.078125 64.0625 55.078125 55.328125 
Q 55.078125 49.078125 51.53125 44.71875 
Q 48 40.375 41.703125 38.8125 
Q 48.828125 37.15625 52.796875 32.3125 
Q 56.78125 27.484375 56.78125 20.515625 
Q 56.78125 9.90625 50.3125 4.234375 
Q 43.84375 -1.421875 31.78125 -1.421875 
Q 19.734375 -1.421875 13.25 4.234375 
Q 6.78125 9.90625 6.78125 20.515625 
Q 6.78125 27.484375 10.78125 32.3125 
Q 14.796875 37.15625 21.921875 38.8125 
z
M 18.3125 54.390625 
Q 18.3125 48.734375 21.84375 45.5625 
Q 25.390625 42.390625 31.78125 42.390625 
Q 38.140625 42.390625 41.71875 45.5625 
Q 45.3125 48.734375 45.3125 54.390625 
Q 45.3125 60.0625 41.71875 63.234375 
Q 38.140625 66.40625 31.78125 66.40625 
Q 25.390625 66.40625 21.84375 63.234375 
Q 18.3125 60.0625 18.3125 54.390625 
z
" id="DejaVuSans-56"/>
      </defs>
      <g transform="translate(20.878125 33.084007)scale(0.1 -0.1)">
       <use xlink:href="#DejaVuSans-56"/>
       <use x="63.623047" xlink:href="#DejaVuSans-48"/>
       <use x="127.246094" xlink:href="#DejaVuSans-48"/>
       <use x="190.869141" xlink:href="#DejaVuSans-48"/>
      </g>
     </g>
    </g>
    <g id="text_17">
     <!-- Power spectral density -->
     <defs>
      <path d="M 19.671875 64.796875 
L 19.671875 37.40625 
L 32.078125 37.40625 
Q 38.96875 37.40625 42.71875 40.96875 
Q 46.484375 44.53125 46.484375 51.125 
Q 46.484375 57.671875 42.71875 61.234375 
Q 38.96875 64.796875 32.078125 64.796875 
z
M 9.8125 72.90625 
L 32.078125 72.90625 
Q 44.34375 72.90625 50.609375 67.359375 
Q 56.890625 61.8125 56.890625 51.125 
Q 56.890625 40.328125 50.609375 34.8125 
Q 44.34375 29.296875 32.078125 29.296875 
L 19.671875 29.296875 
L 19.671875 0 
L 9.8125 0 
z
" id="DejaVuSans-80"/>
      <path d="M 30.609375 48.390625 
Q 23.390625 48.390625 19.1875 42.75 
Q 14.984375 37.109375 14.984375 27.296875 
Q 14.984375 17.484375 19.15625 11.84375 
Q 23.34375 6.203125 30.609375 6.203125 
Q 37.796875 6.203125 41.984375 11.859375 
Q 46.1875 17.53125 46.1875 27.296875 
Q 46.1875 37.015625 41.984375 42.703125 
Q 37.796875 48.390625 30.609375 48.390625 
z
M 30.609375 56 
Q 42.328125 56 49.015625 48.375 
Q 55.71875 40.765625 55.71875 27.296875 
Q 55.71875 13.875 49.015625 6.21875 
Q 42.328125 -1.421875 30.609375 -1.421875 
Q 18.84375 -1.421875 12.171875 6.21875 
Q 5.515625 13.875 5.515625 27.296875 
Q 5.515625 40.765625 12.171875 48.375 
Q 18.84375 56 30.609375 56 
z
" id="DejaVuSans-111"/>
      <path d="M 4.203125 54.6875 
L 13.1875 54.6875 
L 24.421875 12.015625 
L 35.59375 54.6875 
L 46.1875 54.6875 
L 57.421875 12.015625 
L 68.609375 54.6875 
L 77.59375 54.6875 
L 63.28125 0 
L 52.6875 0 
L 40.921875 44.828125 
L 29.109375 0 
L 18.5 0 
z
" id="DejaVuSans-119"/>
      <path d="M 44.28125 53.078125 
L 44.28125 44.578125 
Q 40.484375 46.53125 36.375 47.5 
Q 32.28125 48.484375 27.875 48.484375 
Q 21.1875 48.484375 17.84375 46.4375 
Q 14.5 44.390625 14.5 40.28125 
Q 14.5 37.15625 16.890625 35.375 
Q 19.28125 33.59375 26.515625 31.984375 
L 29.59375 31.296875 
Q 39.15625 29.25 43.1875 25.515625 
Q 47.21875 21.78125 47.21875 15.09375 
Q 47.21875 7.46875 41.1875 3.015625 
Q 35.15625 -1.421875 24.609375 -1.421875 
Q 20.21875 -1.421875 15.453125 -0.5625 
Q 10.6875 0.296875 5.421875 2 
L 5.421875 11.28125 
Q 10.40625 8.6875 15.234375 7.390625 
Q 20.0625 6.109375 24.8125 6.109375 
Q 31.15625 6.109375 34.5625 8.28125 
Q 37.984375 10.453125 37.984375 14.40625 
Q 37.984375 18.0625 35.515625 20.015625 
Q 33.0625 21.96875 24.703125 23.78125 
L 21.578125 24.515625 
Q 13.234375 26.265625 9.515625 29.90625 
Q 5.8125 33.546875 5.8125 39.890625 
Q 5.8125 47.609375 11.28125 51.796875 
Q 16.75 56 26.8125 56 
Q 31.78125 56 36.171875 55.265625 
Q 40.578125 54.546875 44.28125 53.078125 
z
" id="DejaVuSans-115"/>
      <path d="M 18.109375 8.203125 
L 18.109375 -20.796875 
L 9.078125 -20.796875 
L 9.078125 54.6875 
L 18.109375 54.6875 
L 18.109375 46.390625 
Q 20.953125 51.265625 25.265625 53.625 
Q 29.59375 56 35.59375 56 
Q 45.5625 56 51.78125 48.09375 
Q 58.015625 40.1875 58.015625 27.296875 
Q 58.015625 14.40625 51.78125 6.484375 
Q 45.5625 -1.421875 35.59375 -1.421875 
Q 29.59375 -1.421875 25.265625 0.953125 
Q 20.953125 3.328125 18.109375 8.203125 
z
M 48.6875 27.296875 
Q 48.6875 37.203125 44.609375 42.84375 
Q 40.53125 48.484375 33.40625 48.484375 
Q 26.265625 48.484375 22.1875 42.84375 
Q 18.109375 37.203125 18.109375 27.296875 
Q 18.109375 17.390625 22.1875 11.75 
Q 26.265625 6.109375 33.40625 6.109375 
Q 40.53125 6.109375 44.609375 11.75 
Q 48.6875 17.390625 48.6875 27.296875 
z
" id="DejaVuSans-112"/>
      <path d="M 18.3125 70.21875 
L 18.3125 54.6875 
L 36.8125 54.6875 
L 36.8125 47.703125 
L 18.3125 47.703125 
L 18.3125 18.015625 
Q 18.3125 11.328125 20.140625 9.421875 
Q 21.96875 7.515625 27.59375 7.515625 
L 36.8125 7.515625 
L 36.8125 0 
L 27.59375 0 
Q 17.1875 0 13.234375 3.875 
Q 9.28125 7.765625 9.28125 18.015625 
L 9.28125 47.703125 
L 2.6875 47.703125 
L 2.6875 54.6875 
L 9.28125 54.6875 
L 9.28125 70.21875 
z
" id="DejaVuSans-116"/>
      <path d="M 34.28125 27.484375 
Q 23.390625 27.484375 19.1875 25 
Q 14.984375 22.515625 14.984375 16.5 
Q 14.984375 11.71875 18.140625 8.90625 
Q 21.296875 6.109375 26.703125 6.109375 
Q 34.1875 6.109375 38.703125 11.40625 
Q 43.21875 16.703125 43.21875 25.484375 
L 43.21875 27.484375 
z
M 52.203125 31.203125 
L 52.203125 0 
L 43.21875 0 
L 43.21875 8.296875 
Q 40.140625 3.328125 35.546875 0.953125 
Q 30.953125 -1.421875 24.3125 -1.421875 
Q 15.921875 -1.421875 10.953125 3.296875 
Q 6 8.015625 6 15.921875 
Q 6 25.140625 12.171875 29.828125 
Q 18.359375 34.515625 30.609375 34.515625 
L 43.21875 34.515625 
L 43.21875 35.40625 
Q 43.21875 41.609375 39.140625 45 
Q 35.0625 48.390625 27.6875 48.390625 
Q 23 48.390625 18.546875 47.265625 
Q 14.109375 46.140625 10.015625 43.890625 
L 10.015625 52.203125 
Q 14.9375 54.109375 19.578125 55.046875 
Q 24.21875 56 28.609375 56 
Q 40.484375 56 46.34375 49.84375 
Q 52.203125 43.703125 52.203125 31.203125 
z
" id="DejaVuSans-97"/>
      <path d="M 9.421875 75.984375 
L 18.40625 75.984375 
L 18.40625 0 
L 9.421875 0 
z
" id="DejaVuSans-108"/>
      <path d="M 45.40625 46.390625 
L 45.40625 75.984375 
L 54.390625 75.984375 
L 54.390625 0 
L 45.40625 0 
L 45.40625 8.203125 
Q 42.578125 3.328125 38.25 0.953125 
Q 33.9375 -1.421875 27.875 -1.421875 
Q 17.96875 -1.421875 11.734375 6.484375 
Q 5.515625 14.40625 5.515625 27.296875 
Q 5.515625 40.1875 11.734375 48.09375 
Q 17.96875 56 27.875 56 
Q 33.9375 56 38.25 53.625 
Q 42.578125 51.265625 45.40625 46.390625 
z
M 14.796875 27.296875 
Q 14.796875 17.390625 18.875 11.75 
Q 22.953125 6.109375 30.078125 6.109375 
Q 37.203125 6.109375 41.296875 11.75 
Q 45.40625 17.390625 45.40625 27.296875 
Q 45.40625 37.203125 41.296875 42.84375 
Q 37.203125 48.484375 30.078125 48.484375 
Q 22.953125 48.484375 18.875 42.84375 
Q 14.796875 37.203125 14.796875 27.296875 
z
" id="DejaVuSans-100"/>
      <path d="M 9.421875 54.6875 
L 18.40625 54.6875 
L 18.40625 0 
L 9.421875 0 
z
M 9.421875 75.984375 
L 18.40625 75.984375 
L 18.40625 64.59375 
L 9.421875 64.59375 
z
" id="DejaVuSans-105"/>
     </defs>
     <g transform="translate(14.798438 187.915469)rotate(-90)scale(0.1 -0.1)">
      <use xlink:href="#DejaVuSans-80"/>
      <use x="60.255859" xlink:href="#DejaVuSans-111"/>
      <use x="121.4375" xlink:href="#DejaVuSans-119"/>
      <use x="203.224609" xlink:href="#DejaVuSans-101"/>
      <use x="264.748047" xlink:href="#DejaVuSans-114"/>
      <use x="305.861328" xlink:href="#DejaVuSans-32"/>
      <use x="337.648438" xlink:href="#DejaVuSans-115"/>
      <use x="389.748047" xlink:href="#DejaVuSans-112"/>
      <use x="453.224609" xlink:href="#DejaVuSans-101"/>
      <use x="514.748047" xlink:href="#DejaVuSans-99"/>
      <use x="569.728516" xlink:href="#DejaVuSans-116"/>
      <use x="608.9375" xlink:href="#DejaVuSans-114"/>
      <use x="650.050781" xlink:href="#DejaVuSans-97"/>
      <use x="711.330078" xlink:href="#DejaVuSans-108"/>
      <use x="739.113281" xlink:href="#DejaVuSans-32"/>
      <use x="770.900391" xlink:href="#DejaVuSans-100"/>
      <use x="834.376953" xlink:href="#DejaVuSans-101"/>
      <use x="895.900391" xlink:href="#DejaVuSans-110"/>
      <use x="959.279297" xlink:href="#DejaVuSans-115"/>
      <use x="1011.378906" xlink:href="#DejaVuSans-105"/>
      <use x="1039.162109" xlink:href="#DejaVuSans-116"/>
      <use x="1078.371094" xlink:href="#DejaVuSans-121"/>
     </g>
    </g>
   </g>
   <g id="line2d_16">
    <path clip-path="url(#p1629f7161b)" d="M 68.546307 229.874489 
L 68.575463 227.847066 
L 68.662932 228.411836 
L 68.750402 229.820235 
L 68.808714 227.121612 
L 68.867027 229.124153 
L 68.896184 229.555031 
L 69.071122 208.141236 
L 69.129435 32.201761 
L 69.187748 167.544195 
L 69.216904 228.74882 
L 69.304373 213.03931 
L 69.33353 227.796209 
L 69.362686 212.030081 
L 69.420999 155.601502 
L 69.450155 210.323204 
L 69.508468 228.198506 
L 69.566781 176.36453 
L 69.595937 204.027874 
L 69.65425 223.505859 
L 69.683406 185.957826 
L 69.712563 225.949065 
L 69.741719 202.956836 
L 69.770876 229.130165 
L 69.829188 218.979722 
L 69.858345 157.795137 
L 69.916658 225.961829 
L 69.945814 228.742901 
L 70.06244 196.722346 
L 70.091596 225.742072 
L 70.120752 218.220887 
L 70.208221 132.639332 
L 70.266534 140.321795 
L 70.295691 144.484994 
L 70.412316 222.04323 
L 70.499785 229.270187 
L 70.528942 173.381384 
L 70.558098 227.078031 
L 70.616411 203.653971 
L 70.674724 87.625166 
L 70.70388 118.238769 
L 70.733037 224.077475 
L 70.820506 213.460978 
L 70.849662 150.064786 
L 70.878819 224.609317 
L 70.907975 219.239214 
L 70.966288 225.308409 
L 70.995444 223.715658 
L 71.082913 163.051532 
L 71.053757 225.952644 
L 71.11207 183.329642 
L 71.170383 225.887494 
L 71.228695 217.347223 
L 71.257852 212.726174 
L 71.316165 229.818355 
L 71.345321 182.806555 
L 71.403634 223.184873 
L 71.461947 215.176437 
L 71.520259 173.309651 
L 71.549416 218.92023 
L 71.636885 224.410567 
L 71.695198 79.60416 
L 71.811823 229.110262 
L 71.870136 226.620128 
L 71.957605 171.997818 
L 72.015918 184.041253 
L 72.132544 223.441539 
L 72.1617 107.68006 
L 72.220013 177.307121 
L 72.278326 226.757061 
L 72.336639 226.100489 
L 72.365795 225.66948 
L 72.511577 181.203926 
L 72.540733 223.398586 
L 72.628203 221.201584 
L 72.715672 221.786556 
L 72.803141 121.554522 
L 72.832297 222.625991 
L 72.919766 209.302505 
L 72.978079 165.14938 
L 73.007236 219.139109 
L 73.036392 176.71809 
L 73.094705 227.30159 
L 73.153018 219.703092 
L 73.182174 210.205352 
L 73.21133 229.254663 
L 73.240487 139.370872 
L 73.2988 192.538112 
L 73.327956 219.963497 
L 73.415425 215.709273 
L 73.561207 169.870231 
L 73.473738 221.443162 
L 73.61952 174.556974 
L 73.765302 226.432841 
L 73.823615 208.343046 
L 73.881928 209.229822 
L 73.998553 228.973692 
L 74.086022 188.760173 
L 74.144335 190.157056 
L 74.202648 126.212666 
L 74.319274 227.473748 
L 74.34843 228.368359 
L 74.465056 147.765842 
L 74.494212 210.785494 
L 74.639994 227.66636 
L 74.75662 180.992879 
L 74.844089 224.217014 
L 74.873245 176.805427 
L 74.931558 227.420294 
L 75.019027 192.150624 
L 75.048184 212.009377 
L 75.07734 222.167242 
L 75.106496 201.724148 
L 75.135653 183.707271 
L 75.164809 210.395829 
L 75.223122 218.571794 
L 75.252278 211.237112 
L 75.310591 177.429602 
L 75.339747 222.500277 
L 75.427217 227.701477 
L 75.485529 198.004644 
L 75.572999 229.154166 
L 75.602155 224.686512 
L 75.689624 226.667595 
L 75.864563 186.57204 
L 75.922875 229.078799 
L 76.010345 224.204713 
L 76.068657 176.277896 
L 76.097814 226.767888 
L 76.12697 228.824125 
L 76.156127 228.657982 
L 76.331065 194.00265 
L 76.389378 222.950083 
L 76.418534 177.232546 
L 76.447691 210.983426 
L 76.53516 225.826214 
L 76.622629 208.09298 
L 76.593473 227.796359 
L 76.651785 213.242147 
L 76.680942 212.382296 
L 76.710098 229.597676 
L 76.797567 229.381415 
L 76.885037 223.420921 
L 76.914193 191.307122 
L 76.972506 220.113511 
L 77.001662 218.106716 
L 77.030819 228.192574 
L 77.059975 227.648486 
L 77.205757 197.915662 
L 77.26407 228.462306 
L 77.322383 206.625684 
L 77.409852 229.347983 
L 77.439008 203.883803 
L 77.526477 220.308688 
L 77.555634 229.846259 
L 77.613947 213.302288 
L 77.730572 226.738024 
L 77.759729 225.018036 
L 77.788885 227.426812 
L 77.847198 223.270653 
L 77.876354 207.743271 
L 77.934667 227.811427 
L 77.963823 228.512078 
L 78.022136 218.042415 
L 78.051292 229.819373 
L 78.080449 223.159652 
L 78.109605 229.748717 
L 78.167918 217.868281 
L 78.197074 227.796662 
L 78.342856 197.335076 
L 78.372013 228.573128 
L 78.459482 224.592107 
L 78.488638 227.860615 
L 78.517795 221.129527 
L 78.546951 204.684186 
L 78.63442 212.881703 
L 78.751046 229.179243 
L 78.780202 228.538145 
L 78.838515 220.976147 
L 78.896828 202.513064 
L 78.925984 229.050514 
L 78.955141 225.987233 
L 78.984297 229.686715 
L 79.04261 228.362258 
L 79.071766 229.145485 
L 79.188392 206.93005 
L 79.217548 207.700118 
L 79.334174 227.795016 
L 79.392487 229.455698 
L 79.4508 184.575855 
L 79.479956 202.983981 
L 79.509112 228.759867 
L 79.596582 221.756936 
L 79.625738 218.945281 
L 79.684051 227.894919 
L 79.713207 226.401649 
L 79.742364 207.354185 
L 79.800676 227.157439 
L 79.829833 228.648255 
L 79.858989 227.175381 
L 79.888146 212.667839 
L 79.946458 224.260063 
L 79.975615 224.432474 
L 80.004771 227.269304 
L 80.033928 214.528378 
L 80.121397 217.37178 
L 80.17971 229.10717 
L 80.238022 228.675769 
L 80.296335 206.173682 
L 80.354648 224.034025 
L 80.383804 229.561056 
L 80.412961 226.406763 
L 80.442117 217.473485 
L 80.50043 227.358649 
L 80.558743 226.430797 
L 80.617055 228.887297 
L 80.762837 221.852347 
L 80.791994 227.282455 
L 80.82115 224.043411 
L 80.850307 212.838295 
L 80.937776 218.974181 
L 81.025245 218.444243 
L 81.083558 229.439763 
L 81.141871 224.639476 
L 81.171027 226.571122 
L 81.22934 229.545089 
L 81.287653 228.559538 
L 81.316809 220.277206 
L 81.404278 226.62422 
L 81.491747 215.291231 
L 81.462591 228.401149 
L 81.520904 224.725287 
L 81.637529 229.594075 
L 81.579217 224.182542 
L 81.666686 228.110126 
L 81.724999 213.243384 
L 81.783311 224.432681 
L 81.841624 219.875999 
L 81.870781 220.737667 
L 81.899937 227.811959 
L 81.987406 227.767379 
L 82.016563 228.696876 
L 82.045719 227.654159 
L 82.074875 226.190129 
L 82.133188 228.052018 
L 82.191501 229.660043 
L 82.249814 229.159018 
L 82.395596 217.913157 
L 82.453909 228.321539 
L 82.541378 227.434905 
L 82.599691 224.715411 
L 82.628847 225.668661 
L 82.68716 228.922786 
L 82.716316 228.807648 
L 82.832942 215.773089 
L 82.862098 220.411394 
L 82.891255 228.963139 
L 82.978724 227.661746 
L 83.00788 229.631606 
L 83.037037 224.394382 
L 83.066193 218.604106 
L 83.124506 226.574359 
L 83.211975 229.667124 
L 83.241131 229.485965 
L 83.299444 226.740902 
L 83.3286 228.678933 
L 83.357757 229.369908 
L 83.386913 225.718109 
L 83.474382 228.640731 
L 83.503539 227.956204 
L 83.561852 229.054717 
L 83.620164 222.849396 
L 83.678477 229.62449 
L 83.765946 227.766135 
L 83.795103 227.81388 
L 83.824259 220.456319 
L 83.882572 221.097859 
L 83.911728 229.859653 
L 83.940885 209.017331 
L 83.999198 228.918013 
L 84.14498 227.673145 
L 84.174136 228.297385 
L 84.203292 226.505314 
L 84.232449 229.783819 
L 84.261605 229.126067 
L 84.290762 229.618657 
L 84.319918 228.937991 
L 84.349074 228.997339 
L 84.436544 224.637556 
L 84.4657 229.395609 
L 84.524013 222.062712 
L 84.582326 229.086787 
L 84.698951 228.840795 
L 84.728108 229.435463 
L 84.757264 228.567662 
L 84.78642 227.896838 
L 84.815577 229.537998 
L 84.932202 223.086145 
L 85.019672 228.245748 
L 85.048828 227.874104 
L 85.165454 223.546509 
L 85.136297 228.687077 
L 85.19461 225.18254 
L 85.252923 229.83588 
L 85.311236 229.656578 
L 85.398705 222.794537 
L 85.51533 229.48085 
L 85.544487 229.458865 
L 85.6028 229.783647 
L 85.661112 228.09113 
L 85.690269 229.369247 
L 85.719425 225.200286 
L 85.777738 229.736099 
L 85.806894 228.529822 
L 85.865207 227.111199 
L 85.894363 229.698258 
L 85.952676 225.228179 
L 86.040145 214.78495 
L 86.010989 228.882245 
L 86.069302 224.381338 
L 86.24424 229.71165 
L 86.273397 224.842913 
L 86.331709 229.292462 
L 86.390022 229.570447 
L 86.506648 225.948312 
L 86.564961 224.65301 
L 86.623273 228.444909 
L 86.65243 228.395359 
L 86.681586 229.771018 
L 86.769055 228.842142 
L 86.798212 229.280255 
L 86.827368 228.580203 
L 86.856525 228.131444 
L 86.914837 229.679346 
L 86.943994 229.617798 
L 87.060619 215.90491 
L 87.089776 225.560283 
L 87.148089 228.942931 
L 87.206401 228.869727 
L 87.235558 226.813321 
L 87.264714 228.957325 
L 87.323027 227.651269 
L 87.410496 229.357589 
L 87.468809 226.335367 
L 87.497965 229.122017 
L 87.527122 229.65402 
L 87.585435 229.630263 
L 87.672904 225.346758 
L 87.731217 226.894321 
L 87.789529 229.75878 
L 87.818686 229.597833 
L 87.876999 225.740232 
L 87.935311 228.576013 
L 87.993624 229.492067 
L 88.022781 227.328063 
L 88.11025 228.625292 
L 88.139406 229.138927 
L 88.168563 228.986394 
L 88.256032 229.34902 
L 88.285188 225.096908 
L 88.343501 229.108514 
L 88.43097 228.91885 
L 88.460126 228.503959 
L 88.518439 229.7738 
L 88.576752 224.941461 
L 88.664221 229.580508 
L 88.722534 228.342827 
L 88.780847 227.918808 
L 88.810003 229.688931 
L 88.83916 226.741732 
L 88.897472 227.717547 
L 88.984942 229.510451 
L 89.014098 227.197493 
L 89.072411 228.746769 
L 89.101567 229.410464 
L 89.130724 228.963793 
L 89.15988 226.347135 
L 89.218193 229.49707 
L 89.247349 228.283934 
L 89.276506 229.55607 
L 89.334818 227.413926 
L 89.363975 228.813438 
L 89.393131 225.469929 
L 89.451444 229.226924 
L 89.4806 229.134346 
L 89.597226 223.41749 
L 89.538913 229.436354 
L 89.626382 224.794604 
L 89.743008 229.684848 
L 89.801321 228.621504 
L 89.859634 229.170562 
L 89.917946 229.843067 
L 89.947103 229.630083 
L 90.005416 226.817013 
L 90.034572 228.078521 
L 90.063728 229.634022 
L 90.092885 225.955748 
L 90.122041 227.567335 
L 90.151198 227.885153 
L 90.180354 225.452334 
L 90.238667 229.792535 
L 90.326136 227.453684 
L 90.355292 229.13628 
L 90.413605 229.79487 
L 90.501074 226.245885 
L 90.530231 228.277522 
L 90.559387 229.272686 
L 90.6177 227.55056 
L 90.646856 225.179121 
L 90.676013 229.000697 
L 90.705169 228.763132 
L 90.792638 223.662169 
L 90.763482 228.939324 
L 90.821795 227.953295 
L 90.850951 227.824481 
L 90.996733 229.575653 
L 91.02589 228.793443 
L 91.055046 229.83168 
L 91.113359 229.340153 
L 91.171671 228.859261 
L 91.229984 229.663446 
L 91.317453 225.279337 
L 91.404923 229.713209 
L 91.463235 229.70809 
L 91.521548 229.034074 
L 91.550705 229.229548 
L 91.609017 229.864344 
L 91.638174 229.25048 
L 91.725643 229.65209 
L 91.754799 227.883273 
L 91.783956 229.353438 
L 91.813112 227.952058 
L 91.842269 225.937446 
L 91.871425 228.221867 
L 91.900581 227.321383 
L 91.929738 229.178419 
L 91.988051 228.725116 
L 92.017207 226.019877 
L 92.104676 228.003847 
L 92.192145 229.810059 
L 92.221302 229.757435 
L 92.279615 227.412961 
L 92.308771 229.825636 
L 92.39624 229.471217 
L 92.425397 229.69136 
L 92.454553 229.582574 
L 92.483709 229.76926 
L 92.629491 226.161803 
L 92.658648 228.942715 
L 92.687804 227.298347 
L 92.716961 222.499554 
L 92.775273 229.734055 
L 92.80443 229.835057 
L 92.891899 226.353771 
L 92.950212 228.352699 
L 92.979368 229.026679 
L 93.037681 228.634585 
L 93.066837 228.389427 
L 93.12515 229.70289 
L 93.212619 229.575097 
L 93.270932 229.703 
L 93.300089 228.742449 
L 93.416714 229.831125 
L 93.591653 222.157388 
L 93.679122 229.593202 
L 93.708278 229.168435 
L 93.824904 226.918003 
L 93.883216 229.29887 
L 93.912373 228.512012 
L 93.941529 226.901802 
L 93.999842 227.469974 
L 94.028998 229.40127 
L 94.116468 229.316753 
L 94.145624 229.559864 
L 94.17478 228.130305 
L 94.203937 229.571417 
L 94.233093 229.323444 
L 94.26225 229.534122 
L 94.291406 228.016679 
L 94.320562 229.72164 
L 94.349719 228.036622 
L 94.437188 227.148255 
L 94.466344 229.505308 
L 94.495501 229.090001 
L 94.58297 226.921847 
L 94.699596 229.526332 
L 94.728752 227.444094 
L 94.787065 229.282875 
L 94.845378 229.190636 
L 94.874534 227.562484 
L 94.932847 229.785731 
L 94.962003 229.580257 
L 95.020316 229.665593 
L 95.049472 227.431705 
L 95.107785 229.649664 
L 95.166098 229.640733 
L 95.224411 228.055756 
L 95.253567 229.814046 
L 95.282724 228.099388 
L 95.31188 227.980154 
L 95.341036 229.805073 
L 95.370193 227.719906 
L 95.399349 228.696556 
L 95.457662 229.245172 
L 95.515975 227.436037 
L 95.603444 229.607964 
L 95.6326 228.927528 
L 95.661757 227.266548 
L 95.690913 229.757311 
L 95.72007 229.090042 
L 95.778382 229.540988 
L 95.836695 229.308804 
L 95.865852 227.342446 
L 95.924164 227.618772 
L 95.953321 229.39792 
L 96.04079 229.394962 
L 96.069946 227.038304 
L 96.128259 229.186123 
L 96.157416 229.153678 
L 96.244885 228.09723 
L 96.274041 228.260875 
L 96.332354 229.74482 
L 96.36151 227.891184 
L 96.390667 229.529843 
L 96.419823 228.487679 
L 96.507292 229.331866 
L 96.565605 229.703954 
L 96.594761 228.553641 
L 96.653074 229.286895 
L 96.711387 229.724595 
L 96.7697 228.80734 
L 96.828013 229.223203 
L 96.857169 229.843891 
L 96.886325 228.349713 
L 96.915482 229.293913 
L 96.944638 226.017142 
L 97.032107 227.551512 
L 97.061264 229.709156 
L 97.119577 226.230225 
L 97.207046 229.67816 
L 97.294515 229.655267 
L 97.323671 229.789668 
L 97.352828 229.612294 
L 97.381984 229.533435 
L 97.411141 229.002234 
L 97.440297 229.716609 
L 97.469453 229.219803 
L 97.586079 229.619689 
L 97.615235 229.54077 
L 97.673548 229.869988 
L 97.731861 227.589406 
L 97.790174 229.873521 
L 97.848487 229.363319 
L 97.906799 221.268916 
L 97.965112 228.409626 
L 97.994269 229.616166 
L 98.023425 227.411158 
L 98.081738 228.936406 
L 98.169207 229.777221 
L 98.285833 228.453875 
L 98.344145 227.570458 
L 98.431615 229.829759 
L 98.54824 228.728092 
L 98.577397 228.264849 
L 98.606553 228.816639 
L 98.664866 229.681622 
L 98.723179 229.569622 
L 98.752335 229.034789 
L 98.810648 229.857151 
L 98.839804 229.309566 
L 98.868961 229.744593 
L 98.898117 229.359024 
L 98.927273 228.200698 
L 98.95643 229.799096 
L 99.014742 228.67648 
L 99.073055 229.41454 
L 99.102212 228.277701 
L 99.131368 226.870616 
L 99.160524 229.101271 
L 99.218837 229.739402 
L 99.247994 229.305822 
L 99.27715 228.850903 
L 99.335463 229.535233 
L 99.364619 229.804439 
L 99.452088 227.750833 
L 99.481245 229.20463 
L 99.510401 229.79938 
L 99.539558 228.699599 
L 99.568714 227.072565 
L 99.627027 229.657635 
L 99.68534 229.501266 
L 99.714496 228.308753 
L 99.772809 229.347771 
L 99.831122 229.249481 
L 99.860278 229.630741 
L 99.889434 228.792347 
L 99.976904 229.241997 
L 100.00606 229.869052 
L 100.064373 229.50995 
L 100.093529 229.298345 
L 100.122686 229.360166 
L 100.151842 227.685657 
L 100.210155 229.41279 
L 100.239311 229.582115 
L 100.268468 229.549204 
L 100.41425 226.509506 
L 100.472562 229.736687 
L 100.530875 227.856777 
L 100.647501 229.021872 
L 100.676657 228.569665 
L 100.73497 227.942322 
L 100.764126 229.499333 
L 100.822439 228.931752 
L 100.968221 225.65457 
L 101.05569 229.774616 
L 101.084847 229.245032 
L 101.259785 227.152469 
L 101.318098 229.507507 
L 101.376411 229.128274 
L 101.434724 229.809171 
L 101.493036 229.257947 
L 101.522193 227.681945 
L 101.609662 227.775142 
L 101.638818 229.648607 
L 101.726287 229.148114 
L 101.755444 226.802012 
L 101.842913 228.256512 
L 101.872069 228.221064 
L 101.901226 227.748774 
L 102.017851 229.818334 
L 102.134477 227.294372 
L 102.163633 229.204324 
L 102.251103 228.677447 
L 102.280259 226.725197 
L 102.338572 229.517106 
L 102.367728 229.105237 
L 102.426041 229.760634 
L 102.484354 229.676555 
L 102.571823 228.206033 
L 102.600979 228.228221 
L 102.717605 229.756629 
L 102.775918 228.128743 
L 102.834231 229.000703 
L 102.863387 228.908991 
L 102.9217 229.584102 
L 102.980013 227.550427 
L 103.009169 229.811344 
L 103.125795 227.677187 
L 103.154951 229.055621 
L 103.184107 224.883277 
L 103.24242 228.095315 
L 103.329889 229.450888 
L 103.359046 228.631914 
L 103.388202 227.360673 
L 103.417359 229.371163 
L 103.446515 228.859365 
L 103.504828 229.648704 
L 103.563141 229.317962 
L 103.621453 227.592967 
L 103.65061 229.157869 
L 103.679766 229.398304 
L 103.708923 229.026603 
L 103.767235 229.279066 
L 103.796392 229.187228 
L 103.825548 229.398458 
L 103.854705 229.858966 
L 103.883861 229.236357 
L 103.942174 228.362575 
L 103.97133 228.421264 
L 104.117112 229.83073 
L 104.204581 228.94543 
L 104.262894 226.221755 
L 104.321207 227.709819 
L 104.350363 229.701711 
L 104.437832 228.432035 
L 104.466989 229.021943 
L 104.583614 226.546424 
L 104.729396 229.860731 
L 104.787709 229.290671 
L 104.816866 229.724907 
L 104.846022 229.832583 
L 104.904335 228.694632 
L 104.933491 229.831312 
L 104.991804 229.860046 
L 105.02096 229.673519 
L 105.050117 229.755231 
L 105.079273 227.475824 
L 105.166742 229.271308 
L 105.225055 227.410845 
L 105.283368 227.70487 
L 105.42915 229.706032 
L 105.516619 229.862681 
L 105.604088 227.904906 
L 105.633245 228.486428 
L 105.74987 229.780356 
L 105.779027 228.068955 
L 105.866496 229.210708 
L 105.924809 228.980977 
L 105.953965 229.010232 
L 106.012278 228.502426 
L 106.041434 229.534281 
L 106.099747 228.141338 
L 106.15806 229.094745 
L 106.245529 229.775418 
L 106.332998 229.651642 
L 106.391311 228.258465 
L 106.47878 229.082034 
L 106.507937 229.768588 
L 106.537093 228.286893 
L 106.595406 226.337294 
L 106.682875 227.490458 
L 106.770344 229.844182 
L 106.828657 228.881656 
L 106.916126 229.71786 
L 106.945283 229.499764 
L 107.091065 226.867406 
L 107.178534 229.51846 
L 107.236847 228.923045 
L 107.382629 229.838663 
L 107.499254 229.244684 
L 107.528411 229.388366 
L 107.557567 229.790283 
L 107.586723 229.329661 
L 107.645036 229.771427 
L 107.761662 228.66511 
L 107.790818 229.846732 
L 107.819975 227.821958 
L 107.878287 229.175607 
L 107.907444 229.568649 
L 107.9366 229.0406 
L 107.965757 229.462038 
L 107.994913 228.705192 
L 108.053226 229.710606 
L 108.082382 229.722537 
L 108.169851 229.743091 
L 108.257321 227.888249 
L 108.373946 229.61243 
L 108.403103 228.747137 
L 108.432259 227.36313 
L 108.490572 229.657924 
L 108.578041 229.855419 
L 108.66551 229.310839 
L 108.752979 229.850737 
L 108.782136 229.841296 
L 108.840449 229.780667 
L 108.986231 228.116485 
L 109.132013 229.863733 
L 109.161169 229.802948 
L 109.190325 229.14494 
L 109.277795 229.448042 
L 109.306951 229.872229 
L 109.365264 229.381076 
L 109.452733 229.682416 
L 109.511046 229.788216 
L 109.569358 228.860284 
L 109.685984 229.873275 
L 109.860922 227.358849 
L 109.890079 227.163186 
L 110.006704 229.798036 
L 110.065017 229.540654 
L 110.181643 229.038034 
L 110.210799 229.078511 
L 110.239956 229.15322 
L 110.269112 229.046877 
L 110.298268 228.557845 
L 110.327425 229.70022 
L 110.473207 228.725549 
L 110.502363 229.803722 
L 110.589832 229.653035 
L 110.648145 227.787456 
L 110.706458 229.033571 
L 110.735614 228.747763 
L 110.764771 229.415045 
L 110.793927 229.282244 
L 110.85224 227.590387 
L 110.910553 229.045166 
L 110.998022 229.214314 
L 111.027178 229.467191 
L 111.056335 228.231967 
L 111.085491 229.697659 
L 111.114648 229.476434 
L 111.143804 229.397218 
L 111.17296 229.534859 
L 111.202117 229.480769 
L 111.289586 229.664967 
L 111.318742 227.945652 
L 111.435368 229.789519 
L 111.493681 229.676937 
L 111.522837 229.542363 
L 111.551994 229.777891 
L 111.58115 229.58669 
L 111.610306 228.237593 
L 111.697776 229.178419 
L 111.726932 229.139221 
L 111.756088 229.80309 
L 111.843558 229.451072 
L 111.872714 229.501865 
L 111.931027 229.411457 
L 111.98934 229.074301 
L 112.018496 229.700077 
L 112.076809 229.192251 
L 112.135121 228.828408 
L 112.280903 226.643199 
L 112.397529 229.863316 
L 112.484998 228.953443 
L 112.572467 229.494994 
L 112.601624 229.718519 
L 112.63078 229.337234 
L 112.659937 229.376625 
L 112.805719 226.720894 
L 112.893188 229.005755 
L 112.864031 225.107388 
L 112.922344 227.230144 
L 112.951501 227.020086 
L 113.097283 229.849474 
L 113.155595 228.874649 
L 113.243065 229.378622 
L 113.272221 229.754593 
L 113.301377 229.732906 
L 113.330534 228.175842 
L 113.35969 229.7778 
L 113.388847 229.489971 
L 113.418003 229.732738 
L 113.476316 229.541516 
L 113.534629 228.751673 
L 113.563785 229.640667 
L 113.592941 229.678391 
L 113.622098 229.562037 
L 113.680411 229.597605 
L 113.709567 228.091653 
L 113.76788 229.847131 
L 113.826193 229.588853 
L 113.884505 229.784433 
L 113.913662 229.041099 
L 114.001131 229.296185 
L 114.030287 229.306378 
L 114.146913 228.227337 
L 114.263539 229.765155 
L 114.292695 229.678672 
L 114.321851 228.769137 
L 114.351008 229.821468 
L 114.409321 229.407353 
L 114.438477 229.698767 
L 114.49679 228.237692 
L 114.525946 229.761998 
L 114.555103 228.500946 
L 114.584259 229.815675 
L 114.671728 229.712516 
L 114.700884 229.747944 
L 114.788354 228.774352 
L 114.846666 229.135928 
L 114.934136 229.589983 
L 114.963292 229.113879 
L 115.021605 229.268628 
L 115.050761 229.855756 
L 115.079918 225.711537 
L 115.167387 226.123259 
L 115.313169 229.24485 
L 115.371482 228.914001 
L 115.400638 228.490788 
L 115.429794 229.289067 
L 115.458951 229.124764 
L 115.488107 229.139263 
L 115.517264 229.705625 
L 115.575576 229.675308 
L 115.663046 227.354294 
L 115.692202 229.042048 
L 115.750515 229.6847 
L 115.808828 229.484104 
L 115.86714 229.621348 
L 115.925453 229.543351 
L 115.95461 229.824413 
L 116.100392 229.067223 
L 116.246174 229.843593 
L 116.27533 229.834733 
L 116.304486 229.84847 
L 116.333643 229.772855 
L 116.362799 229.401868 
L 116.421112 229.823136 
L 116.450268 229.701348 
L 116.479425 229.794594 
L 116.508581 229.605242 
L 116.59605 227.856734 
L 116.654363 228.53495 
L 116.741832 229.832968 
L 116.770989 229.283991 
L 116.829302 228.91323 
L 116.858458 229.264986 
L 116.887614 227.778093 
L 116.916771 229.439042 
L 116.945927 229.003257 
L 117.00424 229.639124 
L 117.062553 229.531554 
L 117.091709 229.025331 
L 117.120866 229.634432 
L 117.150022 229.349587 
L 117.179178 229.759186 
L 117.208335 229.294247 
L 117.266647 229.656674 
L 117.354117 229.221546 
L 117.383273 229.769785 
L 117.412429 228.874815 
L 117.441586 229.225969 
L 117.470742 229.276023 
L 117.499899 229.7992 
L 117.558211 229.194644 
L 117.587368 229.018882 
L 117.645681 229.868443 
L 117.703993 229.685168 
L 117.762306 229.543337 
L 117.820619 229.827619 
L 117.878932 229.870332 
L 118.024714 228.87845 
L 118.05387 229.80523 
L 118.141339 229.714628 
L 118.199652 229.833501 
L 118.257965 229.045782 
L 118.287121 229.649223 
L 118.316278 229.863329 
L 118.374591 229.608795 
L 118.46206 229.691391 
L 118.520373 229.85563 
L 118.549529 229.688933 
L 118.607842 228.798046 
L 118.666155 229.35295 
L 118.811937 229.858959 
L 118.928562 229.022482 
L 118.986875 229.8005 
L 119.016031 229.286228 
L 119.045188 228.944913 
L 119.074344 229.676371 
L 119.103501 229.829437 
L 119.132657 229.518078 
L 119.161813 229.540665 
L 119.19097 229.718147 
L 119.220126 229.267774 
L 119.249283 228.122269 
L 119.307595 229.611889 
L 119.453377 229.851031 
L 119.482534 228.999081 
L 119.570003 229.53473 
L 119.715785 227.327489 
L 119.832411 229.862299 
L 120.007349 228.121501 
L 120.153131 229.824223 
L 120.182287 229.865496 
L 120.298913 229.148332 
L 120.328069 229.825177 
L 120.357226 227.91284 
L 120.415538 229.591244 
L 120.444695 229.49231 
L 120.473851 228.547454 
L 120.503008 229.767614 
L 120.532164 229.46837 
L 120.619633 229.866607 
L 120.677946 229.082135 
L 120.736259 229.567127 
L 120.765415 229.615534 
L 120.794572 229.243497 
L 120.852884 229.795154 
L 120.882041 229.293976 
L 120.940354 229.845458 
L 120.96951 229.276899 
L 120.998666 229.723354 
L 121.027823 228.864663 
L 121.115292 229.539647 
L 121.173605 229.813861 
L 121.231918 227.641748 
L 121.261074 226.444941 
L 121.319387 228.154848 
L 121.348543 229.847867 
L 121.436012 229.721646 
L 121.465169 229.705055 
L 121.523482 229.852282 
L 121.552638 229.688524 
L 121.669264 228.484621 
L 121.69842 229.681488 
L 121.785889 229.595527 
L 121.815046 227.559527 
L 121.873358 228.668651 
L 121.902515 229.686255 
L 121.989984 229.628875 
L 122.01914 229.570697 
L 122.048297 229.774225 
L 122.077453 229.669435 
L 122.135766 228.750472 
L 122.223235 229.106614 
L 122.252392 229.860175 
L 122.310704 229.018498 
L 122.339861 228.740546 
L 122.369017 229.604295 
L 122.398174 228.332977 
L 122.42733 229.395597 
L 122.485643 228.113085 
L 122.514799 229.532829 
L 122.543955 229.131029 
L 122.573112 228.821742 
L 122.602268 229.301782 
L 122.631425 229.8128 
L 122.689737 229.352359 
L 122.74805 226.934165 
L 122.864676 227.85298 
L 122.922989 229.751423 
L 123.097927 229.66772 
L 123.127083 229.414526 
L 123.185396 229.574885 
L 123.272865 229.864793 
L 123.302022 229.140249 
L 123.389491 229.618486 
L 123.418647 229.763904 
L 123.47696 229.036724 
L 123.535273 229.125934 
L 123.622742 229.840679 
L 123.681055 229.683301 
L 123.710211 228.941602 
L 123.797681 229.0748 
L 123.914306 229.726227 
L 123.943463 227.952687 
L 124.030932 229.061868 
L 124.176714 229.850766 
L 124.264183 229.874229 
L 124.293339 228.86353 
L 124.409965 229.873892 
L 124.439121 229.525553 
L 124.468278 229.775124 
L 124.497434 229.248438 
L 124.526591 228.839966 
L 124.584903 229.181157 
L 124.672373 229.492226 
L 124.701529 229.286711 
L 124.876467 229.823543 
L 124.905624 229.399638 
L 124.963937 229.483167 
L 124.993093 229.858695 
L 125.080562 229.599596 
L 125.197188 226.870168 
L 125.226344 227.035359 
L 125.313813 229.809406 
L 125.372126 229.693746 
L 125.517908 227.377842 
L 125.547064 229.627509 
L 125.634534 229.344112 
L 125.722003 229.762481 
L 125.751159 229.463626 
L 125.809472 229.151915 
L 125.838628 229.87412 
L 125.926098 229.772751 
L 125.955254 229.795524 
L 126.042723 229.839081 
L 126.101036 228.11338 
L 126.217662 229.634695 
L 126.246818 229.486 
L 126.275974 229.771717 
L 126.334287 229.649417 
L 126.3926 227.979419 
L 126.450913 229.497846 
L 126.480069 229.464719 
L 126.509226 229.832754 
L 126.538382 229.655206 
L 126.625851 228.125342 
L 126.655008 229.492773 
L 126.71332 229.138349 
L 126.771633 229.851109 
L 126.829946 228.821778 
L 126.859102 229.585552 
L 126.888259 229.822018 
L 126.917415 228.804563 
L 126.975728 229.490891 
L 127.092354 229.84414 
L 127.063197 229.423699 
L 127.12151 229.759444 
L 127.150666 229.839589 
L 127.179823 229.692476 
L 127.296448 228.42592 
L 127.325605 228.746017 
L 127.354761 229.811474 
L 127.413074 229.70003 
L 127.5297 226.960001 
L 127.558856 228.355885 
L 127.588012 228.337008 
L 127.617169 228.143684 
L 127.646325 226.756733 
L 127.675482 228.620084 
L 127.821263 229.693631 
L 127.908733 229.790108 
L 128.025358 229.015853 
L 128.112827 229.72689 
L 128.141984 229.504192 
L 128.229453 229.407996 
L 128.258609 229.738721 
L 128.404391 228.48895 
L 128.433548 228.507422 
L 128.550173 229.848139 
L 128.57933 229.844849 
L 128.608486 229.676741 
L 128.695955 228.26487 
L 128.725112 229.199154 
L 128.783425 228.737083 
L 128.90005 229.849149 
L 128.929207 229.022211 
L 128.987519 229.270178 
L 129.045832 228.595399 
L 129.074989 229.704838 
L 129.104145 228.375975 
L 129.162458 229.710774 
L 129.220771 229.101847 
L 129.249927 229.525962 
L 129.279083 229.749608 
L 129.337396 229.667518 
L 129.424865 228.88652 
L 129.395709 229.769689 
L 129.454022 229.441817 
L 129.483178 229.532189 
L 129.512335 228.399868 
L 129.570647 229.512503 
L 129.599804 229.749973 
L 129.62896 229.409968 
L 129.658117 229.181564 
L 129.687273 229.311554 
L 129.716429 229.723936 
L 129.774742 229.276089 
L 129.803899 228.421146 
L 129.833055 229.647315 
L 129.862211 228.846874 
L 129.891368 229.663076 
L 129.949681 228.447069 
L 129.978837 229.309235 
L 130.007993 229.433716 
L 130.095463 227.026654 
L 130.153775 228.56868 
L 130.182932 228.569111 
L 130.212088 227.839536 
L 130.241245 228.264568 
L 130.299557 229.416025 
L 130.35787 229.224304 
L 130.416183 229.302911 
L 130.445339 228.966101 
L 130.474496 229.795717 
L 130.561965 229.688237 
L 130.591121 228.801016 
L 130.649434 229.723152 
L 130.67859 228.879366 
L 130.707747 228.689481 
L 130.736903 229.713685 
L 130.824372 229.268407 
L 130.882685 229.751705 
L 130.911842 228.580393 
L 130.940998 229.568277 
L 130.999311 228.239647 
L 131.08678 229.57345 
L 131.145093 228.91716 
L 131.290875 229.867628 
L 131.349188 229.818631 
L 131.4075 229.415231 
L 131.465813 229.498956 
L 131.49497 229.812626 
L 131.524126 229.479964 
L 131.611595 229.599149 
L 131.640752 228.783771 
L 131.699064 229.618122 
L 131.757377 229.408101 
L 131.786534 229.508995 
L 131.81569 229.22208 
L 131.844846 228.266943 
L 131.903159 229.483205 
L 131.932316 229.313 
L 131.961472 229.544679 
L 132.019785 229.722385 
L 132.048941 229.586749 
L 132.107254 229.783915 
L 132.165567 227.644895 
L 132.282192 229.813586 
L 132.311349 229.010513 
L 132.398818 229.574931 
L 132.427974 229.592911 
L 132.457131 228.486443 
L 132.5446 229.281292 
L 132.602913 229.833562 
L 132.690382 229.719373 
L 132.748695 229.523675 
L 132.777851 228.442802 
L 132.836164 228.487427 
L 132.95279 229.849674 
L 132.981946 229.859228 
L 133.098571 229.107803 
L 133.127728 229.8445 
L 133.215197 229.563531 
L 133.27351 229.811904 
L 133.419292 228.541326 
L 133.565074 229.803271 
L 133.623387 229.68541 
L 133.652543 229.775403 
L 133.681699 229.850053 
L 133.710856 229.810893 
L 133.740012 229.2971 
L 133.798325 229.609239 
L 133.827481 229.781673 
L 133.885794 228.855994 
L 133.944107 229.008768 
L 133.973263 229.731326 
L 134.060733 229.54757 
L 134.119045 229.399516 
L 134.177358 229.862182 
L 134.32314 229.478983 
L 134.410609 229.844001 
L 134.439766 229.26585 
L 134.498079 229.522018 
L 134.585548 229.870758 
L 134.614704 229.69999 
L 134.673017 229.193775 
L 134.760486 229.205389 
L 134.847955 229.549379 
L 134.818799 229.169949 
L 134.877112 229.468121 
L 134.906268 229.328681 
L 134.935425 229.556833 
L 134.964581 229.670493 
L 134.993737 229.13463 
L 135.05205 229.73307 
L 135.081207 229.352747 
L 135.110363 229.63898 
L 135.168676 229.284388 
L 135.197832 229.570384 
L 135.285301 229.829201 
L 135.343614 229.745733 
L 135.46024 228.584863 
L 135.576865 229.829899 
L 135.606022 229.689341 
L 135.635178 228.423355 
L 135.722647 229.393083 
L 135.751804 228.976721 
L 135.78096 229.789988 
L 135.810116 229.830252 
L 135.926742 228.688236 
L 135.955898 228.997806 
L 135.985055 228.905676 
L 136.043368 229.673187 
L 136.10168 229.413765 
L 136.130837 229.083241 
L 136.18915 229.594332 
L 136.218306 229.40471 
L 136.247462 229.760861 
L 136.305775 229.703958 
L 136.334932 229.85845 
L 136.451557 229.190487 
L 136.480714 229.549446 
L 136.539026 229.795226 
L 136.626496 229.750039 
L 136.655652 229.64097 
L 136.684808 229.036473 
L 136.743121 229.811422 
L 136.772278 229.711702 
L 136.801434 228.724896 
L 136.859747 229.733018 
L 136.888903 229.512867 
L 136.91806 229.510424 
L 136.947216 229.843975 
L 137.034685 229.622029 
L 137.092998 229.864985 
L 137.122154 229.559331 
L 137.151311 229.730168 
L 137.180467 229.368492 
L 137.23878 229.846558 
L 137.267936 229.620292 
L 137.297093 229.707923 
L 137.326249 229.367421 
L 137.355406 229.865669 
L 137.384562 229.865119 
L 137.413718 229.815849 
L 137.442875 228.8537 
L 137.501188 229.576431 
L 137.530344 229.81009 
L 137.5595 229.559735 
L 137.705282 228.125828 
L 137.821908 229.8654 
L 137.909377 229.739159 
L 137.938534 229.385697 
L 137.996846 229.741685 
L 138.026003 229.752949 
L 138.055159 228.844127 
L 138.142628 229.422701 
L 138.171785 229.233907 
L 138.230097 229.854976 
L 138.28841 229.563171 
L 138.317567 229.255925 
L 138.346723 229.427492 
L 138.375879 229.859416 
L 138.463349 229.833899 
L 138.521661 229.865434 
L 138.667443 229.12591 
L 138.784069 229.803983 
L 138.813225 229.352683 
L 138.842382 229.244808 
L 138.900695 229.800857 
L 138.959007 229.793137 
L 139.046477 228.694366 
L 139.104789 229.759106 
L 139.163102 229.2546 
L 139.192259 229.169457 
L 139.338041 229.865586 
L 139.512979 228.935382 
L 139.600448 229.626697 
L 139.658761 228.956827 
L 139.687917 229.640122 
L 139.717074 229.541093 
L 139.74623 228.990993 
L 139.804543 229.835155 
L 139.833699 229.831146 
L 139.950325 229.291273 
L 139.979481 227.703668 
L 140.037794 228.604786 
L 140.096107 229.796697 
L 140.183576 229.758924 
L 140.241889 229.624281 
L 140.300202 229.869676 
L 140.358515 229.714906 
L 140.387671 229.659851 
L 140.47514 227.947 
L 140.504297 229.131524 
L 140.562609 228.932124 
L 140.620922 229.644194 
L 140.679235 229.030906 
L 140.708391 229.867518 
L 140.795861 229.146915 
L 140.825017 229.807421 
L 140.88333 229.687742 
L 140.912486 229.507022 
L 140.970799 229.658917 
L 140.999955 229.748291 
L 141.058268 229.679226 
L 141.116581 228.938967 
L 141.145737 229.576475 
L 141.233206 229.873148 
L 141.320676 229.6867 
L 141.349832 229.71672 
L 141.378988 229.320252 
L 141.437301 229.591475 
L 141.52477 229.870093 
L 141.553927 229.792214 
L 141.641396 228.51793 
L 141.61224 229.855572 
L 141.670552 229.286766 
L 141.728865 229.683028 
L 141.787178 229.58362 
L 141.874647 229.17377 
L 142.020429 229.855756 
L 142.137055 229.389419 
L 142.25368 229.779691 
L 142.34115 229.724215 
L 142.428619 229.305335 
L 142.457775 229.704206 
L 142.486932 228.847139 
L 142.545244 229.556364 
L 142.632714 229.788748 
L 142.720183 228.986357 
L 142.749339 229.516312 
L 142.807652 229.78885 
L 142.865965 229.674286 
L 142.953434 229.147812 
L 143.011747 229.450104 
L 143.157529 229.865505 
L 143.186685 229.874218 
L 143.244998 229.702575 
L 143.274154 228.93473 
L 143.361624 229.029579 
L 143.39078 229.743595 
L 143.449093 228.686036 
L 143.478249 229.533461 
L 143.507405 229.042744 
L 143.565718 229.799118 
L 143.594875 229.848783 
L 143.624031 229.355335 
L 143.682344 229.78882 
L 143.769813 229.752396 
L 143.886439 229.112529 
L 143.973908 229.836838 
L 144.003064 229.601005 
L 144.032221 229.840744 
L 144.061377 228.207699 
L 144.11969 229.412214 
L 144.178003 229.862044 
L 144.207159 229.17208 
L 144.236315 229.767942 
L 144.294628 229.814551 
L 144.382097 229.501417 
L 144.44041 229.858658 
L 144.469567 229.321361 
L 144.498723 229.607136 
L 144.557036 229.821172 
L 144.586192 229.60194 
L 144.644505 229.567088 
L 144.702818 228.739132 
L 144.731974 229.453102 
L 144.790287 229.867033 
L 144.819443 229.589162 
L 144.8486 229.382579 
L 144.877756 229.795251 
L 144.936069 229.868505 
L 144.965225 229.738697 
L 145.052695 228.304055 
L 145.023538 229.759625 
L 145.081851 229.402744 
L 145.111007 229.852905 
L 145.198477 229.616576 
L 145.227633 229.854644 
L 145.256789 229.39764 
L 145.315102 229.840308 
L 145.431728 229.492031 
L 145.490041 229.557459 
L 145.57751 229.859688 
L 145.635823 229.316914 
L 145.694135 229.742585 
L 145.723292 229.809316 
L 145.781605 229.769033 
L 145.810761 229.60922 
L 145.839917 229.85592 
L 145.869074 229.766972 
L 145.89823 229.804124 
L 145.927387 229.245472 
L 145.985699 229.854012 
L 146.044012 229.851742 
L 146.102325 229.120599 
L 146.160638 229.507292 
L 146.248107 229.842526 
L 146.277263 229.692424 
L 146.423045 229.235886 
L 146.597984 229.868048 
L 146.656296 229.099279 
L 146.714609 229.749494 
L 146.772922 229.79525 
L 146.860391 229.611518 
L 146.889548 229.71742 
L 146.918704 229.778281 
L 146.94786 229.589916 
L 146.977017 229.515376 
L 147.006173 229.666232 
L 147.03533 229.834699 
L 147.064486 229.816171 
L 147.122799 229.007087 
L 147.151955 229.839894 
L 147.239424 229.435209 
L 147.268581 229.839357 
L 147.35605 229.762524 
L 147.414363 228.843405 
L 147.472676 229.353148 
L 147.530988 229.853174 
L 147.647614 229.807454 
L 147.67677 229.850762 
L 147.705927 229.703586 
L 147.793396 229.066022 
L 147.822552 229.449514 
L 147.851709 228.541535 
L 147.910022 229.498332 
L 147.939178 229.290224 
L 147.968334 229.62887 
L 147.997491 229.746273 
L 148.026647 229.611871 
L 148.055804 229.712575 
L 148.143273 228.312439 
L 148.230742 228.959952 
L 148.376524 229.866951 
L 148.40568 229.493075 
L 148.49315 229.773749 
L 148.551462 229.872022 
L 148.580619 229.699099 
L 148.668088 228.250956 
L 148.638932 229.78815 
L 148.697244 228.642031 
L 148.81387 229.698998 
L 148.901339 229.749807 
L 148.959652 228.995782 
L 149.076277 229.648008 
L 149.13459 229.10209 
L 149.192903 229.498544 
L 149.222059 229.565599 
L 149.251216 229.296568 
L 149.280372 229.699631 
L 149.309529 229.685842 
L 149.338685 229.842319 
L 149.396998 229.701298 
L 149.484467 229.473855 
L 149.54278 229.670279 
L 149.571936 228.350384 
L 149.630249 229.72604 
L 149.776031 229.463137 
L 149.805187 229.601681 
L 149.834344 229.139837 
L 149.892657 229.756111 
L 149.921813 229.703841 
L 149.950969 229.741434 
L 150.038439 229.102615 
L 150.067595 229.391876 
L 150.096751 229.098049 
L 150.125908 229.526262 
L 150.155064 229.823749 
L 150.184221 229.264794 
L 150.213377 228.941385 
L 150.242533 229.331177 
L 150.388315 229.822816 
L 150.475785 228.353937 
L 150.534097 228.790404 
L 150.621567 229.84717 
L 150.679879 229.588261 
L 150.709036 229.632058 
L 150.738192 229.034273 
L 150.796505 229.799042 
L 150.854818 229.574688 
L 150.913131 229.783818 
L 150.971443 229.369155 
L 151.0006 229.727151 
L 151.029756 229.858377 
L 151.058913 229.77251 
L 151.117225 229.202513 
L 151.175538 229.548851 
L 151.233851 229.523017 
L 151.32132 229.796391 
L 151.437946 228.86066 
L 151.467102 229.208958 
L 151.525415 229.678419 
L 151.554571 229.393133 
L 151.64204 228.165954 
L 151.671197 228.792618 
L 151.700353 229.784427 
L 151.787822 229.476048 
L 151.816979 229.712549 
L 151.846135 229.286654 
L 151.904448 229.660646 
L 151.962761 229.35104 
L 152.021074 229.869539 
L 152.079386 229.851853 
L 152.137699 229.298783 
L 152.196012 229.748112 
L 152.254325 229.833368 
L 152.37095 229.592561 
L 152.400107 229.869389 
L 152.487576 229.842278 
L 152.633358 229.392904 
L 152.662514 229.506091 
L 152.691671 229.671086 
L 152.720827 228.738684 
L 152.808296 229.113486 
L 152.866609 229.811457 
L 152.924922 229.597334 
L 153.012391 228.399602 
L 152.983235 229.619973 
L 153.041548 228.949314 
L 153.158173 229.843947 
L 153.18733 229.829152 
L 153.245642 229.662227 
L 153.274799 229.829666 
L 153.303955 228.962231 
L 153.362268 229.872455 
L 153.391424 229.627208 
L 153.449737 229.809633 
L 153.566363 229.116285 
L 153.682988 229.761365 
L 153.741301 229.123218 
L 153.799614 229.679731 
L 153.82877 229.781194 
L 153.887083 229.726236 
L 153.91624 229.358549 
L 153.974552 229.812653 
L 154.062021 229.866894 
L 154.178647 229.210378 
L 154.295273 229.827287 
L 154.470211 228.877544 
L 154.586837 229.838441 
L 154.674306 229.821627 
L 154.790931 229.516479 
L 154.732619 229.849726 
L 154.820088 229.650138 
L 154.849244 229.649706 
L 154.907557 229.387992 
L 154.936713 229.408363 
L 154.995026 229.864142 
L 155.053339 229.853015 
L 155.140808 228.98004 
L 155.169965 229.433835 
L 155.228277 229.861936 
L 155.28659 229.679058 
L 155.344903 229.802429 
L 155.403216 229.70544 
L 155.432372 229.681496 
L 155.490685 229.867377 
L 155.519841 229.802633 
L 155.69478 228.411055 
L 155.840562 229.761887 
L 155.898875 229.264906 
L 155.928031 229.6729 
L 155.957187 229.795802 
L 156.0155 229.563829 
L 156.044657 229.570282 
L 156.102969 229.8545 
L 156.132126 229.538466 
L 156.161282 229.234691 
L 156.219595 229.271319 
L 156.307064 229.834166 
L 156.365377 229.789306 
L 156.394533 229.868123 
L 156.42369 229.640904 
L 156.452846 229.425501 
L 156.482003 229.849556 
L 156.511159 229.830755 
L 156.540315 229.657934 
L 156.627784 229.785034 
L 156.686097 229.855019 
L 156.715254 229.715316 
L 156.74441 229.763387 
L 156.773566 229.631851 
L 156.802723 229.565563 
L 156.890192 229.841151 
L 156.919348 229.242273 
L 157.006818 229.595431 
L 157.035974 229.734338 
L 157.094287 229.581893 
L 157.1526 229.61251 
L 157.210912 229.13896 
L 157.356694 229.823642 
L 157.444164 229.174591 
L 157.502476 229.362676 
L 157.531633 229.774416 
L 157.619102 229.705479 
L 157.677415 229.675382 
L 157.706571 229.866189 
L 157.852353 229.564228 
L 157.88151 229.711387 
L 157.910666 229.230038 
L 157.968979 229.779374 
L 158.056448 229.048366 
L 158.114761 229.609869 
L 158.143917 229.776161 
L 158.173074 229.474104 
L 158.20223 229.482104 
L 158.260543 229.490826 
L 158.289699 229.697273 
L 158.348012 229.530427 
L 158.406325 229.381425 
L 158.464638 229.792225 
L 158.493794 229.633946 
L 158.52295 228.195159 
L 158.581263 229.691774 
L 158.668732 229.773536 
L 158.697889 229.803584 
L 158.727045 229.759997 
L 158.814514 228.919627 
L 158.901984 229.131423 
L 158.93114 229.621293 
L 159.018609 229.611105 
L 159.076922 228.540964 
L 159.135235 229.431414 
L 159.164391 229.07366 
L 159.222704 229.410166 
L 159.339329 229.768658 
L 159.368486 229.621347 
L 159.426799 229.436135 
L 159.543424 229.85672 
L 159.689206 229.635172 
L 159.718363 229.84782 
L 159.747519 229.389609 
L 159.805832 229.819254 
L 159.834988 229.849169 
L 159.864145 229.77542 
L 159.98077 228.968984 
L 160.009927 229.324103 
L 160.126552 229.870104 
L 160.155709 229.852208 
L 160.214021 229.578193 
L 160.243178 229.809247 
L 160.272334 229.869887 
L 160.330647 229.297545 
L 160.38896 229.777034 
L 160.476429 229.697545 
L 160.534742 229.745137 
L 160.593055 229.818198 
L 160.622211 229.500122 
L 160.680524 229.855146 
L 160.70968 229.575719 
L 160.738837 229.456342 
L 160.767993 229.642905 
L 160.797149 229.60327 
L 160.884619 229.58404 
L 160.913775 229.849315 
L 161.001244 229.236169 
L 161.030401 229.801826 
L 161.11787 229.667607 
L 161.176183 229.766327 
L 161.234495 229.333578 
L 161.351121 229.813825 
L 161.496903 228.952974 
L 161.526059 229.835395 
L 161.613529 229.474026 
L 161.642685 229.525044 
L 161.671841 229.402699 
L 161.730154 228.443256 
L 161.759311 229.190532 
L 161.788467 229.761797 
L 161.84678 228.86798 
L 161.875936 229.44736 
L 161.963405 229.842104 
L 162.021718 229.787867 
L 162.080031 229.09792 
L 162.109187 229.744102 
L 162.138344 229.839436 
L 162.1675 229.677111 
L 162.196656 229.806032 
L 162.284126 229.843185 
L 162.342438 229.581961 
L 162.371595 229.7018 
L 162.400751 229.325384 
L 162.459064 229.777131 
L 162.604846 229.828104 
L 162.634002 229.475897 
L 162.692315 229.864367 
L 162.808941 229.632715 
L 162.838097 229.846671 
L 162.983879 227.816907 
L 163.100505 229.687161 
L 163.158818 229.025226 
L 163.187974 229.73049 
L 163.21713 229.273787 
L 163.3046 229.858209 
L 163.362912 229.823749 
L 163.537851 228.720841 
L 163.654476 229.829014 
L 163.712789 229.514717 
L 163.741946 229.758397 
L 163.771102 229.845563 
L 163.829415 229.715884 
L 163.858571 229.709725 
L 163.887728 229.843462 
L 163.975197 229.785269 
L 164.004353 229.849673 
L 164.120979 229.572958 
L 164.179292 229.858597 
L 164.208448 229.483471 
L 164.266761 229.786772 
L 164.295917 229.808258 
L 164.325074 229.708277 
L 164.35423 229.58583 
L 164.383386 229.867269 
L 164.470855 229.791133 
L 164.500012 229.613465 
L 164.529168 229.857858 
L 164.558325 229.651986 
L 164.587481 229.833955 
L 164.67495 229.775783 
L 164.704107 229.847492 
L 164.791576 228.827417 
L 164.820732 229.871417 
L 164.908201 229.166039 
L 164.966514 229.839797 
L 165.024827 229.752845 
L 165.08314 229.865802 
L 165.141453 229.624216 
L 165.287235 229.74937 
L 165.345547 229.669491 
L 165.40386 229.343089 
L 165.433017 229.806269 
L 165.462173 229.872889 
L 165.491329 229.532729 
L 165.549642 229.840295 
L 165.607955 229.846903 
L 165.695424 229.872211 
L 165.753737 229.370203 
L 165.870363 229.828445 
L 165.986988 229.636756 
L 166.016145 229.721937 
L 166.045301 229.85836 
L 166.13277 229.815732 
L 166.191083 229.831084 
L 166.278552 229.860959 
L 166.336865 229.453363 
L 166.395178 229.863948 
L 166.482647 229.797566 
L 166.628429 229.425762 
L 166.745055 229.839144 
L 166.803367 229.872479 
L 166.832524 229.716624 
L 166.919993 229.758692 
L 166.949149 229.843584 
L 166.978306 229.597632 
L 167.007462 229.684886 
L 167.124088 228.958122 
L 167.153244 229.058589 
L 167.1824 229.643547 
L 167.26987 229.25282 
L 167.299026 229.147101 
L 167.328182 229.319548 
L 167.415652 229.832137 
L 167.473964 229.762796 
L 167.532277 229.528942 
L 167.561434 229.847909 
L 167.648903 229.740794 
L 167.707216 229.839175 
L 167.736372 229.454944 
L 167.765528 229.840944 
L 167.852998 229.812245 
L 167.882154 229.771769 
L 167.940467 229.852847 
L 168.173718 229.762556 
L 168.202874 229.671494 
L 168.232031 229.841686 
L 168.261187 229.860568 
L 168.377813 229.444151 
L 168.406969 229.595468 
L 168.465282 229.74924 
L 168.611064 229.857444 
L 168.815159 229.638574 
L 168.844315 229.384769 
L 168.873472 229.722889 
L 168.902628 229.672755 
L 168.960941 229.657505 
L 168.990097 229.371926 
L 169.04841 229.760558 
L 169.077566 229.484822 
L 169.165036 229.262348 
L 169.194192 229.292103 
L 169.223348 229.804899 
L 169.310818 229.519476 
L 169.339974 229.464234 
L 169.398287 229.850464 
L 169.485756 229.822068 
L 169.514912 229.843681 
L 169.544069 229.760315 
L 169.602382 229.329114 
L 169.631538 229.589454 
L 169.719007 229.459241 
L 169.77732 229.855863 
L 169.893945 229.098139 
L 169.952258 229.76719 
L 170.010571 229.297861 
L 170.068884 229.844289 
L 170.09804 229.678482 
L 170.185509 229.207237 
L 170.156353 229.745316 
L 170.214666 229.536773 
L 170.272979 229.612169 
L 170.302135 229.851923 
L 170.389604 229.831875 
L 170.447917 229.495746 
L 170.535386 229.512294 
L 170.593699 229.861927 
L 170.681168 229.72723 
L 170.739481 228.983332 
L 170.768637 229.82903 
L 170.885263 229.397646 
L 170.82695 229.850605 
L 170.914419 229.639625 
L 170.972732 229.849756 
L 171.001889 229.806319 
L 171.147671 229.267882 
L 171.205983 229.235169 
L 171.351765 229.814525 
L 171.439235 229.429493 
L 171.497547 229.565979 
L 171.526704 229.642791 
L 171.55586 229.303631 
L 171.614173 229.639779 
L 171.643329 229.59052 
L 171.672486 229.846816 
L 171.759955 229.655249 
L 171.818268 229.612778 
L 171.847424 229.657264 
L 171.96405 229.856867 
L 171.993206 229.810186 
L 172.022363 229.847596 
L 172.109832 228.963196 
L 172.168145 229.543549 
L 172.28477 229.848182 
L 172.313926 229.793388 
L 172.343083 229.533168 
L 172.401396 229.657987 
L 172.488865 229.814838 
L 172.547178 229.633569 
L 172.576334 229.805273 
L 172.60549 229.869242 
L 172.634647 229.681525 
L 172.809585 229.765583 
L 172.926211 229.855387 
L 173.01368 229.463856 
L 173.042836 229.741385 
L 173.130306 229.814198 
L 173.217775 229.277704 
L 173.246931 229.685543 
L 173.451026 229.628042 
L 173.538495 229.871088 
L 173.567652 229.760431 
L 173.625964 229.803308 
L 173.655121 229.697605 
L 173.684277 229.645744 
L 173.74259 229.719849 
L 173.771746 229.82557 
L 173.800903 229.670823 
L 173.830059 229.573126 
L 173.859216 229.779342 
L 173.888372 229.866278 
L 173.917528 229.720473 
L 173.946685 229.775528 
L 173.975841 229.422474 
L 174.034154 229.788314 
L 174.179936 229.459589 
L 174.209092 229.509828 
L 174.238249 229.764478 
L 174.296562 229.546736 
L 174.325718 229.510192 
L 174.442344 229.846221 
L 174.4715 229.830363 
L 174.588126 229.717877 
L 174.646438 229.200174 
L 174.675595 229.635258 
L 174.79222 229.806457 
L 174.821377 229.788654 
L 174.850533 229.538925 
L 174.908846 229.765572 
L 174.996315 229.868621 
L 175.025471 229.820336 
L 175.171253 229.52278 
L 175.20041 229.727062 
L 175.287879 229.624867 
L 175.491974 229.849 
L 175.550287 229.453394 
L 175.579443 229.861568 
L 175.608599 229.764616 
L 175.725225 229.865006 
L 175.754381 229.820209 
L 175.841851 229.178531 
L 175.871007 229.471812 
L 176.104258 229.85477 
L 176.191727 229.429765 
L 176.162571 229.862579 
L 176.220884 229.637134 
L 176.25004 229.860663 
L 176.279197 229.686866 
L 176.308353 229.304926 
L 176.366666 229.844171 
L 176.395822 229.699238 
L 176.483291 229.794891 
L 176.512448 229.869923 
L 176.570761 229.770741 
L 176.599917 229.588023 
L 176.629073 229.846341 
L 176.65823 229.635494 
L 176.774855 229.87188 
L 176.949794 229.226049 
L 176.97895 229.650545 
L 177.037263 229.190019 
L 177.066419 229.1358 
L 177.212201 229.794505 
L 177.591234 229.741318 
L 177.649547 229.51043 
L 177.678704 229.729613 
L 177.766173 229.740288 
L 177.795329 229.492006 
L 177.853642 229.862864 
L 177.970268 229.784903 
L 177.999424 229.863977 
L 178.02858 229.710178 
L 178.057737 229.713258 
L 178.145206 229.769615 
L 178.174362 229.645636 
L 178.232675 229.496321 
L 178.290988 229.866545 
L 178.378457 229.815581 
L 178.43677 229.160163 
L 178.495083 229.457681 
L 178.524239 229.82543 
L 178.611708 229.669454 
L 178.670021 229.871705 
L 178.699178 229.768556 
L 178.728334 229.561976 
L 178.75749 229.822575 
L 178.815803 229.645604 
L 178.84496 229.746554 
L 178.903272 229.593265 
L 178.932429 229.70975 
L 178.990742 229.843727 
L 179.049054 229.579781 
L 179.311462 229.854767 
L 179.544713 229.564737 
L 179.57387 229.275895 
L 179.632182 229.688777 
L 179.777964 229.248451 
L 179.807121 229.801394 
L 179.865434 229.560346 
L 179.89459 229.340465 
L 179.923746 229.597143 
L 179.952903 229.389378 
L 180.011216 229.848159 
L 180.069528 229.612512 
L 180.127841 228.974977 
L 180.156997 229.801835 
L 180.273623 229.839153 
L 180.302779 229.662716 
L 180.361092 229.867442 
L 180.390249 229.798549 
L 180.419405 229.815511 
L 180.477718 229.378733 
L 180.536031 229.566222 
L 180.565187 229.689848 
L 180.594343 229.265431 
L 180.652656 229.338671 
L 180.710969 229.86778 
L 180.798438 229.832018 
L 180.885907 229.5783 
L 180.94422 229.798889 
L 181.002533 229.703432 
L 181.090002 229.831171 
L 181.235784 229.743846 
L 181.381566 229.393373 
L 181.294097 229.843003 
L 181.410723 229.445074 
L 181.556505 229.864267 
L 181.585661 229.232566 
L 181.643974 229.848737 
L 181.964694 229.81586 
L 182.110476 229.323399 
L 182.227102 229.763059 
L 182.256258 229.123631 
L 182.314571 229.391151 
L 182.372884 229.87266 
L 182.431197 229.852236 
L 182.547822 229.393179 
L 182.664448 229.779197 
L 182.693604 229.792451 
L 182.722761 229.437793 
L 182.781073 229.843121 
L 182.926855 229.734182 
L 182.956012 229.813434 
L 182.985168 229.765923 
L 183.014324 229.614987 
L 183.043481 229.857115 
L 183.072637 229.842569 
L 183.276732 229.683536 
L 183.305888 229.796324 
L 183.335045 229.84053 
L 183.393358 229.799192 
L 183.422514 229.760152 
L 183.45167 229.863492 
L 183.53914 229.848701 
L 183.743234 229.313272 
L 183.85986 229.770008 
L 183.889016 229.690051 
L 183.918173 229.648064 
L 184.034798 229.872433 
L 184.151424 229.807731 
L 184.18058 229.524501 
L 184.26805 229.614265 
L 184.297206 229.619866 
L 184.384675 229.853378 
L 184.413832 229.79664 
L 184.442988 229.866833 
L 184.472144 229.776152 
L 184.559614 229.622188 
L 184.58877 229.689523 
L 184.647083 229.815243 
L 184.705396 229.797937 
L 185.084429 229.873656 
L 185.230211 229.485383 
L 185.405149 229.869927 
L 185.492618 229.167169 
L 185.550931 229.580028 
L 185.580087 229.611086 
L 185.609244 229.53272 
L 185.667557 229.388559 
L 185.813339 229.845336 
L 185.842495 229.730919 
L 185.900808 229.768416 
L 185.959121 229.86163 
L 186.017433 229.796435 
L 186.075746 229.72202 
L 186.134059 229.832578 
L 186.163215 229.724607 
L 186.192372 229.860254 
L 186.221528 229.792046 
L 186.36731 229.853762 
L 186.600561 229.623649 
L 186.658874 229.784326 
L 186.688031 229.66461 
L 186.717187 229.565867 
L 186.746343 229.69683 
L 186.7755 229.874284 
L 186.804656 229.840829 
L 186.833813 229.490775 
L 186.921282 229.653278 
L 186.950438 229.603429 
L 186.979595 229.849635 
L 187.067064 229.828835 
L 187.09622 229.853102 
L 187.183689 229.720341 
L 187.212846 229.781303 
L 187.271159 229.86776 
L 187.329471 229.657656 
L 187.416941 229.872402 
L 187.446097 229.860517 
L 187.621035 229.557662 
L 187.795974 229.863508 
L 187.82513 229.837471 
L 187.912599 229.843911 
L 187.970912 229.657378 
L 188.029225 229.803209 
L 188.14585 229.87175 
L 188.23332 229.755173 
L 188.262476 229.817676 
L 188.291632 229.864684 
L 188.320789 229.803653 
L 188.437414 229.563277 
L 188.612353 229.842015 
L 188.728978 229.754768 
L 188.758135 229.872116 
L 188.845604 229.775437 
L 188.991386 229.828672 
L 189.020542 229.731313 
L 189.078855 229.871424 
L 189.166324 229.675689 
L 189.224637 229.792623 
L 189.253794 229.463521 
L 189.341263 229.478626 
L 189.399576 229.852593 
L 189.457888 229.818301 
L 190.099329 229.805373 
L 190.157642 229.704975 
L 190.186798 229.83869 
L 190.245111 229.522124 
L 190.303424 229.829028 
L 190.42005 229.680301 
L 190.361737 229.867663 
L 190.449206 229.746616 
L 190.565832 229.850841 
L 190.682457 229.641605 
L 190.799083 229.843727 
L 190.828239 229.502272 
L 190.886552 229.803934 
L 191.557149 229.791118 
L 191.615462 229.740486 
L 191.673775 229.864483 
L 191.907026 229.813684 
L 191.994495 229.540819 
L 192.081964 229.873051 
L 192.111121 229.850665 
L 192.256903 229.625607 
L 192.373528 229.801887 
L 192.402685 229.581388 
L 192.490154 229.655683 
L 192.51931 229.815903 
L 192.606779 229.677426 
L 192.694249 229.8668 
L 192.752561 229.813569 
L 192.781718 229.874448 
L 192.869187 229.807776 
L 192.956656 229.518108 
L 192.985813 229.667521 
L 193.102438 229.864048 
L 193.24822 229.589893 
L 193.364846 229.826845 
L 193.423158 229.726153 
L 193.452315 229.615285 
L 193.481471 229.781821 
L 193.539784 229.71285 
L 193.56894 229.634706 
L 193.598097 229.789448 
L 193.714722 229.832277 
L 193.743879 229.615171 
L 193.773035 229.874115 
L 193.831348 229.749855 
L 193.860504 229.677359 
L 193.889661 229.79321 
L 193.918817 229.838232 
L 193.947974 229.676336 
L 194.006286 229.789215 
L 194.035443 229.858173 
L 194.093756 229.746183 
L 194.122912 229.789307 
L 194.29785 229.731211 
L 194.38532 229.870905 
L 194.356163 229.666283 
L 194.414476 229.855107 
L 194.560258 229.550792 
L 194.589414 229.822605 
L 194.618571 229.417081 
L 194.676884 229.801346 
L 194.70604 229.76468 
L 194.764353 229.859239 
L 195.02676 229.551601 
L 195.055917 229.688394 
L 195.11423 229.606624 
L 195.201699 229.816279 
L 195.289168 229.851068 
L 195.318324 229.55653 
L 195.376637 229.83597 
L 195.522419 229.682729 
L 195.580732 229.825273 
L 195.609888 229.835296 
L 195.639045 229.693216 
L 195.726514 229.778099 
L 195.813983 229.86937 
L 195.843139 229.792093 
L 195.988921 229.848724 
L 196.018078 229.785471 
L 196.105547 229.842612 
L 196.193016 229.866187 
L 196.222173 229.81827 
L 196.309642 229.768766 
L 196.338798 229.814441 
L 196.367955 229.861537 
L 196.397111 229.757144 
L 196.48458 229.606887 
L 196.601206 229.836084 
L 196.659519 229.741316 
L 196.717831 229.773776 
L 197.126021 229.856437 
L 197.155177 229.73131 
L 197.242647 229.764366 
L 197.359272 229.845987 
L 197.417585 229.737991 
L 197.505054 229.503492 
L 197.592523 229.849778 
L 197.62168 229.775396 
L 197.709149 229.745707 
L 197.738305 229.872548 
L 197.825775 229.805412 
L 197.913244 229.864833 
L 198.029869 229.788644 
L 198.204808 229.8523 
L 198.554684 229.759017 
L 198.583841 229.654478 
L 198.612997 229.785413 
L 198.700466 229.861749 
L 198.729623 229.82956 
L 198.875405 229.843922 
L 198.904561 229.739107 
L 198.962874 229.86381 
L 199.166969 229.666593 
L 199.254438 229.862566 
L 199.283594 229.828258 
L 199.604315 229.840185 
L 199.633471 229.744357 
L 199.691784 229.86909 
L 199.983348 229.773536 
L 200.099974 229.862481 
L 200.245756 229.805754 
L 200.391538 229.854764 
L 200.508163 229.822556 
L 200.566476 229.618674 
L 200.595632 229.865972 
L 200.624789 229.787978 
L 200.770571 229.873373 
L 200.85804 229.593372 
L 200.916353 229.790232 
L 201.003822 229.84793 
L 201.032978 229.779776 
L 201.091291 229.613188 
L 201.120447 229.739007 
L 201.266229 229.853725 
L 201.470324 229.77133 
L 201.557793 229.870996 
L 201.58695 229.80992 
L 201.674419 229.866653 
L 201.703575 229.704527 
L 201.791045 229.825311 
L 201.90767 229.778351 
L 201.936827 229.850046 
L 202.082609 229.835275 
L 202.111765 229.710471 
L 202.170078 229.869526 
L 202.374173 229.769993 
L 202.432485 229.857518 
L 202.461642 229.829174 
L 202.490798 229.692821 
L 202.578267 229.799183 
L 202.724049 229.857206 
L 203.103083 229.822024 
L 203.248865 229.809366 
L 203.36549 229.872412 
L 203.423803 229.769995 
L 203.482116 229.860504 
L 203.569585 229.819348 
L 203.598741 229.757252 
L 203.627898 229.859981 
L 203.657054 229.82551 
L 203.802836 229.863489 
L 203.831992 229.757429 
L 203.919462 229.836442 
L 204.0944 229.869113 
L 204.211026 229.807608 
L 204.327651 229.855533 
L 204.356808 229.798813 
L 204.444277 229.782665 
L 204.473433 229.696864 
L 204.50259 229.819957 
L 204.531746 229.785321 
L 204.706684 229.859401 
L 204.794154 229.754198 
L 204.82331 229.83251 
L 205.027405 229.842903 
L 205.202343 229.801598 
L 205.318969 229.852888 
L 205.727158 229.839868 
L 205.902097 229.863588 
L 205.931253 229.765033 
L 206.018722 229.820597 
L 206.135348 229.865758 
L 206.310286 229.738624 
L 206.339443 229.634427 
L 206.368599 229.837467 
L 206.397755 229.819322 
L 206.456068 229.741842 
L 206.485225 229.87044 
L 208.05967 229.828437 
L 208.147139 229.854908 
L 208.176296 229.811826 
L 208.78858 229.866641 
L 208.905206 229.742033 
L 208.934362 229.783069 
L 208.992675 229.874345 
L 209.050988 229.849464 
L 209.255082 229.836032 
L 209.430021 229.863903 
L 209.51749 229.776718 
L 209.546646 229.650643 
L 209.575803 229.839197 
L 209.604959 229.808364 
L 209.663272 229.867833 
L 209.692428 229.797965 
L 209.779898 229.698153 
L 209.809054 229.801079 
L 210.071462 229.873475 
L 210.100618 229.772946 
L 210.158931 229.821135 
L 210.275556 229.865335 
L 210.363026 229.765802 
L 210.392182 229.804048 
L 211.033623 229.847027 
L 211.150248 229.846722 
L 211.266874 229.811883 
L 211.29603 229.843514 
L 211.645907 229.862629 
L 211.791689 229.841605 
L 212.112409 229.871089 
L 212.170722 229.786402 
L 212.229035 229.864065 
L 212.841319 229.817151 
L 212.870476 229.746016 
L 212.928789 229.870178 
L 213.045414 229.864887 
L 213.395291 229.834829 
L 213.511917 229.873601 
L 213.541073 229.836004 
L 213.745168 229.771644 
L 213.89095 229.870529 
L 214.153357 229.830632 
L 214.21167 229.847059 
L 214.240826 229.631174 
L 214.328296 229.788704 
L 214.415765 229.620119 
L 214.444921 229.651537 
L 214.561547 229.870423 
L 214.590703 229.843457 
L 214.765642 229.711318 
L 214.794798 229.763577 
L 214.94058 229.869962 
L 214.969736 229.843351 
L 215.173831 229.856918 
L 215.407082 229.855933 
L 215.436239 229.780598 
L 215.494552 229.874048 
L 215.698646 229.805658 
L 215.727803 229.695795 
L 215.756959 229.834719 
L 215.786116 229.804719 
L 215.931898 229.858398 
L 216.048523 229.833383 
L 216.135992 229.872937 
L 216.165149 229.830161 
L 216.340087 229.820319 
L 216.3984 229.760744 
L 216.427556 229.869184 
L 216.894059 229.865906 
L 217.243935 229.834384 
L 217.331405 229.694458 
L 217.360561 229.727816 
L 217.506343 229.84206 
L 217.652125 229.829723 
L 217.972845 229.84982 
L 218.147784 229.800869 
L 218.293566 229.736393 
L 218.381035 229.849081 
L 218.439348 229.774051 
L 218.58513 229.847468 
L 218.672599 229.82664 
L 218.701755 229.855206 
L 219.139101 229.83208 
L 219.226571 229.779255 
L 219.255727 229.839495 
L 219.459822 229.830314 
L 219.605604 229.833637 
L 220.072106 229.846575 
L 220.217888 229.834973 
L 220.421983 229.841193 
L 220.480296 229.673789 
L 220.538608 229.759575 
L 220.596921 229.663323 
L 220.742703 229.866837 
L 221.121736 229.866532 
L 221.354988 229.828141 
L 221.384144 229.60539 
L 221.442457 229.866876 
L 221.471613 229.798304 
L 221.559082 229.870452 
L 221.850646 229.827866 
L 221.996428 229.873577 
L 222.783651 229.823007 
L 222.900277 229.848311 
L 222.929433 229.794548 
L 223.016902 229.860625 
L 223.191841 229.863804 
L 223.220997 229.782848 
L 223.308466 229.852271 
L 223.60003 229.868438 
L 223.687499 229.6964 
L 223.716656 229.848226 
L 223.804125 229.720347 
L 223.833281 229.826749 
L 224.037376 229.868418 
L 224.358097 229.812143 
L 224.503879 229.858387 
L 224.970381 229.81161 
L 225.087006 229.860242 
L 225.116163 229.774404 
L 225.203632 229.85142 
L 225.407727 229.872804 
L 226.953016 229.825311 
L 227.098798 229.873336 
L 227.477831 229.846764 
L 227.652769 229.868279 
L 227.769395 229.849859 
L 227.915177 229.84953 
L 228.265054 229.833215 
L 228.410836 229.840275 
L 228.556618 229.869118 
L 228.7024 229.828799 
L 229.256371 229.842965 
L 229.343841 229.871833 
L 229.402153 229.767859 
L 229.460466 229.84937 
L 229.693717 229.848054 
L 229.839499 229.874156 
L 230.743348 229.802775 
L 230.88913 229.870085 
L 231.093224 229.846865 
L 231.384788 229.869677 
L 231.588883 229.864563 
L 232.142855 229.858323 
L 232.434419 229.835044 
L 232.842608 229.840971 
L 233.221641 229.874066 
L 233.454893 229.791689 
L 233.484049 229.851495 
L 233.688144 229.86412 
L 234.621149 229.84969 
L 234.8544 229.84112 
L 235.029338 229.864137 
L 235.116807 229.804639 
L 235.145964 229.825576 
L 235.291746 229.856953 
L 235.612466 229.874426 
L 235.729092 229.866136 
L 236.22475 229.87273 
L 236.341376 229.864575 
L 240.59821 229.863056 
L 240.627366 229.761509 
L 240.714836 229.842441 
L 241.764466 229.85799 
L 241.939404 229.869295 
L 243.076504 229.857776 
L 243.193129 229.800331 
L 243.222286 229.696066 
L 243.280599 229.850654 
L 243.572163 229.866176 
L 244.067821 229.873941 
L 244.213603 229.859822 
L 244.680106 229.864969 
L 244.796731 229.863112 
L 244.942513 229.852728 
L 244.97167 229.802032 
L 245.059139 229.869481 
L 245.729736 229.849482 
L 245.846362 229.835736 
L 246.779366 229.867381 
L 246.895992 229.847815 
L 247.100087 229.860941 
L 247.566589 229.802855 
L 247.712371 229.868757 
L 248.120561 229.816659 
L 248.266343 229.871126 
L 249.607537 229.869335 
L 249.840788 229.867889 
L 250.161509 229.845413 
L 250.39476 229.87376 
L 250.802949 229.842855 
L 251.0362 229.874031 
L 251.415234 229.803254 
L 251.561016 229.855122 
L 251.823423 229.860789 
L 259.345774 229.847647 
L 259.520712 229.870285 
L 259.899745 229.870531 
L 261.532504 229.864784 
L 261.736598 229.869914 
L 277.801774 229.859878 
L 277.947556 229.836851 
L 278.122494 229.855852 
L 279.522001 229.861682 
L 279.813565 229.873643 
L 281.008977 229.867754 
L 282.379328 229.860465 
L 282.52511 229.870218 
L 283.312333 229.838932 
L 283.458115 229.872031 
L 283.66221 229.871508 
L 284.536902 229.853529 
L 284.770153 229.871659 
L 285.76147 229.86359 
L 286.286285 229.8643 
L 286.927726 229.86534 
L 287.394229 229.862683 
L 287.685792 229.860883 
L 288.414702 229.872834 
L 289.289394 229.856338 
L 289.522646 229.865838 
L 289.785053 229.872945 
L 292.64238 229.868919 
L 292.875631 229.863746 
L 293.225508 229.873273 
L 294.1002 229.864348 
L 294.537546 229.871583 
L 304.159157 229.868299 
L 304.334096 229.871404 
L 305.442039 229.873635 
L 307.395517 229.86606 
L 307.803707 229.869384 
L 308.50346 229.873472 
L 308.969963 229.855166 
L 309.174058 229.862308 
L 309.698873 229.869542 
L 309.902968 229.873751 
L 310.515252 229.872663 
L 311.389944 229.862444 
L 311.856446 229.874077 
L 316.142437 229.871727 
L 320.574209 229.87441 
L 320.778304 229.872962 
L 332.557489 229.86035 
L 332.703271 229.869355 
L 333.432181 229.872175 
L 372.909943 229.873359 
L 372.909943 229.873359 
" style="fill:none;stroke:#1f77b4;stroke-linecap:square;stroke-width:1.5;"/>
   </g>
   <g id="patch_3">
    <path d="M 53.328125 239.758125 
L 53.328125 22.318125 
" style="fill:none;stroke:#000000;stroke-linecap:square;stroke-linejoin:miter;stroke-width:0.8;"/>
   </g>
   <g id="patch_4">
    <path d="M 388.128125 239.758125 
L 388.128125 22.318125 
" style="fill:none;stroke:#000000;stroke-linecap:square;stroke-linejoin:miter;stroke-width:0.8;"/>
   </g>
   <g id="patch_5">
    <path d="M 53.328125 239.758125 
L 388.128125 239.758125 
" style="fill:none;stroke:#000000;stroke-linecap:square;stroke-linejoin:miter;stroke-width:0.8;"/>
   </g>
   <g id="patch_6">
    <path d="M 53.328125 22.318125 
L 388.128125 22.318125 
" style="fill:none;stroke:#000000;stroke-linecap:square;stroke-linejoin:miter;stroke-width:0.8;"/>
   </g>
   <g id="text_18">
    <!-- Unnormal -->
    <defs>
     <path d="M 8.6875 72.90625 
L 18.609375 72.90625 
L 18.609375 28.609375 
Q 18.609375 16.890625 22.84375 11.734375 
Q 27.09375 6.59375 36.625 6.59375 
Q 46.09375 6.59375 50.34375 11.734375 
Q 54.59375 16.890625 54.59375 28.609375 
L 54.59375 72.90625 
L 64.5 72.90625 
L 64.5 27.390625 
Q 64.5 13.140625 57.4375 5.859375 
Q 50.390625 -1.421875 36.625 -1.421875 
Q 22.796875 -1.421875 15.734375 5.859375 
Q 8.6875 13.140625 8.6875 27.390625 
z
" id="DejaVuSans-85"/>
     <path d="M 52 44.1875 
Q 55.375 50.25 60.0625 53.125 
Q 64.75 56 71.09375 56 
Q 79.640625 56 84.28125 50.015625 
Q 88.921875 44.046875 88.921875 33.015625 
L 88.921875 0 
L 79.890625 0 
L 79.890625 32.71875 
Q 79.890625 40.578125 77.09375 44.375 
Q 74.3125 48.1875 68.609375 48.1875 
Q 61.625 48.1875 57.5625 43.546875 
Q 53.515625 38.921875 53.515625 30.90625 
L 53.515625 0 
L 44.484375 0 
L 44.484375 32.71875 
Q 44.484375 40.625 41.703125 44.40625 
Q 38.921875 48.1875 33.109375 48.1875 
Q 26.21875 48.1875 22.15625 43.53125 
Q 18.109375 38.875 18.109375 30.90625 
L 18.109375 0 
L 9.078125 0 
L 9.078125 54.6875 
L 18.109375 54.6875 
L 18.109375 46.1875 
Q 21.1875 51.21875 25.484375 53.609375 
Q 29.78125 56 35.6875 56 
Q 41.65625 56 45.828125 52.96875 
Q 50 49.953125 52 44.1875 
z
" id="DejaVuSans-109"/>
    </defs>
    <g transform="translate(191.406875 16.318125)scale(0.12 -0.12)">
     <use xlink:href="#DejaVuSans-85"/>
     <use x="73.193359" xlink:href="#DejaVuSans-110"/>
     <use x="136.572266" xlink:href="#DejaVuSans-110"/>
     <use x="199.951172" xlink:href="#DejaVuSans-111"/>
     <use x="261.132812" xlink:href="#DejaVuSans-114"/>
     <use x="302.230469" xlink:href="#DejaVuSans-109"/>
     <use x="399.642578" xlink:href="#DejaVuSans-97"/>
     <use x="460.921875" xlink:href="#DejaVuSans-108"/>
    </g>
   </g>
  </g>
 </g>
 <defs>
  <clipPath id="p1629f7161b">
   <rect height="217.44" width="334.8" x="53.328125" y="22.318125"/>
  </clipPath>
 </defs>
</svg>
